<?xml version="1.0" encoding="UTF-8"?>
<!DOCTYPE svg PUBLIC "-//W3C//DTD SVG 1.1//EN" "http://www.w3.org/Graphics/SVG/1.1/DTD/svg11.dtd">
<svg xmlns="http://www.w3.org/2000/svg" xml:space="preserve" width="2390px" height="560px" version="1.1" shape-rendering="geometricPrecision" text-rendering="geometricPrecision" image-rendering="optimizeQuality" fill-rule="evenodd" clip-rule="evenodd"
viewBox="0 0 2390 560"
 xmlns:xlink="http://www.w3.org/1999/xlink">
 <g id="Слой_x0020_1">
  <metadata id="CorelCorpID_0Corel-Layer"/>
  <g id="_2325401842976">
   <path fill="#38464D" fill-rule="nonzero" d="M1364 555c-3,0 -6,-1 -8,-8l-31 -86c-1,-3 -1,-5 1,-7 1,-2 3,-3 6,-3 1,0 5,1 6,5l27 73 31 -73c1,-3 4,-5 6,-5 2,0 4,2 6,5l31 73 26 -73c2,-4 6,-5 7,-5 2,0 4,1 6,3 1,2 1,4 0,7l-31 85c-3,9 -5,9 -8,9 -3,0 -4,-1 -7,-7l0 0 -31 -70 -29 69c-3,7 -5,8 -8,8z"/>
   <path fill="#38464D" fill-rule="nonzero" d="M1555 556c-26,0 -53,-18 -53,-54 0,-37 29,-54 56,-54 26,1 53,19 53,54 0,36 -27,54 -53,54 -1,0 -2,0 -3,0zm1 -94l0 0c-19,0 -40,14 -40,40 0,27 21,41 40,41 20,0 41,-14 41,-41 0,-26 -20,-40 -41,-40z"/>
   <path fill="#38464D" fill-rule="nonzero" d="M1721 555c-2,0 -4,-2 -6,-4l-25 -36 -30 0 0 32c0,6 -5,8 -7,8 -4,0 -7,-2 -7,-7l0 -90c0,-4 2,-6 6,-6l42 0c20,0 29,14 32,25 2,13 -3,29 -19,35l-4 2 24 29c2,3 2,6 1,8 -1,2 -4,4 -7,4zm-61 -51l0 0 34 0c12,0 19,-10 19,-20 0,-5 -2,-10 -5,-14 -3,-4 -8,-6 -14,-6l-34 0 0 40z"/>
   <path fill="#38464D" fill-rule="nonzero" d="M1839 555c-2,0 -4,0 -5,-3l-1 0 -37 -48 -19 21 0 23c0,5 -4,7 -7,7 -2,0 -4,-1 -5,-2 -1,-1 -2,-3 -2,-5l0 -90c0,-6 4,-7 7,-7 3,0 7,2 7,7l0 48 52 -53c1,-1 3,-2 5,-2 2,0 4,1 5,2 1,2 2,3 2,5 0,1 -1,3 -2,4l0 1 0 0c-6,6 -12,12 -18,18 -4,4 -8,9 -13,14l-2 2 39 47c2,2 2,5 1,7 -1,2 -4,4 -7,4z"/>
   <path fill="#38464D" fill-rule="nonzero" d="M1918 558c-14,0 -27,-4 -35,-11 -4,-3 -3,-8 -2,-11 2,-1 4,-2 5,-2 2,0 3,1 5,2l0 0c8,5 20,9 30,9 14,0 23,-7 24,-18l0 -1 0 0c-1,-12 -14,-16 -28,-20 -19,-5 -38,-10 -35,-34 2,-17 21,-25 38,-25 11,0 21,3 28,8 3,2 4,5 3,8 -1,2 -3,4 -5,4 -1,0 -3,-1 -4,-2l0 0c-6,-4 -16,-7 -24,-7 -13,0 -21,6 -23,15 -2,15 13,19 28,23 18,5 36,10 36,31 -1,23 -22,31 -41,31z"/>
   <path fill="#38464D" fill-rule="nonzero" d="M2071 554c-4,0 -7,-3 -7,-6l0 -38 -59 0 0 38c0,4 -2,6 -6,6 -5,0 -8,-2 -8,-6l0 -90c0,-4 3,-6 8,-6 4,0 6,2 6,6l0 38 59 0 0 -38c0,-4 4,-6 7,-6 4,0 7,2 7,6l0 90c0,4 -3,6 -7,6z"/>
   <path fill="#38464D" fill-rule="nonzero" d="M2164 556c-27,0 -54,-18 -54,-54 0,-37 29,-54 56,-54 26,1 54,19 54,54 0,36 -27,54 -54,54 -1,0 -1,0 -2,0zm1 -94l0 0c-20,0 -41,14 -41,40 0,27 21,41 41,41 20,0 41,-14 41,-41 0,-26 -21,-40 -41,-40z"/>
   <path fill="#38464D" fill-rule="nonzero" d="M2264 554c-4,0 -8,-2 -8,-7l0 -89c0,-4 3,-8 8,-8l36 0c18,0 36,12 36,37 0,24 -19,36 -36,36l-30 0 0 24c0,5 -2,7 -6,7zm6 -44l0 0 30 0c12,0 22,-11 22,-23 0,-13 -10,-24 -22,-24l-30 0 0 47z"/>
   <g>
    <path fill="#319BD6" fill-rule="nonzero" d="M6 95c12,-101 165,-120 238,-64 35,29 -3,74 -34,51 -39,-25 -127,-36 -138,18 -14,86 214,37 210,176 -3,133 -196,136 -268,77 -17,-15 -17,-38 -7,-52 13,-13 28,-18 46,-3 43,29 153,51 161,-23 -7,-78 -224,-31 -208,-180z"/>
   </g>
   <path fill="#F16039" fill-rule="nonzero" d="M975 329l-148 -294c-13,-29 -50,-28 -64,0l-151 294c-10,21 0,40 17,50 19,3 38,0 47,-18l22 -46 97 -198 96 198 23 46c19,41 82,8 61,-32z"/>
   <g>
    <path fill="#92C552" fill-opacity="0.8" fill-rule="nonzero" d="M911 246l-236 0c-45,0 -45,70 0,70l236 0c46,0 46,-70 0,-70z"/>
   </g>
   <path fill="#F6BB2F" fill-opacity="0.8"  fill-rule="nonzero" d="M1962 51c0,-46 68,-50 68,0l0 190c0,195 -315,195 -315,0l0 -190c0,-47 68,-49 68,0l0 190c0,103 179,109 179,0l0 -190z"/>
   <g>
    <path fill="#319BD6" fill-rule="nonzero" d="M429 47l0 32 0 0 0 264c0,47 69,46 69,0l0 -264 0 0 0 -32c0,-47 -69,-46 -69,0z"/>
   </g>
   <path fill="#92C552"  fill-opacity="0.8" fill-rule="nonzero" d="M585 12l-248 0c-45,0 -45,67 0,67l248 0c46,0 46,-67 0,-67z"/>
   <g>
    <path fill="#319BD6" fill-rule="nonzero" d="M1475 47l0 32 0 0 0 264c0,47 69,46 69,0l0 -264 0 0 0 -32c0,-47 -69,-46 -69,0z"/>
   </g>
   <path fill="#92C552"  fill-opacity="0.8" fill-rule="nonzero" d="M1631 12l-248 0c-45,0 -45,67 0,67l248 0c46,0 46,-67 0,-67z"/>
   <path fill="#319BD6" fill-rule="nonzero" d="M1093 345l0 -294c0,-46 -70,-46 -70,0l0 294c0,46 70,46 70,0z"/>
   <path fill="#319BD6" fill-rule="nonzero" d="M1305 329l-92 -122c-27,-37 -74,-3 -46,34l89 125c27,37 76,1 49,-37z"/>
   <g>
    <path fill="#92C552"  fill-opacity="0.8" fill-rule="nonzero" d="M1298 190c18,-33 18,-76 1,-110 -23,-44 -62,-63 -106,-63l-136 0 -3 0c-13,1 -28,10 -31,26 0,0 0,0 0,0 0,1 0,2 0,3 0,0 0,1 0,2 0,0 0,0 0,1l0 0c0,16 11,32 34,32l3 0 33 0 21 0 82 0c6,0 12,1 18,3 50,19 40,106 -21,106l-7 0 -129 0c-46,0 -45,60 0,60l117 0c45,0 94,-9 124,-60z"/>
   </g>
   <g>
    <path fill="#319BD6" fill-rule="nonzero" d="M2174 342l0 -294c0,-48 -67,-48 -70,0l0 294c0,47 70,47 70,0z"/>
   </g>
   <g>
    <path fill="#F6BB2F" fill-opacity="0.8" fill-rule="nonzero" d="M2380 89c-23,-44 -60,-77 -113,-77l-129 0c-19,1 -31,15 -34,31 0,0 0,0 0,0 0,1 0,2 0,3 0,0 0,1 0,2 0,0 0,0 0,1l0 0c0,16 11,29 34,29l3 0 33 0 22 0 62 0c6,0 17,1 22,3 56,21 56,98 6,121 -9,4 -18,6 -28,6l-120 0c-46,0 -45,66 0,66l131 -1c44,0 84,-17 109,-71 12,-25 19,-78 2,-113z"/>
   </g>
  </g>
 </g>
</svg>
