<?xml version="1.0" encoding="UTF-8"?>
<!DOCTYPE svg PUBLIC "-//W3C//DTD SVG 1.1//EN" "http://www.w3.org/Graphics/SVG/1.1/DTD/svg11.dtd">
<svg xmlns="http://www.w3.org/2000/svg" xml:space="preserve" width="16px" height="16px" version="1.1" shape-rendering="geometricPrecision" text-rendering="geometricPrecision" image-rendering="optimizeQuality" fill-rule="evenodd" clip-rule="evenodd"
viewBox="0 0 1600000 1600000"
 xmlns:xlink="http://www.w3.org/1999/xlink">
  <path fill="white" fill-rule="nonzero" d="M1442988 1147757l-233123 -233151c-1021,-1021 -2126,-1900 -3118,-2835 50060,-76309 79228,-167444 79228,-265297 0,-267649 -217702,-485351 -485323,-485351 -267621,0 -485352,217702 -485352,485351 0,267621 217731,485324 485352,485324 96804,0 187003,-28602 262859,-77613 1049,1162 2069,2381 3203,3515l233151 233151c39516,39544 103607,39544 143123,0 39543,-39487 39543,-103579 0,-143094zm-644377 26136l0 163900 -381093 0 0 -199192 -189100 0 0 -499270 44901 0c453,-34611 4167,-68429 11027,-101113l-106499 0c-27950,0 -50542,22649 -50542,50571l0 695826c0,16668 8220,32258 21940,41669l151258 103749c8419,5755 18397,8844 28602,8844l520076 0c27950,0 50543,-22620 50543,-50542l0 -223768c-32486,6179 -65651,9382 -99072,9382 -709,0 -1361,-56 -2041,-56zm179264 -769301c-4847,3203 -9241,7172 -12897,12104l-109390 147091 -79569 -96435c-11311,-13692 -29084,-20410 -46574,-17802 -17575,2665 -32428,14343 -39203,30784l-70555 171696 -82177 -96123c-5046,-5896 -11311,-10403 -18256,-13437 -12019,32429 -18623,67437 -18623,104004 0,7739 368,15421 964,23075l95046 111005c11452,13380 29027,19815 46403,17065 17405,-2806 32061,-14429 38750,-30728l69932 -170108 66954 81128c9893,11962 24804,18709 40281,18312 15534,-369 30019,-7881 39317,-20353l147828 -198852c340,-454 624,-936 935,-1389 -18992,-27298 -42406,-51336 -69166,-71037zm-177223 583970l0 0c-188676,0 -342144,-153440 -342144,-342088 0,-188675 153468,-342144 342144,-342144 188647,0 342088,153469 342088,342144 0,188648 -153441,342088 -342088,342088z"/>
</svg>
