<?xml version="1.0" encoding="UTF-8"?>
<!DOCTYPE svg PUBLIC "-//W3C//DTD SVG 1.1//EN" "http://www.w3.org/Graphics/SVG/1.1/DTD/svg11.dtd">
<svg xmlns="http://www.w3.org/2000/svg" xml:space="preserve" width="16px" height="16px" version="1.1" shape-rendering="geometricPrecision" text-rendering="geometricPrecision" image-rendering="optimizeQuality" fill-rule="evenodd" clip-rule="evenodd"
viewBox="0 0 1600000 1600000"
 xmlns:xlink="http://www.w3.org/1999/xlink">
  <g id="_2494290306608">
   <path fill="white" fill-rule="nonzero" d="M1392446 1197874l-1184948 0c-37985,0 -68769,30784 -68769,68769 0,37985 30784,68797 68769,68797l1184948 0c37984,0 68797,-30812 68797,-68797 0,-37985 -30813,-68769 -68797,-68769z"/>
   <path fill="white" fill-rule="nonzero" d="M496861 593268c2494,0 4932,-284 7426,-397l104089 151059c-12472,23131 -19587,49579 -19587,77670 0,90625 73730,164354 164354,164354 90596,0 164354,-73729 164354,-164354 0,-7313 -680,-14485 -1587,-21572l57912 -44759c25455,16214 55588,25767 87960,25767 4563,0 9071,-312 13549,-680l51591 97456c-21118,27638 -33846,62079 -33846,99496 0,90625 73730,164326 164354,164326 90625,0 164354,-73701 164354,-164326 0,-90624 -73729,-164354 -164354,-164354 -3033,0 -5981,284 -8957,454l-53434 -100943c19475,-26986 31097,-60009 31097,-95783 0,-90624 -73730,-164354 -164354,-164354 -90625,0 -164354,73730 -164354,164354 0,7654 708,15109 1729,22479l-57346 44306c-25625,-16498 -56013,-26193 -88668,-26193 -11962,0 -23584,1333 -34838,3771l-91191 -132323c21288,-27694 34072,-62249 34072,-99808 0,-90625 -73701,-164354 -164325,-164354 -90625,0 -164354,73729 -164354,164354 0,90624 73729,164354 164354,164354zm760569 311388l0 0c40054,0 72653,32599 72653,72652 0,40054 -32599,72653 -72653,72653 -40053,0 -72652,-32599 -72652,-72653 0,-40053 32599,-72652 72652,-72652zm-195648 -360627l0 0c40053,0 72624,32599 72624,72653 0,40054 -32571,72653 -72624,72653 -40083,0 -72653,-32599 -72653,-72653 0,-40054 32570,-72653 72653,-72653zm-308639 204919l0 0c40054,0 72624,32598 72624,72652 0,40054 -32570,72653 -72624,72653 -40082,0 -72653,-32599 -72653,-72653 0,-40054 32571,-72652 72653,-72652zm-256282 -392687l0 0c40053,0 72624,32599 72624,72653 0,40053 -32571,72652 -72624,72652 -40054,0 -72653,-32599 -72653,-72652 0,-40054 32599,-72653 72653,-72653z"/>
   <path fill="white" fill-rule="nonzero" d="M207498 1119212c31209,0 56495,-25285 56495,-56467 0,-31209 -25286,-56523 -56495,-56523 -31210,0 -56495,25314 -56495,56523 0,31182 25285,56467 56495,56467z"/>
   <path fill="white" fill-rule="nonzero" d="M207498 934590c31209,0 56495,-25285 56495,-56495 0,-31210 -25286,-56495 -56495,-56495 -31210,0 -56495,25285 -56495,56495 0,31210 25285,56495 56495,56495z"/>
   <path fill="white" fill-rule="nonzero" d="M207498 749968c31209,0 56495,-25313 56495,-56495 0,-31210 -25286,-56495 -56495,-56495 -31210,0 -56495,25285 -56495,56495 0,31182 25285,56495 56495,56495z"/>
   <path fill="white" fill-rule="nonzero" d="M207498 565318c31209,0 56495,-25285 56495,-56495 0,-31181 -25286,-56495 -56495,-56495 -31210,0 -56495,25314 -56495,56495 0,31210 25285,56495 56495,56495z"/>
   <path fill="white" fill-rule="nonzero" d="M207498 380696c31209,0 56495,-25285 56495,-56495 0,-31210 -25286,-56495 -56495,-56495 -31210,0 -56495,25285 -56495,56495 0,31210 25285,56495 56495,56495z"/>
  </g>
</svg>
