<?xml version="1.0" encoding="UTF-8"?>
<!DOCTYPE svg PUBLIC "-//W3C//DTD SVG 1.1//EN" "http://www.w3.org/Graphics/SVG/1.1/DTD/svg11.dtd">
<svg xmlns="http://www.w3.org/2000/svg" xml:space="preserve" width="16px" height="16px" version="1.1" shape-rendering="geometricPrecision" text-rendering="geometricPrecision" image-rendering="optimizeQuality" fill-rule="evenodd" clip-rule="evenodd"
viewBox="0 0 1600000 1600000"
 xmlns:xlink="http://www.w3.org/1999/xlink">
  <path fill="white" fill-rule="nonzero" stroke="white" stroke-width="0" d="M1349472 951343c-11282,0 -23131,1927 -35121,5953 -11679,-38864 -42492,-59500 -79598,-59500 -16611,0 -34470,4139 -52441,12586 -18794,-29339 -46347,-44306 -72738,-44306 -22819,0 -44731,11169 -59330,33903l0 -258890c0,0 5245,-48672 -59074,-48672 -64290,0 -64290,50372 -64290,50372l0 436142 -22451 -113131c0,0 -3912,-50741 -55616,-50741 -6151,0 -13011,737 -20608,2325 -58933,12529 -43966,73418 -43966,73418 42095,295230 181617,403628 181617,403628l362441 -992c0,0 55219,-74070 66671,-137283 12275,-67550 31267,-239785 31267,-239785 -5896,-41584 -37815,-65027 -76763,-65027zm-619460 32343l-421714 0c-3316,0 -6066,-2749 -6066,-6066l0 -637517c0,-3344 2750,-6094 6066,-6094l908597 0c3345,0 6094,2750 6094,6094l0 505308c3912,-283 7852,-482 11764,-482 45440,29 84246,19730 108908,53661 1956,-85 3883,-142 5811,-142 624,0 1247,113 1899,113l0 -558458c0,-74183 -60321,-134505 -134476,-134505l-908597 0c-74154,0 -134505,60322 -134505,134505l0 637517c0,74155 60351,134477 134505,134477l446234 0c-8844,-34186 -16469,-71377 -22366,-111884 -708,-3714 -1672,-9440 -2154,-16527zm-190716 -545815l-84984 0 0 84984 84984 0 0 -84984zm166225 0l-85012 0 0 84984 85012 0 0 -84984zm166168 0l-85012 0 0 84984 85012 0 0 -84984zm166196 84984l0 -84984 -84983 0 0 84984 84983 0zm-498589 69562l-84984 0 0 84984 84984 0 0 -84984zm81213 84984l85012 0 0 -84984 -85012 0 0 84984zm166168 0l85012 0 0 -84984 -85012 0 0 84984zm-332365 154574l84984 0 0 -85012 -84984 0 0 85012z"/>
</svg>
