<?xml version="1.0" encoding="UTF-8"?>
<!DOCTYPE svg PUBLIC "-//W3C//DTD SVG 1.1//EN" "http://www.w3.org/Graphics/SVG/1.1/DTD/svg11.dtd">
<svg xmlns="http://www.w3.org/2000/svg" xml:space="preserve" width="16px" height="16px" version="1.1" shape-rendering="geometricPrecision" text-rendering="geometricPrecision" image-rendering="optimizeQuality" fill-rule="evenodd" clip-rule="evenodd"
viewBox="0 0 1600000 1600000"
 xmlns:xlink="http://www.w3.org/1999/xlink">
  <path fill="white" fill-rule="nonzero" stroke="white" stroke-width="0" d="M1092396 775934c-4791,4620 -6378,9269 -6350,15732 227,54284 -652,323861 397,378116 681,32287 -20636,60521 -59471,60152 -132351,-1162 -480023,-1134 -612345,0 -38467,340 -61484,-28035 -61286,-61172 992,-133031 426,-481327 426,-614358 0,-3685 0,-7398 226,-11083 1021,-15789 8448,-27837 21345,-36794 10971,-7625 23301,-9496 36284,-9496 74042,85 363348,141 437418,-199 4734,-28 10516,-2211 13833,-5442 22224,-21345 43966,-43201 65764,-64971 14542,-14598 28857,-29339 44930,-45638 -5925,0 -9496,0 -13068,0 -114606,0 -444476,0 -559082,0 -89065,0 -162058,72624 -162058,161463 0,140429 57,496067 85,636496 0,72624 45497,135214 114833,157636 9099,2948 18510,5102 27808,7597 154177,0 523591,0 677769,0 2466,-766 4904,-1786 7455,-2268 77046,-13606 135186,-82772 135186,-160952 0,-94820 0,-404933 0,-499809 0,-3458 0,-6945 0,-12132 -2807,2409 -4082,3401 -5188,4507 -34951,34242 -69761,68570 -104911,102615zm-21940 -383899c-6378,-6407 -11056,-6549 -17519,-114 -87959,87421 -338714,334463 -426589,421912 -4337,4337 -8447,9922 -10176,15704 -19276,64432 -38212,128949 -56864,193580 -4677,16299 7541,31294 26504,31351 2268,-453 6577,-1049 10744,-2239 61059,-17774 122259,-35405 183148,-53802 7880,-2381 15874,-7370 21798,-13238 87648,-86287 337496,-332762 424945,-419248 6237,-6151 7059,-10913 369,-17489 -52271,-51988 -104401,-104174 -156360,-156417zm272298 -36568c-26703,-27779 -54086,-54907 -81497,-81978 -11622,-11452 -25540,-18397 -41471,-17320 -16384,-57 -29792,4791 -40819,15846 -13918,14060 -27837,28148 -42208,41669 -6208,5811 -5897,9837 -57,15563 29565,29225 58848,58706 88215,88101 21061,21062 42236,42095 63184,63355 4281,4365 7512,5754 12360,765 14655,-15193 30331,-29480 44249,-45326 21940,-25087 21175,-56523 -1956,-80675z"/>
</svg>
