<?xml version="1.0" encoding="UTF-8"?>
<!DOCTYPE svg PUBLIC "-//W3C//DTD SVG 1.1//EN" "http://www.w3.org/Graphics/SVG/1.1/DTD/svg11.dtd">
<svg xmlns="http://www.w3.org/2000/svg" xml:space="preserve" width="16px" height="16px" version="1.1" shape-rendering="geometricPrecision" text-rendering="geometricPrecision" image-rendering="optimizeQuality" fill-rule="evenodd" clip-rule="evenodd"
viewBox="0 0 1600000 1600000"
 xmlns:xlink="http://www.w3.org/1999/xlink">
  <path fill="white" fill-rule="nonzero" d="M1586592 722699c-107037,-124839 -205258,-255489 -291064,-394218l-221274 136631 -145163 -41272c-59528,-19078 -121154,-23557 -185019,-12813l-80505 23159 -322840 -125916c-16781,-6548 -35858,-1984 -47821,11481l-268556 301835c-14740,16583 -14485,41641 595,57912l169286 182468c-73956,84870 -28545,197945 60832,194005 3969,53433 67267,109786 128581,84699 3969,48842 70215,100263 123620,80477 24009,74495 99922,78236 149585,44476 2070,1332 4224,2522 6463,3486 40281,17093 78577,25626 114663,25626 36368,0 70526,-8646 102161,-25994 134052,-49125 264021,-117696 386025,-203586 43597,-30161 69931,-75601 72256,-124669 623,-13153 -539,-26079 -3317,-38523l251492 -179264zm-369726 271816l0 0c-5159,3628 -10375,7200 -15562,10772l-245993 -211467 -42094 49012 231989 199390c-28857,18171 -58054,35377 -87591,51506l-206789 -190291 -43768 47537 189498 174361c-31635,15505 -63582,29877 -95812,43030l-160045 -150804 -44306 47027 138587 130536c-37078,18709 -80306,17830 -131727,-2721 8050,-53944 -23131,-118404 -111913,-151314 21742,-60266 -38580,-127674 -94961,-120587 14853,-72228 -51421,-139466 -128552,-96946 -10347,-51336 -73390,-93459 -122940,-33619l-130168 -140316 222606 -250216 204692 79852c-34923,53859 72879,156729 183573,139551l105308 -24123 60038 31720c92467,57600 206222,145277 340415,262604 199,170 397,340 596,510 14031,11820 21288,28460 20438,46885 -1049,22026 -13890,43144 -35519,58111z"/>
</svg>
