<?xml version="1.0" encoding="UTF-8"?>
<!DOCTYPE svg PUBLIC "-//W3C//DTD SVG 1.1//EN" "http://www.w3.org/Graphics/SVG/1.1/DTD/svg11.dtd">
<svg xmlns="http://www.w3.org/2000/svg" xml:space="preserve" width="16px" height="16px" version="1.1" shape-rendering="geometricPrecision" text-rendering="geometricPrecision" image-rendering="optimizeQuality" fill-rule="evenodd" clip-rule="evenodd"
viewBox="0 0 1600000 1600000"
 xmlns:xlink="http://www.w3.org/1999/xlink">
  <path fill="white" fill-rule="nonzero" d="M1288838 471604l-87647 0 0 -78662c0,-116193 -94537,-210730 -210730,-210730l-627907 0c-116193,0 -210758,94537 -210758,210730l0 456835c0,116221 94565,210757 210758,210757l143264 0 0 9582c-4138,141506 -33761,254439 -81695,347700 106584,-7795 204124,-62278 291120,-171016l573595 0c88045,0 159394,-71348 159394,-159365l0 -456466c0,-87988 -71349,-159365 -159394,-159365zm-514180 442718l0 0c-33052,0 -59840,-26816 -59840,-59868 0,-33052 26788,-59840 59840,-59840 33081,0 59868,26788 59868,59840 0,33052 -26787,59868 -59868,59868zm199504 0l0 0c-33052,0 -59840,-26816 -59840,-59868 0,-33052 26788,-59840 59840,-59840 33052,0 59868,26788 59868,59840 0,33052 -26816,59868 -59868,59868zm123223 -442718l0 0 -432202 0c-88016,0 -159365,71377 -159365,159365l0 325731 -143264 0c-58961,0 -106924,-47962 -106924,-106923l0 -456835c0,-58961 47963,-106924 106924,-106924l627907 0c58961,0 106924,47963 106924,106924l0 78662zm76281 442718l0 0c-33052,0 -59840,-26816 -59840,-59868 0,-33052 26788,-59840 59840,-59840 33052,0 59868,26788 59868,59840 0,33052 -26816,59868 -59868,59868z"/>
</svg>
