<?xml version="1.0" encoding="utf-8"?>
<!-- Generator: Adobe Illustrator 16.0.1, SVG Export Plug-In . SVG Version: 6.00 Build 0)  -->
<!DOCTYPE svg PUBLIC "-//W3C//DTD SVG 1.1//EN" "http://www.w3.org/Graphics/SVG/1.1/DTD/svg11.dtd">
<svg version="1.1" id="Слой_1" xmlns="http://www.w3.org/2000/svg" xmlns:xlink="http://www.w3.org/1999/xlink" x="0px" y="0px"
	 width="611.333px" height="214.5px" viewBox="0 0 611.333 214.5" enable-background="new 0 0 611.333 214.5" xml:space="preserve">
<g>
	<defs>
		<rect id="SVGID_1_" width="611.333" height="214.5"/>
	</defs>
	<clipPath id="SVGID_2_">
		<use xlink:href="#SVGID_1_"  overflow="visible"/>
	</clipPath>
	<g clip-path="url(#SVGID_2_)">
		<path fill="#5A9005" d="M44.945,95H12.739V8.628h31.23c24.521,0,49.407,10.248,49.407,42.942C93.376,81.947,68.734,95,44.945,95z
			 M43.481,26.439h-10.37v50.505h9.882c14.883,0,28.668-6.1,28.668-25.375C71.662,32.173,57.876,26.439,43.481,26.439z"/>
	</g>
	<g clip-path="url(#SVGID_2_)">
		<path fill="#B5C926" d="M108.386,25.83c-6.466,0-11.467-5.002-11.467-10.979c0-5.856,5.001-10.979,11.467-10.979
			c6.344,0,11.467,4.879,11.467,10.979C119.854,21.072,114.73,25.83,108.386,25.83z M98.383,95V34.247h20.007V95H98.383z"/>
	</g>
	<g clip-path="url(#SVGID_2_)">
		<path fill="#5A9005" d="M159.503,52.18c-3.172-3.05-7.808-5.49-12.688-5.49c-3.782,0-7.563,1.342-7.563,4.88
			c0,3.416,3.294,4.392,11.102,6.1c9.271,2.074,19.397,6.709,19.397,18.543c0,15.371-13.542,20.739-25.985,20.739
			c-9.881,0-20.129-3.294-26.473-9.394l11.224-11.833c3.538,3.904,9.027,6.832,14.883,6.832c3.294,0,7.198-1.342,7.198-5.246
			c0-3.782-3.782-5.002-12.078-6.954c-8.417-1.952-17.689-6.222-17.689-17.689c0-14.517,13.663-20.373,25.252-20.373
			c9.028,0,18.421,2.928,24.399,8.54L159.503,52.18z"/>
	</g>
	<g clip-path="url(#SVGID_2_)">
		<path fill="#B5C926" d="M215.988,53.888c-2.196-2.928-6.587-4.88-10.613-4.88c-8.417,0-14.029,7.198-14.029,15.615
			s5.49,15.493,14.273,15.493c4.026,0,8.417-1.586,10.857-4.514l11.102,13.542c-5.002,4.879-13.542,7.808-22.447,7.808
			c-19.153,0-34.036-12.2-34.036-32.329c0-19.763,15.005-32.329,33.914-32.329c8.662,0,17.812,3.294,22.569,8.174L215.988,53.888z"
			/>
	</g>
	<g clip-path="url(#SVGID_2_)">
		<path fill="#5A9005" d="M257.469,96.952c-18.299,0-33.67-12.688-33.67-32.573c0-19.885,15.371-32.084,33.67-32.084
			c18.421,0,33.792,12.2,33.792,32.084C291.262,84.265,275.89,96.952,257.469,96.952z M257.469,48.886
			c-9.394,0-14.273,7.686-14.273,15.493s5.002,15.737,14.396,15.737s14.395-7.93,14.395-15.737S266.863,48.886,257.469,48.886z"/>
	</g>
	<g clip-path="url(#SVGID_2_)">
		<path fill="#B5C926" d="M332.742,95h-21.593l-23.911-60.753h22.081l12.81,39.404h0.366l12.81-39.404h21.349L332.742,95z"/>
	</g>
	<g clip-path="url(#SVGID_2_)">
		<path fill="#5A9005" d="M417.043,70.113h-44.039c0.609,6.709,7.319,11.467,14.517,11.467c6.344,0,10.736-2.684,13.42-6.344
			l13.907,8.784c-5.733,8.295-15.249,12.932-27.57,12.932c-18.3,0-33.427-11.59-33.427-32.084c0-19.885,14.396-32.573,32.816-32.573
			c17.933,0,30.498,12.322,30.498,33.061C417.165,66.941,417.165,68.649,417.043,70.113z M398.744,57.67
			c0-6.344-4.025-11.589-11.955-11.589c-7.686,0-13.298,5.368-13.785,11.589H398.744z"/>
	</g>
	<g clip-path="url(#SVGID_2_)">
		<path fill="#B5C926" d="M460.233,50.594c-1.83-0.488-3.538-0.61-5.124-0.61c-10.735,0-14.273,8.783-14.273,13.785V95h-20.007
			V34.247h19.275v8.784h0.243c3.051-6.1,9.028-10.492,16.47-10.492c1.586,0,3.294,0.122,4.27,0.488L460.233,50.594z"/>
	</g>
	<g clip-path="url(#SVGID_2_)">
		<path fill="#74369E" d="M33.355,156.246v23.179c0,5.612,1.83,8.54,7.563,8.54c1.952,0,4.392-0.366,5.856-0.976l0.244,14.639
			c-2.684,0.977-7.32,1.83-11.589,1.83c-16.226,0-21.593-8.661-21.593-21.593v-25.619H4.077v-15.005h9.637V125.26h19.641v15.981
			h14.273v15.005H33.355z"/>
	</g>
	<g clip-path="url(#SVGID_2_)">
		<path fill="#CB50A3" d="M95.209,201.994v-32.938c0-6.832-1.708-12.81-8.906-12.81c-6.954,0-10.857,5.734-10.857,12.932v32.816
			H55.439v-92.228h20.007v39.16h0.244c2.684-4.88,9.027-9.394,17.445-9.394c16.469,0,22.203,12.688,22.203,24.887v37.574H95.209z"/>
	</g>
	<g clip-path="url(#SVGID_2_)">
		<path fill="#74369E" d="M179.266,177.107h-44.04c0.61,6.71,7.32,11.468,14.518,11.468c6.344,0,10.735-2.685,13.419-6.344
			l13.907,8.783c-5.734,8.296-15.25,12.932-27.571,12.932c-18.299,0-33.426-11.59-33.426-32.085
			c0-19.885,14.395-32.572,32.816-32.572c17.933,0,30.499,12.321,30.499,33.061C179.388,173.936,179.388,175.644,179.266,177.107z
			 M160.966,164.664c0-6.344-4.025-11.59-11.955-11.59c-7.686,0-13.297,5.368-13.786,11.59H160.966z"/>
	</g>
	<g clip-path="url(#SVGID_2_)">
	</g>
	<g clip-path="url(#SVGID_2_)">
		<path fill="#EF6D1D" d="M290.407,201.994h-20.129l-11.956-37.818h-0.244l-11.711,37.818h-20.129l-20.983-60.753h21.593
			l10.492,38.428h0.366l10.858-38.428h20.129l11.223,38.428h0.244l10.613-38.428h20.739L290.407,201.994z"/>
	</g>
	<g clip-path="url(#SVGID_2_)">
		<path fill="#DA2228" d="M339.209,203.946c-18.299,0-33.671-12.688-33.671-32.572c0-19.886,15.372-32.085,33.671-32.085
			c18.421,0,33.792,12.199,33.792,32.085C373.001,191.259,357.63,203.946,339.209,203.946z M339.209,155.881
			c-9.394,0-14.273,7.686-14.273,15.493s5.002,15.737,14.396,15.737s14.396-7.93,14.396-15.737S348.603,155.881,339.209,155.881z"/>
	</g>
	<g clip-path="url(#SVGID_2_)">
		<path fill="#EF6D1D" d="M416.313,157.588c-1.83-0.487-3.538-0.609-5.124-0.609c-10.735,0-14.273,8.783-14.273,13.785v31.23
			h-20.007v-60.753h19.275v8.783h0.244c3.05-6.1,9.027-10.491,16.469-10.491c1.586,0,3.294,0.122,4.27,0.488L416.313,157.588z"/>
	</g>
	<g clip-path="url(#SVGID_2_)">
		<path fill="#DA2228" d="M425.587,201.994v-92.228h20.251v92.228H425.587z"/>
	</g>
	<g clip-path="url(#SVGID_2_)">
		<path fill="#EF6D1D" d="M496.955,201.994v-7.93h-0.244c-3.904,6.1-11.834,9.638-19.886,9.638
			c-18.299,0-28.912-15.371-28.912-32.328c0-16.958,10.979-31.841,28.669-31.841c8.905,0,15.127,4.147,18.543,8.174h0.244v-37.94
			h20.007v92.228H496.955z M481.583,155.881c-9.516,0-14.395,7.686-14.395,15.493c0,7.93,4.879,15.737,14.395,15.737
			c9.028,0,14.64-7.687,14.64-15.615C496.223,163.81,490.611,155.881,481.583,155.881z"/>
	</g>
	<g clip-path="url(#SVGID_2_)">
		<path fill="#DA2228" d="M532.336,203.214c-6.709,0-12.443-5.124-12.443-11.833c0-6.588,5.612-12.077,12.443-12.077
			c6.588,0,12.199,5.245,12.199,11.955S538.924,203.214,532.336,203.214z"/>
	</g>
	<g clip-path="url(#SVGID_2_)">
		<path fill="#EF6D1D" d="M562.348,203.214c-6.709,0-12.443-5.124-12.443-11.833c0-6.588,5.612-12.077,12.443-12.077
			c6.588,0,12.199,5.245,12.199,11.955S568.936,203.214,562.348,203.214z"/>
	</g>
	<g clip-path="url(#SVGID_2_)">
		<path fill="#DA2228" d="M592.36,203.214c-6.71,0-12.443-5.124-12.443-11.833c0-6.588,5.612-12.077,12.443-12.077
			c6.588,0,12.199,5.245,12.199,11.955S598.948,203.214,592.36,203.214z"/>
	</g>
</g>
</svg>
