<?xml version="1.0" encoding="utf-8"?>
<!-- Generator: Adobe Illustrator 16.0.1, SVG Export Plug-In . SVG Version: 6.00 Build 0)  -->
<!DOCTYPE svg PUBLIC "-//W3C//DTD SVG 1.1//EN" "http://www.w3.org/Graphics/SVG/1.1/DTD/svg11.dtd">
<svg version="1.1" id="Слой_1" xmlns="http://www.w3.org/2000/svg" xmlns:xlink="http://www.w3.org/1999/xlink" x="0px" y="0px"
	 width="251.685px" height="32.14px" viewBox="0 0 251.685 32.14" enable-background="new 0 0 251.685 32.14" xml:space="preserve">
<g>
	<defs>
		<rect id="SVGID_1_" y="0" width="251.685" height="32.14"/>
	</defs>
	<clipPath id="SVGID_2_">
		<use xlink:href="#SVGID_1_"  overflow="visible"/>
	</clipPath>
	<g clip-path="url(#SVGID_2_)">
		<path fill="#74369E" d="M15.622,7.525c-0.899-1.147-2.543-1.892-3.907-1.892S8.646,6.099,8.646,7.835
			c0,1.458,1.302,1.922,3.38,2.574c2.977,0.961,6.821,2.232,6.821,6.604c0,5.055-4.062,7.318-8.403,7.318
			c-3.131,0-6.294-1.147-8.216-3.163L5.7,17.634c1.054,1.333,3.007,2.325,4.744,2.325c1.612,0,3.039-0.62,3.039-2.388
			c0-1.674-1.674-2.201-4.558-3.132c-2.791-0.899-5.612-2.325-5.612-6.294c0-4.868,4.403-6.883,8.496-6.883
			c2.48,0,5.271,0.93,7.193,2.698L15.622,7.525z"/>
	</g>
	<g clip-path="url(#SVGID_2_)">
		<path fill="#CB50A3" d="M36.206,17.447H25.013c0.155,1.705,1.86,2.915,3.69,2.915c1.612,0,2.729-0.683,3.41-1.613l3.535,2.232
			c-1.458,2.109-3.876,3.287-7.008,3.287c-4.65,0-8.495-2.945-8.495-8.154c0-5.054,3.658-8.279,8.34-8.279
			c4.558,0,7.751,3.131,7.751,8.403C36.237,16.642,36.237,17.075,36.206,17.447z M31.556,14.285c0-1.612-1.023-2.946-3.039-2.946
			c-1.953,0-3.379,1.364-3.503,2.946H31.556z"/>
	</g>
	<g clip-path="url(#SVGID_2_)">
		<path fill="#74369E" d="M38.157,23.772V0.332h5.147v23.44H38.157z"/>
	</g>
	<g clip-path="url(#SVGID_2_)">
		<path fill="#CB50A3" d="M60.82,17.447H49.627c0.155,1.705,1.86,2.915,3.69,2.915c1.612,0,2.729-0.683,3.41-1.613l3.535,2.232
			c-1.458,2.109-3.876,3.287-7.008,3.287c-4.65,0-8.495-2.945-8.495-8.154c0-5.054,3.658-8.279,8.34-8.279
			c4.558,0,7.751,3.131,7.751,8.403C60.852,16.642,60.852,17.075,60.82,17.447z M56.17,14.285c0-1.612-1.023-2.946-3.039-2.946
			c-1.953,0-3.379,1.364-3.503,2.946H56.17z"/>
	</g>
	<g clip-path="url(#SVGID_2_)">
		<path fill="#74369E" d="M73.344,13.323c-0.559-0.744-1.675-1.24-2.698-1.24c-2.139,0-3.566,1.83-3.566,3.969
			c0,2.14,1.396,3.938,3.628,3.938c1.023,0,2.14-0.402,2.76-1.146l2.821,3.441c-1.271,1.24-3.441,1.984-5.705,1.984
			c-4.868,0-8.65-3.101-8.65-8.217c0-5.022,3.813-8.216,8.619-8.216c2.202,0,4.527,0.837,5.736,2.078L73.344,13.323z"/>
	</g>
	<g clip-path="url(#SVGID_2_)">
		<path fill="#CB50A3" d="M82.55,12.146v5.891c0,1.427,0.465,2.171,1.922,2.171c0.496,0,1.116-0.093,1.488-0.248l0.062,3.721
			c-0.682,0.248-1.86,0.465-2.945,0.465c-4.124,0-5.488-2.201-5.488-5.488v-6.511h-2.48V8.332h2.449V4.27h4.992v4.062h3.628v3.814
			H82.55z"/>
	</g>
	<g clip-path="url(#SVGID_2_)">
		<path fill="#74369E" d="M95.972,10.44c1.798-1.706,4.372-2.604,6.883-2.604c5.178,0,7.101,2.542,7.101,8.155v7.782h-4.651v-1.644
			h-0.093c-0.775,1.271-2.542,2.016-4.372,2.016c-2.45,0-5.612-1.209-5.612-4.837c0-4.465,5.426-5.209,9.922-5.209v-0.248
			c0-1.52-1.209-2.232-2.791-2.232c-1.457,0-2.883,0.713-3.813,1.581L95.972,10.44z M105.304,17.044h-0.651
			c-2.232,0-4.744,0.279-4.744,2.108c0,1.179,1.178,1.581,2.201,1.581c2.047,0,3.194-1.24,3.194-3.162V17.044z"/>
	</g>
	<g clip-path="url(#SVGID_2_)">
		<path fill="#CB50A3" d="M122.229,23.772V0.332h5.147v23.44H122.229z"/>
	</g>
	<g clip-path="url(#SVGID_2_)">
		<path fill="#74369E" d="M129.39,10.44c1.798-1.706,4.372-2.604,6.883-2.604c5.179,0,7.101,2.542,7.101,8.155v7.782h-4.65v-1.644
			h-0.094c-0.775,1.271-2.542,2.016-4.371,2.016c-2.45,0-5.612-1.209-5.612-4.837c0-4.465,5.426-5.209,9.922-5.209v-0.248
			c0-1.52-1.21-2.232-2.791-2.232c-1.457,0-2.884,0.713-3.813,1.581L129.39,10.44z M138.723,17.044h-0.651
			c-2.232,0-4.744,0.279-4.744,2.108c0,1.179,1.179,1.581,2.201,1.581c2.047,0,3.194-1.24,3.194-3.162V17.044z"/>
	</g>
	<g clip-path="url(#SVGID_2_)">
		<path fill="#CB50A3" d="M155.772,23.772v-8.434c0-1.705-0.465-3.256-2.294-3.256c-1.799,0-2.729,1.551-2.729,3.318v8.372h-5.116
			V8.332h4.93v2.139h0.063c0.713-1.364,2.48-2.573,4.62-2.573c4.154,0,5.643,3.225,5.643,6.325v9.55H155.772z"/>
	</g>
	<g clip-path="url(#SVGID_2_)">
		<path fill="#74369E" d="M170.094,31.214c-2.697,0-5.859-0.868-7.938-2.418l2.543-3.628c1.488,1.302,3.379,1.953,5.115,1.953
			c2.977,0,4.372-1.736,4.372-4.31v-0.931h-0.093c-0.961,1.24-2.636,2.047-4.682,2.047c-4.682,0-7.38-3.659-7.38-7.938
			c0-4.279,2.698-8.093,7.349-8.093c1.922,0,3.845,0.775,4.93,2.418h0.063V8.332h4.806v13.984
			C179.179,28.361,175.582,31.214,170.094,31.214z M170.59,12.052c-2.294,0-3.627,1.767-3.627,3.907
			c0,2.046,1.333,3.938,3.627,3.938c2.326,0,3.752-1.829,3.752-3.938S172.885,12.052,170.59,12.052z"/>
	</g>
	<g clip-path="url(#SVGID_2_)">
		<path fill="#CB50A3" d="M191.888,23.772v-2.14h-0.062c-0.714,1.364-2.48,2.573-4.651,2.573c-4.155,0-5.612-3.225-5.612-6.324
			v-9.55h5.116v8.372c0,1.736,0.435,3.286,2.294,3.286c1.768,0,2.729-1.55,2.729-3.317v-8.34h5.086v15.441H191.888z"/>
	</g>
	<g clip-path="url(#SVGID_2_)">
		<path fill="#74369E" d="M198.675,10.44c1.798-1.706,4.372-2.604,6.883-2.604c5.179,0,7.101,2.542,7.101,8.155v7.782h-4.65v-1.644
			h-0.094c-0.775,1.271-2.542,2.016-4.371,2.016c-2.45,0-5.612-1.209-5.612-4.837c0-4.465,5.426-5.209,9.922-5.209v-0.248
			c0-1.52-1.21-2.232-2.791-2.232c-1.457,0-2.884,0.713-3.813,1.581L198.675,10.44z M208.008,17.044h-0.651
			c-2.232,0-4.744,0.279-4.744,2.108c0,1.179,1.179,1.581,2.201,1.581c2.047,0,3.194-1.24,3.194-3.162V17.044z"/>
	</g>
	<g clip-path="url(#SVGID_2_)">
		<path fill="#CB50A3" d="M222.205,31.214c-2.697,0-5.859-0.868-7.938-2.418l2.543-3.628c1.488,1.302,3.379,1.953,5.115,1.953
			c2.977,0,4.372-1.736,4.372-4.31v-0.931h-0.093c-0.961,1.24-2.636,2.047-4.682,2.047c-4.682,0-7.38-3.659-7.38-7.938
			c0-4.279,2.698-8.093,7.349-8.093c1.922,0,3.845,0.775,4.93,2.418h0.063V8.332h4.806v13.984
			C231.29,28.361,227.693,31.214,222.205,31.214z M222.701,12.052c-2.294,0-3.627,1.767-3.627,3.907
			c0,2.046,1.333,3.938,3.627,3.938c2.326,0,3.752-1.829,3.752-3.938S224.996,12.052,222.701,12.052z"/>
	</g>
	<g clip-path="url(#SVGID_2_)">
		<path fill="#74369E" d="M249.114,17.447h-11.193c0.155,1.705,1.86,2.915,3.689,2.915c1.612,0,2.729-0.683,3.411-1.613l3.534,2.232
			c-1.457,2.109-3.876,3.287-7.007,3.287c-4.651,0-8.496-2.945-8.496-8.154c0-5.054,3.659-8.279,8.341-8.279
			c4.558,0,7.751,3.131,7.751,8.403C249.145,16.642,249.145,17.075,249.114,17.447z M244.463,14.285
			c0-1.612-1.023-2.946-3.038-2.946c-1.954,0-3.38,1.364-3.504,2.946H244.463z"/>
	</g>
</g>
</svg>
