<?xml version="1.0" encoding="utf-8"?>
<!-- Generator: Adobe Illustrator 16.0.1, SVG Export Plug-In . SVG Version: 6.00 Build 0)  -->
<!DOCTYPE svg PUBLIC "-//W3C//DTD SVG 1.1//EN" "http://www.w3.org/Graphics/SVG/1.1/DTD/svg11.dtd">
<svg version="1.1" id="Слой_1" xmlns="http://www.w3.org/2000/svg" xmlns:xlink="http://www.w3.org/1999/xlink" x="0px" y="0px"
	 width="196.797px" height="25.858px" viewBox="0 0 196.797 25.858" enable-background="new 0 0 196.797 25.858"
	 xml:space="preserve">
<g>
	<defs>
		<rect id="SVGID_1_" width="196.797" height="25.858"/>
	</defs>
	<clipPath id="SVGID_2_">
		<use xlink:href="#SVGID_1_"  overflow="visible"/>
	</clipPath>
	<g clip-path="url(#SVGID_2_)">
		<path fill="#DA223F" d="M9.079,23.827H0.894V1.875h7.938c6.232,0,12.557,2.604,12.557,10.914
			C21.388,20.509,15.125,23.827,9.079,23.827z M8.707,6.401H6.071v12.836h2.512c3.782,0,7.286-1.55,7.286-6.449
			C15.869,7.859,12.365,6.401,8.707,6.401z"/>
	</g>
	<g clip-path="url(#SVGID_2_)">
		<path fill="#EF6D1D" d="M26.128,6.247c-1.644,0-2.915-1.271-2.915-2.791c0-1.488,1.271-2.79,2.915-2.79
			c1.612,0,2.915,1.24,2.915,2.79C29.042,5.037,27.74,6.247,26.128,6.247z M23.585,23.827V8.386h5.085v15.441H23.585z"/>
	</g>
	<g clip-path="url(#SVGID_2_)">
		<path fill="#DA223F" d="M40.048,12.944c-0.806-0.775-1.984-1.396-3.225-1.396c-0.961,0-1.922,0.341-1.922,1.24
			c0,0.868,0.837,1.116,2.821,1.55c2.356,0.527,4.93,1.706,4.93,4.713c0,3.907-3.441,5.271-6.604,5.271
			c-2.511,0-5.116-0.837-6.728-2.388l2.853-3.007c0.899,0.992,2.294,1.736,3.782,1.736c0.837,0,1.83-0.342,1.83-1.334
			c0-0.961-0.961-1.271-3.07-1.768c-2.139-0.496-4.496-1.581-4.496-4.495c0-3.69,3.473-5.178,6.418-5.178
			c2.294,0,4.682,0.744,6.201,2.17L40.048,12.944z"/>
	</g>
	<g clip-path="url(#SVGID_2_)">
		<path fill="#EF6D1D" d="M55.331,13.377c-0.558-0.744-1.674-1.24-2.697-1.24c-2.14,0-3.565,1.83-3.565,3.969
			c0,2.14,1.395,3.938,3.627,3.938c1.023,0,2.139-0.402,2.759-1.146l2.822,3.441c-1.271,1.24-3.442,1.984-5.705,1.984
			c-4.868,0-8.651-3.101-8.651-8.217c0-5.022,3.814-8.216,8.62-8.216c2.201,0,4.526,0.837,5.736,2.078L55.331,13.377z"/>
	</g>
	<g clip-path="url(#SVGID_2_)">
		<path fill="#DA223F" d="M66.801,24.323c-4.651,0-8.558-3.225-8.558-8.278c0-5.054,3.906-8.155,8.558-8.155
			c4.682,0,8.588,3.101,8.588,8.155C75.389,21.098,71.482,24.323,66.801,24.323z M66.801,12.106c-2.388,0-3.628,1.954-3.628,3.938
			s1.271,3.999,3.659,3.999s3.659-2.015,3.659-3.999S69.188,12.106,66.801,12.106z"/>
	</g>
	<g clip-path="url(#SVGID_2_)">
		<path fill="#EF6D1D" d="M86.858,23.827H81.37L75.293,8.386h5.612l3.255,10.015h0.093l3.255-10.015h5.426L86.858,23.827z"/>
	</g>
	<g clip-path="url(#SVGID_2_)">
		<path fill="#DA223F" d="M109.21,17.501H98.018c0.154,1.705,1.859,2.915,3.689,2.915c1.612,0,2.729-0.683,3.41-1.613l3.535,2.232
			c-1.457,2.109-3.876,3.287-7.008,3.287c-4.65,0-8.495-2.945-8.495-8.154c0-5.054,3.658-8.279,8.341-8.279
			c4.558,0,7.751,3.131,7.751,8.403C109.241,16.696,109.241,17.129,109.21,17.501z M104.56,14.338c0-1.612-1.023-2.945-3.039-2.945
			c-1.953,0-3.38,1.364-3.503,2.945H104.56z"/>
	</g>
	<g clip-path="url(#SVGID_2_)">
		<path fill="#EF6D1D" d="M121.113,12.541c-0.465-0.124-0.898-0.155-1.302-0.155c-2.729,0-3.628,2.232-3.628,3.504v7.938h-5.085
			V8.386h4.899v2.232h0.062c0.775-1.55,2.294-2.667,4.186-2.667c0.403,0,0.837,0.031,1.085,0.124L121.113,12.541z"/>
	</g>
	<g clip-path="url(#SVGID_2_)">
		<path fill="#DA223F" d="M139.838,4.138c-0.372-0.124-0.899-0.217-1.396-0.217c-1.86,0-2.264,1.488-2.264,2.915v1.55h3.442V12.2
			h-3.442v11.627h-5.085V12.2h-2.821V8.386h2.821V6.897c0-3.783,1.488-7.1,6.636-7.1c0.868,0,1.767,0.093,2.449,0.31L139.838,4.138z
			"/>
	</g>
	<g clip-path="url(#SVGID_2_)">
		<path fill="#EF6D1D" d="M142.284,10.494c1.798-1.706,4.372-2.604,6.883-2.604c5.179,0,7.101,2.542,7.101,8.155v7.782h-4.65v-1.644
			h-0.094c-0.775,1.271-2.542,2.016-4.371,2.016c-2.45,0-5.612-1.209-5.612-4.837c0-4.465,5.426-5.209,9.922-5.209v-0.248
			c0-1.52-1.21-2.232-2.791-2.232c-1.457,0-2.884,0.713-3.813,1.581L142.284,10.494z M151.617,17.098h-0.651
			c-2.232,0-4.744,0.279-4.744,2.108c0,1.179,1.179,1.581,2.201,1.581c2.047,0,3.194-1.24,3.194-3.162V17.098z"/>
	</g>
	<g clip-path="url(#SVGID_2_)">
		<path fill="#DA223F" d="M169.163,13.377c-0.558-0.744-1.674-1.24-2.697-1.24c-2.14,0-3.565,1.83-3.565,3.969
			c0,2.14,1.395,3.938,3.627,3.938c1.023,0,2.14-0.402,2.76-1.146l2.822,3.441c-1.271,1.24-3.442,1.984-5.705,1.984
			c-4.868,0-8.651-3.101-8.651-8.217c0-5.022,3.813-8.216,8.62-8.216c2.201,0,4.526,0.837,5.736,2.078L169.163,13.377z"/>
	</g>
	<g clip-path="url(#SVGID_2_)">
		<path fill="#EF6D1D" d="M178.369,12.2v5.891c0,1.427,0.466,2.171,1.923,2.171c0.496,0,1.116-0.093,1.488-0.248l0.062,3.721
			c-0.682,0.248-1.859,0.465-2.945,0.465c-4.123,0-5.488-2.201-5.488-5.488V12.2h-2.48V8.386h2.45V4.324h4.991v4.062h3.628V12.2
			H178.369z"/>
	</g>
	<g clip-path="url(#SVGID_2_)">
		<path fill="#DA223F" d="M193.933,12.944c-0.807-0.775-1.984-1.396-3.225-1.396c-0.962,0-1.923,0.341-1.923,1.24
			c0,0.868,0.838,1.116,2.822,1.55c2.355,0.527,4.93,1.706,4.93,4.713c0,3.907-3.441,5.271-6.604,5.271
			c-2.512,0-5.116-0.837-6.729-2.388l2.853-3.007c0.899,0.992,2.295,1.736,3.783,1.736c0.837,0,1.829-0.342,1.829-1.334
			c0-0.961-0.961-1.271-3.069-1.768c-2.14-0.496-4.496-1.581-4.496-4.495c0-3.69,3.473-5.178,6.418-5.178
			c2.295,0,4.682,0.744,6.201,2.17L193.933,12.944z"/>
	</g>
</g>
</svg>
