<?xml version="1.0" encoding="utf-8"?>
<!-- Generator: Adobe Illustrator 20.0.0, SVG Export Plug-In . SVG Version: 6.00 Build 0)  -->
<svg version="1.1" id="Layer_1" xmlns="http://www.w3.org/2000/svg" xmlns:xlink="http://www.w3.org/1999/xlink" x="0px" y="0px"
	 viewBox="0 0 72.4 57" style="enable-background:new 0 0 72.4 57;" xml:space="preserve">
<style type="text/css">
	.st0{fill:#5A9005;}
	.st1{fill:#B5C926;}
	.st2{fill:#74369E;}
	.st3{fill:#CB50A3;}
	.st4{fill:#DA2240;}
	.st5{fill:#EF6D1D;}
	.st6{fill:#DA2228;}
	.st7{fill:#FFFFFF;}
	.st8{fill:none;stroke:#5A9005;stroke-width:3;stroke-linecap:round;stroke-miterlimit:10;}
	.st9{fill:none;stroke:#74369E;stroke-width:3;stroke-linecap:round;stroke-miterlimit:10;}
	.st10{fill:none;stroke:#74369E;stroke-width:3;stroke-miterlimit:10;stroke-dasharray:0.9406,1.8812;}
	.st11{fill:#ED9200;}
</style>
<path class="st1" d="M59.7,9.7c-2.3-1.2-5.2,0.3-5.9-3.2c-1.7,1.3-4.9-1.9-6.9-2.9c-1.8-0.9-0.8-2.7-3.5-1.2c-2.3,1.3-0.3,2.5-1.5,4
	c-0.9,1-5.3,1.1-5.3,2.9c0.3,0.3,0.7,0.4,1.2,0.2c-1-0.3-4.2,0.8-5.8,0.5c-0.7-0.2-1.3-1.4-2.8-1.7c0.3,0.1,1.9,4.8,1.9,5.3
	c0,0.1-4.8,0.3-5.2,0.3c-0.6,0-1.5-0.8-2.7-0.8c-0.6,0-5.6,1-4.7,2c0.2,0.3,1.5-0.6,1.7,0c0.1,0.3-1.1,0.1-1.1,0.3
	c0.1,0.6,1,0.1,1,0.5c-0.1,0.6-1,0.4-1.3,0.5c2.2-0.6,9,5.1,10.6,4c-1.7,1.1-1.4,0.9,0.3,3.5c0.7,1.1,1.6,0.4,2.2,1.7
	c0.3,0.7-0.4,1.6-0.4,1.6c0.4,2.1,0.4,3.9,0.1,5.8c-0.2,1.3-1.9,4-1.7,4.9c0.1,0.5,1.1,0.4,1.1,1.1c0.3,1.8,6,1.7,7.6,1.9
	c3,0.4,5.6,2.2,9.4,1.4c-4.6-7.4,8.4-3,9.6-3c1.7,0,6.7-1.9,6.9-4.1c-0.1,1.2-3.8-5-3.8-5c2.3-0.5,1.6-3.7,0.9-4.5
	c-2-2.3-0.5-1-3.3-0.3c0.5-0.1,3.8-6.3,3.8-6.3c0.3-0.3,1.4,0.4,2-0.7c0.9-1.7,1-4.5,2.3-6.3C63.8,11.4,62.2,11,59.7,9.7
	C59.6,9.7,60,9.8,59.7,9.7z"/>
<g>
	<path class="st0" d="M68.6,49.2c-0.1,0-0.3,0-0.4,0c-0.7-0.1-1.3-0.5-1.7-1L61.3,41l-1.8,2.9c-0.5,0.8-1.3,1.2-2.2,1.2
		c-0.1,0-0.3,0-0.4,0c-1-0.2-1.9-0.9-2.1-1.9l-5.2-20.7c-0.3-1,0.1-2.1,1-2.7c0.4-0.3,1-0.5,1.5-0.5c0.5,0,1,0.1,1.4,0.4l18.3,11.3
		c0.9,0.5,1.4,1.6,1.2,2.6c-0.2,1-0.9,1.9-1.9,2.1l-3.3,0.8l5.1,7.1c0.8,1.2,0.6,2.8-0.6,3.6l-2.2,1.6C69.7,49,69.1,49.2,68.6,49.2z
		"/>
	<path class="st7" d="M52.1,20.1c0.3,0,0.6,0.1,0.8,0.2l18.3,11.3c0.5,0.3,0.8,1,0.7,1.6c-0.1,0.6-0.6,1.1-1.2,1.3l-4.7,1.2l6,8.3
		c0.5,0.7,0.4,1.7-0.4,2.2l-2.2,1.6c-0.3,0.2-0.6,0.3-0.9,0.3c-0.1,0-0.2,0-0.3,0c-0.4-0.1-0.8-0.3-1-0.6l-6-8.3l-2.6,4.1
		c-0.3,0.5-0.8,0.8-1.4,0.8c-0.1,0-0.2,0-0.2,0c-0.6-0.1-1.1-0.6-1.3-1.2l-5.2-20.7c-0.2-0.6,0.1-1.3,0.6-1.7
		C51.5,20.2,51.8,20.1,52.1,20.1 M52.1,18.1c-0.8,0-1.5,0.2-2.1,0.7c-1.2,0.9-1.7,2.4-1.4,3.8l5.2,20.7c0.4,1.4,1.5,2.5,2.9,2.7
		c0.2,0,0.4,0,0.6,0c1.2,0,2.4-0.6,3-1.7l1-1.6l4.3,5.9c0.6,0.8,1.4,1.3,2.3,1.4c0.2,0,0.4,0,0.6,0c0.8,0,1.5-0.2,2.1-0.7l2.2-1.6
		c1.6-1.2,2-3.4,0.8-5L69.4,37l1.9-0.5c1.4-0.4,2.4-1.5,2.7-2.9c0.2-1.4-0.4-2.8-1.7-3.6L54,18.7C53.5,18.3,52.8,18.1,52.1,18.1
		L52.1,18.1z"/>
</g>
<g>
	<polygon class="st7" points="29.3,25.8 36.9,33.3 29.3,40.9 	"/>
	<g>
		<rect x="0" y="26" class="st7" width="29.5" height="31.1"/>
		<path class="st0" d="M27.5,28V55H2V28H27.5 M29.5,26H0V57h29.5V26L29.5,26z"/>
	</g>
	<rect x="1" y="26.9" class="st0" width="27.6" height="7.4"/>
	<polygon class="st0" points="29.5,28.4 34.4,33.3 29.5,38.3 	"/>
	<line class="st8" x1="5.1" y1="38.3" x2="24.3" y2="38.3"/>
	<line class="st8" x1="5.1" y1="44.2" x2="24.3" y2="44.2"/>
	<line class="st8" x1="5.1" y1="50.1" x2="24.3" y2="50.1"/>
</g>
</svg>
