<?xml version="1.0" encoding="utf-8"?>
<!-- Generator: Adobe Illustrator 20.0.0, SVG Export Plug-In . SVG Version: 6.00 Build 0)  -->
<svg version="1.1" id="Layer_1" xmlns="http://www.w3.org/2000/svg" xmlns:xlink="http://www.w3.org/1999/xlink" x="0px" y="0px"
	 viewBox="0 0 72.4 57" style="enable-background:new 0 0 72.4 57;" xml:space="preserve">
<style type="text/css">
	.st0{fill:#5A9005;}
	.st1{fill:#B5C926;}
	.st2{fill:#74369E;}
	.st3{fill:#CB50A3;}
	.st4{fill:#DA2240;}
	.st5{fill:#EF6D1D;}
	.st6{fill:#DA2228;}
	.st7{fill:#FFFFFF;}
	.st8{fill:none;stroke:#5A9005;stroke-width:3;stroke-linecap:round;stroke-miterlimit:10;}
	.st9{fill:none;stroke:#74369E;stroke-width:3;stroke-linecap:round;stroke-miterlimit:10;}
	.st10{fill:none;stroke:#74369E;stroke-width:3;stroke-miterlimit:10;stroke-dasharray:0.9406,1.8812;}
	.st11{fill:#ED9200;}
</style>
<g>
	<path class="st2" d="M66.1,40.9c-0.1,0-0.3,0-0.4,0c-0.7-0.1-1.3-0.5-1.7-1l-5.1-7.1L57,35.6c-0.5,0.8-1.3,1.2-2.2,1.2
		c-0.1,0-0.3,0-0.4,0c-1-0.2-1.9-0.9-2.1-1.9l-5.2-20.7c-0.3-1,0.1-2.1,1-2.7c0.4-0.3,1-0.5,1.5-0.5c0.5,0,1,0.1,1.4,0.4l18.3,11.3
		c0.9,0.5,1.4,1.6,1.2,2.6c-0.2,1-0.9,1.9-1.9,2.1l-3.3,0.8l5.1,7.1c0.4,0.6,0.6,1.2,0.5,1.9c-0.1,0.7-0.5,1.3-1,1.7l-2.2,1.6
		C67.1,40.8,66.6,40.9,66.1,40.9z"/>
	<path class="st7" d="M49.6,11.9c0.3,0,0.6,0.1,0.8,0.2l18.3,11.3c0.5,0.3,0.8,1,0.7,1.6c-0.1,0.6-0.6,1.1-1.2,1.3l-4.7,1.2l6,8.3
		c0.5,0.7,0.4,1.7-0.4,2.2L67,39.6c-0.3,0.2-0.6,0.3-0.9,0.3c-0.1,0-0.2,0-0.3,0c-0.4-0.1-0.8-0.3-1-0.6l-6-8.3l-2.6,4.1
		c-0.3,0.5-0.8,0.8-1.4,0.8c-0.1,0-0.2,0-0.2,0c-0.6-0.1-1.1-0.6-1.3-1.2l-5.2-20.7c-0.2-0.6,0.1-1.3,0.6-1.7
		C48.9,12,49.3,11.9,49.6,11.9 M49.6,9.9c-0.8,0-1.5,0.2-2.1,0.7c-1.2,0.9-1.7,2.4-1.4,3.8l5.2,20.7c0.4,1.4,1.5,2.5,2.9,2.7
		c0.2,0,0.4,0,0.6,0c1.2,0,2.4-0.6,3-1.7l1-1.6l4.3,5.9c0.6,0.8,1.4,1.3,2.3,1.4c0.2,0,0.4,0,0.6,0c0.8,0,1.5-0.2,2.1-0.7l2.2-1.6
		c1.6-1.2,2-3.4,0.8-5l-4.3-5.9l1.9-0.5c1.4-0.4,2.4-1.5,2.7-2.9c0.2-1.4-0.4-2.8-1.7-3.6L51.5,10.4C50.9,10.1,50.3,9.9,49.6,9.9
		L49.6,9.9z"/>
</g>
<g>
	<polygon class="st7" points="40.3,4.7 47.8,12.3 40.3,19.8 	"/>
	<g>
		<rect x="11" y="4.9" class="st7" width="29.5" height="18.1"/>
		<path class="st3" d="M38.4,6.9V21H13V6.9H38.4 M40.4,4.9H11V23h29.5V4.9L40.4,4.9z"/>
	</g>
	<rect x="11.9" y="5.9" class="st3" width="27.6" height="7.4"/>
	<polygon class="st3" points="40.3,7.3 45.2,12.3 40.3,17.2 	"/>
	<line class="st9" x1="16" y1="17.2" x2="35.2" y2="17.2"/>
</g>
<g>
	<path class="st3" d="M8.4,29.2c0.1,0,0.1,0,0.2-0.1C8.7,29,8.6,29,8.7,28.9c0-0.1,0.2-0.2,0.2-0.2v0.1V29L9,29.2v0.1v0.1
		c0,0,0.1,0,0.2,0s0.3,0,0.3,0s0,0.1,0,0.2s-0.2,0-0.2,0s-0.1,0-0.2,0.1s0,0,0,0.1s0,0,0,0.1s0.3,0.1,0.3,0.1l0.2,0.1l0.1,0h0.4
		l0.3,0l0.1-0.2l0.3,0c0,0,0.2,0.1,0.3,0.2c0.1,0,0.3,0,0.3,0h0.2c0.1,0,0.1-0.2-0.2-0.2c-0.3,0,0-0.1,0-0.2c0-0.1-0.1-0.1-0.1-0.1
		l-0.2-0.2v-0.1v-0.1L11,29.3l-0.2-0.2l0-0.2c0,0,0-0.1,0-0.2c0-0.1,0-0.1,0-0.2c0-0.1,0-0.2,0-0.2h-0.1l-0.2,0.1l-0.1,0.1v0.1
		l0,0.1c0,0,0,0.1,0,0.2c0,0-0.1-0.1-0.1-0.1c0-0.1-0.4-0.3-0.4-0.3l-0.2-0.1l-0.1-0.2H9.3c0,0-0.1-0.1-0.2-0.2c0-0.1,0-0.1,0-0.1
		s-0.3,0-0.4-0.2c-0.2-0.1-0.2,0-0.2,0H8.3c0,0-0.1,0-0.1,0.1c0,0.1,0,0.1,0,0.1l0,0.1l0.1,0.2l-0.1,0.2l-0.1,0.4l0.1,0.3
		C8.2,29.1,8.3,29.1,8.4,29.2z"/>
	<path class="st3" d="M13.7,31.8c0,0,0.1-0.1,0.1,0s0.1,0.1,0.1,0.1s0.2,0.1,0.2,0S14,31.7,14,31.7l-0.2-0.1l-0.1,0c0,0-0.1,0-0.1,0
		c0,0-0.1,0-0.1,0s-0.3,0.1-0.2,0.3c0.1,0.2,0.1,0.4,0.2,0.3c0,0,0-0.1,0.1-0.2C13.7,31.8,13.7,31.8,13.7,31.8z"/>
	<path class="st3" d="M15.5,31.9L15.5,31.9c0.1,0,0.2,0.1,0.2,0.1c0,0,0.1,0.1,0.1,0.1s0,0,0.1,0c0.1,0,0.2,0,0.2,0s0,0,0-0.1
		c0-0.1,0-0.2,0-0.2s0-0.1-0.1-0.1c0,0-0.1-0.1-0.1-0.1s0-0.1,0-0.1c0,0-0.1-0.1-0.1-0.2s-0.1-0.1-0.1-0.2c0,0-0.1,0-0.1,0
		S15.4,31,15.3,31c-0.1,0-0.2,0-0.2,0S15,31.1,15,31.2c0,0.1-0.1,0.2-0.1,0.2l-0.2,0c0,0-0.2-0.1-0.3,0.1c-0.1,0.1-0.1,0.2,0,0.2
		c0,0,0.1,0,0.1,0l0.2,0c0.1-0.1,0.2-0.1,0.2-0.1l0.2,0.1l0.1,0.1l0.1,0.1c0,0,0.1,0.2,0.3,0.3c0.2,0.1,0.2,0,0.2,0l0-0.1
		c0,0,0,0-0.2-0.1c-0.2-0.1,0,0-0.1-0.1C15.5,32,15.5,32,15.5,31.9C15.5,31.9,15.5,31.9,15.5,31.9z"/>
	<path class="st3" d="M14.2,28.9c-0.3,0-0.3,0-0.3,0v-0.1v-0.1c0,0,0,0,0-0.1s0-0.2,0-0.2l-0.2-0.1c0,0-0.2,0-0.2,0c0,0-0.1,0-0.1,0
		s0,0,0,0.1c0,0,0,0.1,0,0.1s-0.2,0.3-0.2,0.1c0-0.3,0.2-0.3,0-0.3s-0.4,0.1-0.5,0.3c0,0.2-0.1,0.7,0.1,0.8c0.1,0.2,0.2,0.2,0.2,0.2
		s-0.1,0,0.1,0.1c0.2,0.1,0.3,0.1,0.4,0.1c0.1,0,0.3,0,0.3,0l0.3-0.1c0,0,0-0.1,0.3,0.2c0.2,0.3,0.5,0.5,0.5,0.6
		c0,0,0.1,0.2,0.1,0.2s0,0.1,0.1,0.1c0,0,0.1,0.1,0.1,0.1s0,0,0.1,0.1s0.2,0.1,0.2,0.1l0.2,0.1c0,0,0,0,0.2,0c0.1,0,0.2,0,0.2,0
		s0,0.2,0,0.2v0.1c0,0,0,0.2,0.1,0.1c0,0,0-0.1,0.2-0.2c0.2-0.1,0.2-0.1,0.2-0.3c-0.1-0.1-0.5-0.3-0.6-0.4c-0.1-0.1-0.1,0-0.2-0.2
		c-0.1-0.2-0.2-0.3-0.2-0.3l-0.2-0.2c0,0,0-0.2,0.1-0.3s0-0.1,0-0.1s0,0-0.2,0.1c-0.1,0.1-0.2,0-0.2,0l0-0.1l-0.2-0.2l-0.1-0.1
		L14.6,29v-0.2c0,0-0.1,0-0.1,0c0,0-0.1,0-0.1,0S14.5,28.9,14.2,28.9z"/>
	<path class="st3" d="M11.8,28.1l-0.1,0l-0.1,0l-0.1,0l-0.1,0.1l-0.1,0.1l-0.1,0.1v0.2v0.2l0.1,0.1c0,0,0.1,0.1,0.2,0.2
		c0.2,0.1,0.3-0.2,0.3-0.2c0,0,0-0.1,0-0.1l-0.1-0.2c0-0.1,0-0.3,0-0.3L11.8,28.1z"/>
	<path class="st3" d="M11.9,26.6v0.1l0.1,0c0,0,0.1,0,0.1,0.1c0,0,0.2,0.1,0.2,0.1l0.1,0.1v0.2c0,0,0,0.2,0,0.2c0,0,0.1,0.1,0.1,0.1
		c0,0,0.1,0.1,0.1,0.1s0.1,0.1,0.1,0.1c0,0,0.3,0.1,0.3,0.1h0.2c0,0,0.1,0,0.5,0c0.5,0,0.3-0.4,0.3-0.5c0-0.2-0.4-0.2-0.4-0.2
		l-0.3,0.1l-0.1,0.1l-0.2-0.1l-0.1-0.1c0,0,0-0.1-0.1-0.2c0-0.1,0,0,0,0v0l-0.1-0.1l-0.3-0.1l-0.1-0.1c0,0-0.1,0-0.1-0.1
		c-0.1,0,0,0-0.1,0C12,26.4,12.1,26.4,11.9,26.6C11.8,26.5,11.9,26.6,11.9,26.6z"/>
	<path class="st3" d="M11.1,27.1l0.2,0.1l0.1,0.1l0,0.2c0.1,0.1,0.2,0,0.2,0s0.1,0,0.2-0.1c0,0,0.1-0.1,0.1-0.1v-0.2
		c0,0,0,0-0.1-0.1c0,0,0-0.1,0-0.1c0-0.1,0-0.1,0-0.1c0,0,0-0.1,0-0.1s-0.1-0.1-0.1-0.1h-0.1l-0.1,0l-0.2,0.1h-0.1l-0.2,0L11,27
		c0,0,0,0,0.1,0.1C11,27,11.1,27.1,11.1,27.1z"/>
	<path class="st3" d="M12.1,27.3c0,0.1-0.1,0.2-0.2,0.2v0.1l0.1,0.1h0.1h0.1l0.1-0.1v-0.3l-0.1-0.1l0-0.1
		C12.2,27.1,12.1,27.1,12.1,27.3z"/>
	<path class="st3" d="M8.6,27l0.4-0.1h0h0.1c0,0,0.1,0.1,0.2,0.1c0,0,0,0.1,0,0.1l0,0.1c0,0,0,0.1,0,0.1c0,0,0.1,0.1,0.1,0.1
		s0.1,0,0.1,0c0,0,0.1,0.1,0.1,0.1v0c0,0,0,0.1,0,0.1s0.1,0,0.1,0s0.2,0,0.2,0c0,0,0.2-0.1,0.2-0.1l0-0.1l0.1,0c0,0,0.1,0,0.2,0
		c0.1,0,0.2,0,0.2,0l0.1-0.2c0.1-0.1,0-0.2,0-0.2s0,0-0.1-0.1c-0.1-0.1-0.1,0-0.1,0c0,0-0.1,0-0.1-0.2c0-0.2,0,0,0-0.1
		c0-0.1,0-0.1-0.1-0.2c0-0.1-0.1-0.1-0.1-0.1s-0.1,0-0.1,0.1s0,0.2,0,0.2l0,0.1l0,0.1c0,0,0.1,0.1,0.1,0.2c0,0-0.1,0.1-0.1,0.1
		l-0.2,0c0,0-0.1,0-0.1-0.1c0,0,0-0.1-0.1-0.2c0-0.1-0.1-0.1-0.1-0.1l-0.1,0c0,0-0.1,0-0.2,0s-0.1,0-0.1,0l-0.1,0c0,0,0,0-0.1-0.1
		c0,0,0-0.1,0-0.1s0,0,0.1-0.3c0.1-0.2,0,0,0,0v0l0-0.1H9.2c0,0-0.2,0.1-0.3,0.1s-0.1,0.1-0.1,0.1s0,0.1-0.2,0.2
		c-0.2,0.1-0.2,0.3-0.2,0.3L8.6,27z"/>
	<path class="st3" d="M13.3,26.7L13.3,26.7l0.2-0.1c0,0,0.1,0,0.2,0c0,0,0.2,0,0.2,0.1c0.1,0,0-0.1,0.1,0.1c0.1,0.1,0.2,0.1,0.2,0.1
		s0.1,0,0.1-0.1c0.1-0.1,0-0.2,0-0.2l-0.2-0.2L14,26.2l-0.3-0.1c-0.1,0-0.2,0-0.2,0c0,0,0,0,0,0l-0.2,0l0-0.2l-0.2-0.1h0V26v0.1
		c0,0,0.1,0.1,0,0.2c0,0.1-0.1,0.1-0.1,0.1s-0.1,0.1-0.1,0.1c0,0,0,0.1,0,0.1s0,0,0,0.1C12.9,26.7,13.1,26.9,13.3,26.7z"/>
	<path class="st3" d="M23.3,34.8c0.3-0.1,0.2-0.2,0.2-0.2l0-0.2l0-0.1l0.2,0c0,0,0.2,0.1,0.1,0.2c-0.1,0.1-0.1,0.2-0.1,0.2
		s0,0.4,0.2,0.3h0.3h0.1v-0.1l0.2-0.1v-0.1v-0.1c0,0-0.1-0.1-0.1-0.2c0-0.1-0.1-0.3-0.1-0.3l-0.2-0.3v-0.1v-0.1v-0.1v-0.1l0-0.1
		l0.1-0.1l0.1-0.2c0,0,0-0.1-0.3,0.2c-0.2,0.3-0.4,0.3-0.4,0.3c0,0.1-0.1,0.2,0.1,0.3c0.1,0.1,0.1,0.2-0.1,0.3
		c-0.2,0-0.3,0.3-0.3,0.4C22.9,34.6,22.9,34.8,23.3,34.8z"/>
	<path class="st3" d="M21.7,31.1c-0.1,0-0.1,0.1-0.1,0.1s-0.1,0-0.1-0.1c0-0.1-0.1-0.1-0.1-0.1l-0.2,0l-0.1,0.2l0.1,0.1l0.1,0.1
		l0,0.2c0,0,0,0.1,0.2,0.2c0.2,0.2,0.9-0.3,0.9-0.3C22.5,30.8,21.8,31.1,21.7,31.1z"/>
	<path class="st3" d="M43.9,45.7l-0.1-0.1l0-0.1c0,0-0.1-0.1-0.2-0.1c-0.1,0,0-0.1,0-0.1s0-0.1-0.1-0.1c0,0-0.1-0.1-0.1-0.1
		l-0.1-0.1l0,0c0,0-0.1-0.1-0.2-0.1c0,0-0.1-0.3-0.1-0.3l-0.1-0.1l-0.2-0.3l-0.1-0.3l-0.1,0.2v0.1v0.3l-0.1,0.2l-0.1-0.1
		c0,0,0-0.1-0.2-0.1c-0.2,0-0.3-0.1-0.2-0.2c0.1-0.1,0-0.1,0-0.1s0-0.1,0-0.2c0-0.1-0.1-0.1-0.2-0.1s-0.2,0-0.2,0h-0.2h-0.1l0,0.2
		l-0.1,0.1l-0.1,0l-0.1-0.1h-0.1l-0.2,0.2l-0.3,0.3l-0.1,0.1L40,45.1c0,0,0,0-0.6,0.1c-0.6,0.1-0.5,0.6-0.5,0.6V46l0.1,0.2l0.1,0.4
		l0.1,0.2c0,0.2-0.2,0.3,0,0.5c0.1,0.2,0.2-0.1,0.5-0.1c0.3,0,0.1,0.1,0.8-0.2s1.1,0,1.1,0l0.2,0.3l0.1,0l0.2,0.1c0,0,0.1,0,0.2,0.1
		c0,0,0,0,0,0.1c0,0,0,0.1,0,0.1s0,0.1,0,0.1c0,0,0.2,0.2,0.2,0.2s0.1,0,0.1,0c0,0,0.2,0,0.2,0h0.2H43c0,0,0.1,0,0.2,0s0.1,0,0.1,0
		c0.1,0,0.1,0,0.2,0c0,0,0.1-0.1,0.1-0.1l0.1-0.1l0-0.3c0,0,0,0,0.3-0.4c0.3-0.4,0.1-1.1,0.1-1.1L43.9,45.7z"/>
	<path class="st3" d="M43.2,48.2H43c-0.2,0-0.1,0.3-0.1,0.3c0,0.2,0.4,0.2,0.5,0C43.5,48.4,43.2,48.2,43.2,48.2z"/>
	<path class="st3" d="M47.1,47.6c-0.1,0-0.2-0.1-0.2-0.1l-0.1-0.1l-0.1,0h-0.2l0,0.1c0,0,0.1,0.2,0.2,0.2c0,0,0.1,0.1,0.1,0.1
		c0,0.1,0,0.1,0,0.1s0,0-0.1,0.1s-0.1,0.2-0.1,0.2l-0.1,0.1l-0.2,0.2l-0.1,0.1v0.1l-0.1,0l-0.1,0l-0.1,0L45.8,49c0,0,0,0.1,0,0.1
		c0,0,0,0.1,0,0.1l0.1,0.1c0,0,0,0,0.1,0c0.1,0,0.1,0,0.2,0c0.1,0,0.1,0,0.2-0.1c0.1,0,0.1-0.1,0.1-0.1s0.1,0,0.1-0.1c0,0,0,0,0-0.1
		s0-0.1,0-0.1l0.1-0.1l0.1-0.1l0.1-0.2l0.1,0l0.2-0.1c0,0,0.1,0,0.1-0.1c0-0.1,0.1-0.2,0.1-0.2l0.1-0.2v-0.2
		C47.2,47.7,47.1,47.6,47.1,47.6z"/>
	<path class="st3" d="M19.6,43.2l-0.1-0.1L19.3,43c0,0-0.1,0-0.2,0s-0.1,0-0.1,0l-0.3,0l-0.2-0.2l-0.3-0.2h-0.1h-0.1L18,42.8
		c0,0-0.5,0.1-0.4-0.2c0-0.3,0.2-0.3,0.2-0.3s0.1-0.2-0.1-0.3c-0.2-0.2-0.3-0.2-0.3-0.2H17l-0.2-0.1l-0.2-0.1l0-0.1l-0.3-0.1h-0.1
		l-0.1-0.2c0,0-0.1,0-0.2,0c0,0-0.2,0-0.2,0l-0.2,0L15.4,41L15.3,41h0h-0.1l-0.2,0.1l-0.2,0l-0.1,0.1l-0.2,0.2l-0.1,0.1v0
		c-0.1,0-0.3,0-0.3,0h-0.2c0,0-0.2,0-0.2-0.1c0,0-0.2-0.1-0.2-0.2c0,0,0-0.1,0-0.1c0,0,0.1-0.1,0.1-0.1c0.1-0.2-0.2-0.4-0.3-0.4
		c-0.1,0-0.3,0-0.3,0s0,0-0.1-0.1c0,0,0-0.1,0.1-0.3c0.1-0.2,0.1-0.4,0-0.4c-0.1,0-0.3,0.1-0.3,0.1l0,0.1L12.6,40
		c0,0-0.1,0.1-0.2,0.2c-0.1,0.1-0.3,0-0.3,0h-0.3V40l-0.1-0.1l-0.2-0.2l-0.1-0.2l0.1-0.2v0c0.1,0,0.2,0.1,0.2,0.1s-0.2-0.4,0.5-0.6
		l0.3,0l0.5,0.1c0,0-0.1-0.1,0-0.2c0,0,0.5-0.1,0.6,0l0.2-0.1c0,0,0.2,0.1,0.2,0.1c0,0,0,0.2,0,0.2s0.3,0.4,0.3,0.4
		c0.1,0,0.2-0.2,0-0.5c0,0-0.4-0.4-0.1-0.8c0,0,0.4-0.5,0.5-0.5c0,0,0.1-0.1,0-0.2l0-0.1l-0.1-0.2l0-0.1c0,0,0-0.1,0.1-0.1
		c0,0,0.1-0.1,0.1-0.4l0.1-0.1c0,0,0,0,0.1-0.1l0.4-0.1l0.3-0.2c0,0,0.2,0.3,0.3,0.2c0.1-0.1,0.3-0.3,0.3-0.3l-0.1-0.2v-0.2l0.1-0.1
		h-0.2l-0.2,0.1l-0.1,0l-0.2,0c0,0,0.4-0.4,0.4-0.4c0.1,0,0.5,0.1,0.5,0.1l0.3-0.1l0.2-0.2h0.2l0.1-0.1c0,0,0.2-0.2-0.3-0.5
		l-0.4-0.2l-0.1-0.2l-0.1-0.3l-0.1-0.3l0-0.2l-0.2-0.3c0,0-0.1,0-0.1,0.4s-0.6,0.2-0.6,0c0-0.2,0.1-0.4,0.1-0.4s0-0.2-0.2-0.3
		c-0.2,0-0.3-0.2-0.3-0.2L15,32.3c0,0,0-0.1,0-0.1s-0.2,0.1-0.2,0.1l-0.3-0.1c0,0-0.1,0.2-0.1,0.3c0,0.1,0.1,0.4,0.1,0.4l0,0.1
		l-0.1,0.1v0.1l0.3,0.3c0,0,0,0.4-0.3,0.5c-0.3,0.1-0.2,0.2-0.1,0.3c0.1,0.1,0.1,0.4,0,0.4c-0.1,0-0.3,0.2-0.4-0.1
		c-0.1-0.4,0.1-0.6-0.2-0.6C13.3,34,13.2,34,13.2,34c0,0-0.3-0.2-0.3-0.2l-0.3,0l-0.2,0l-0.1-0.2c0,0-0.3-0.1-0.3-0.4
		c0-0.2,0.1-0.5,0.2-0.7c0.1-0.1,0.2-0.3,0.2-0.3l0.1-0.3l0.2-0.1l0.2-0.1l0.1-0.3l0-0.2l0.1-0.2h0.1l0.2-0.2l0.3,0.2l0.1-0.2v-0.4
		c0,0-0.2,0-0.1-0.2c0.1-0.1,0.4-0.2,0-0.3c-0.3-0.1-0.5-0.1-0.5,0.1c0,0.2-0.1,0.4-0.1,0.4l-0.2,0.2c0,0-0.1,0-0.1-0.2
		s-0.1-0.4-0.1-0.4l-0.1-0.1l-0.2-0.1l-0.2-0.2c0,0,0-0.5-0.1-0.5c-0.1-0.1-0.1-0.2-0.1-0.2l0.1-0.3c0,0,0.1,0.1,0.1,0
		s0.2-0.4,0.2-0.4s0.2,0,0-0.1c-0.2-0.1-0.5-0.1-0.5-0.1S12,28.1,12,28.4c0,0.2,0,0.3,0,0.3l0,0.2c0,0,0.1,0,0,0.2s-0.1,0.3-0.1,0.4
		c0,0.1,0.1,0.3,0.1,0.3s0.1,0,0.1,0.1c0,0.2,0.3,0.3,0,0.6c0,0,0.1,0.4-0.3,0.1c0,0-0.1-0.1-0.5,0S11,30.5,11,30.5l-0.2-0.1h-0.2
		l-0.1,0l-0.1,0.1c0,0,0,0,0.1,0.1c0.1,0.2,0.1,0.5-0.2,0c-0.4-0.4-0.3-0.2-0.5-0.1c-0.2,0.1-0.4,0-0.3-0.1c0-0.1,0.1-0.1,0.1-0.1
		l0-0.2l0-0.1l-0.4,0c0,0-0.2,0-0.3-0.1s-0.3-0.1-0.3-0.1l-0.2-0.1c0,0,0,0-0.1,0c-0.1,0-0.2,0-0.2,0L8,29.9c0,0-0.1,0-0.1,0
		c0,0-0.1-0.1-0.1-0.1s0,0,0,0s-0.3,0-0.5,0.3c-0.2,0.2-0.2,0.2-0.4,0.2c-0.2,0-0.4,0-0.4,0L6.1,30l-0.2,0l-0.7-0.3l-0.8-0.2H3.9
		H3.6c0,0,0,0-0.1,0.1c-0.2,0.1-0.2,0.1-0.3,0.2c0,0.1,0.1,0.1,0,0.2C3,30.1,3.1,30.1,3,30.1c-0.1,0-0.1,0-0.1,0s-0.1,0-0.1,0.1
		c0,0.1,0,0.1,0.1,0.2s0.3,0.1,0.3,0.1l0.1,0.2c0,0,0.1,0.1,0.1,0.1c0,0-0.2,0.2-0.2,0.2L3.1,31c0,0-0.1,0-0.1,0s-0.1,0-0.2,0
		c-0.1,0-0.1,0-0.1,0.1c0,0.1,0,0,0,0.1c0,0.1-0.1,0,0,0.1c0,0.1,0.1,0.2,0.1,0.2c0,0,0,0,0.1,0c0.1,0,0.3,0,0.3,0c0,0,0.1,0,0.2,0
		c0.1,0,0.2,0,0.2,0l0,0.3c-0.1,0-0.2,0.1-0.3,0.1c-0.1,0-0.1-0.1-0.1,0S3,32,3,32.1s0,0.1,0,0.2c0,0.1,0,0.1,0,0.1
		c0,0.1,0,0.1,0.1,0.2c0.1,0.1,0,0.1,0.1,0.1c0.1,0,0.1,0,0.2,0.1c0,0.1-0.1,0.1,0,0.1c0.1,0,0.5,0.1,0.5,0.1s0.1-0.1,0.1,0
		c0,0.1,0.1,0.1,0.1,0.1s-0.3,0.5-0.3,0.5c0,0-0.4,0.1-0.4,0.2C3.2,33.9,3.1,34,3,34C3,34,3,34.1,3,34.1s0,0.1,0,0.1h0
		c0,0,0.2,0,0.2,0c0,0,0,0,0.2-0.1C3.6,34,3.7,34.1,3.7,34c0,0-0.1,0,0,0c0.1,0,0.1-0.1,0.2-0.1c0.1-0.1,0.2-0.1,0.2-0.2
		c0.1-0.1,0.2-0.2,0.2-0.2s0,0.1,0.1,0.1c0.1,0,0.1,0,0.2,0c0.1,0,0.2,0,0.2-0.1s-0.1-0.4-0.1-0.4l0.1-0.1c0,0,0,0,0.1-0.1
		C4.9,33,5.1,33,5.1,33l0.3-0.1c0,0,0.2-0.1,0.3,0C5.7,32.9,6,33,6,33s0.4,0.1,0.5,0.2c0,0.1,0.1,0.1,0.2,0.1s0.1,0,0.2,0
		C7,33.4,7,33.5,7,33.5l0.1,0.1l0.1,0.2L7.3,34c0,0,0.1-0.1,0.1,0c0.1,0.1,0.1,0.4,0.1,0.4l0,0.3c0,0,0.1,0,0.1,0
		c0,0,0.1,0.1,0.1,0.1l0.1,0.1l0.2,0.3l0.2,0.2l0.2,0.3h0c0,0.1-0.1,0.2-0.1,0.2c0,0,0,0.4-0.1,0.4l0.2,1.1c0,0,0.4,0.2,0.4,0.5
		l0.1,0l0,0l0,0.1c0,0,0,0.3,0,0.3l0.1,0.2l0.1,0.3L9.4,39l0.2,0.1c0,0,0.1,0.2,0.1,0.3c0.1,0.1,0.2,0.1,0.2,0.1
		c0.1,0,0-0.1-0.1-0.3c-0.1-0.2,0,0-0.1-0.1c0-0.1-0.2-0.2-0.2-0.2l-0.2-0.2l-0.1-0.1c0,0,0-0.1,0-0.1c0,0,0.1,0,0.1,0
		s0.1,0.1,0.1,0.1c0,0,0.2,0.2,0.2,0.2s0.1,0.1,0.2,0.2c0.1,0.1,0.3,0.4,0.4,0.4c0.1,0.1,0,0,0.1,0.4c0,0.4,1,0.7,1,0.7s0.1,0,0.2,0
		c0,0,0.3,0,0.3,0l0.2,0l0.1,0.1l0.1,0.1l0.2,0.1c0,0,0.2,0,0.4,0.1c0.2,0,0.1,0.2,0.2,0.2c0,0,0.1,0.2,0.1,0.2l0.3,0.2l0.4,0.1
		l0.3,0c0,0,0.2,0,0.2,0c0,0,0,0,0,0c0,0,0,0,0,0c0,0.1,0.1,0.1,0,0.2s-0.1,0.2-0.1,0.2l-0.1,0.1l-0.1,0.1l-0.1,0.1l-0.1,0.1v0.1
		l0.1,0.2l0,0.1c0,0-0.1,0.2-0.1,0.2c0,0,0,0.2,0,0.2s0,0,0.1,0.1c0.1,0.1,0.2,0.2,0.2,0.2l0.4,0.8l0.1,0l0.2,0.1l0.2,0.1l0.2,0.2
		l0.1,0.1c0,0,0.1,0.5,0,0.7c0,0-0.2,1.7-0.3,2.1c-0.2,0.4,0,0.7,0,0.7l-0.1,0.4c0,0,0,0.2,0,0.3s0,0.2,0,0.2l-0.1,0.1l0.2,1
		l0.4,0.3l0.1,0.3c0,0,0.4,0.1,0.4,0c0-0.1-0.3-0.3-0.3-0.3l-0.2-0.2l0-0.3l0.2-0.4l0.2-0.2l-0.2-0.4l0.1-0.1l0.2-0.3l0.1-0.3
		l0.2-0.2l0.1-0.2l0.5-0.1l0.2-0.1v-0.2v-0.2l0.3-0.1l0.3-0.4l0.2-0.2l0.1-0.1l0.1,0l0.1-0.2v-0.2l0.1-0.1l0.4-0.2h0.3l0.2-0.2
		l0.1-0.1l0.2-0.4v-0.4v-0.3l0.1-0.1l0.1-0.1l0.2-0.2l0.2-0.2c0,0,0-0.1,0-0.1c0,0,0-0.2,0-0.2L19.6,43.2L19.6,43.2z M12.4,35.7
		L12.4,35.7L12.4,35.7C12.4,35.7,12.4,35.7,12.4,35.7z"/>
	<path class="st3" d="M48.5,30.7c-0.3,0-0.2-0.1-0.2-0.1l-0.6-0.5l-0.3-0.3c0,0-0.6-0.1-0.6-0.1c0,0-0.3,0-0.3,0l0,0.2
		c0,0,0,0-0.1,0c0,0-0.2-0.1-0.2-0.1c0,0-0.2-0.1-0.2-0.1h-0.4c0,0,0,0-0.1,0c-0.1,0-0.2,0-0.2,0L45,29.7l0.1-0.2v-0.1h0l-0.4-0.1
		h-0.2h-0.1H44l-0.2-0.1c0,0-0.1,0-0.1-0.1c0-0.1-0.1-0.2-0.1-0.2l-0.1-0.1h-0.2c0,0,0,0.1-0.1,0.1c-0.1,0-0.3-0.2-0.3-0.2l-0.1-0.1
		h-0.1h-0.1l-0.1,0.2l-0.1,0.1L42.4,29l-0.2,0.1l-0.2,0L41.5,29l-0.1,0l-0.2,0.2l-0.1-0.1c0,0,0-0.2,0-0.2c0,0,0-0.1,0-0.1
		c0,0,0-0.1,0-0.2c0-0.1,0.1-0.1,0-0.2c-0.1-0.1-0.3-0.2-0.3-0.2s0,0-0.1-0.1s-0.2,0-0.2,0h-0.1l-0.1,0.1l0,0.1l0,0.1
		c0,0-0.1,0-0.2,0c-0.1,0-0.2-0.1-0.2-0.1l-0.1-0.1c0,0,0-0.1-0.1-0.1c-0.1,0-0.2,0-0.2,0s-0.1,0-0.1,0c-0.1,0-0.2,0-0.2,0
		c0,0-0.1-0.1-0.1-0.1s-0.1,0-0.1,0c-0.1,0-0.2,0-0.2,0l-0.1,0.1l-0.2,0l-0.1,0.1l-0.1,0l0.1-0.1l0.1-0.1l0.1-0.1l0.2-0.1l0.1-0.1
		l0.1-0.1l0.1-0.1c0,0,0.4-0.5-0.2-0.8s-0.4-0.1-0.4-0.1l-0.4,0v-0.2l-0.1-0.2c0,0-0.1,0-0.1,0c0,0-0.2,0-0.2,0c0,0-0.1,0-0.1,0
		s0,0-0.1,0.2c-0.1,0.1-0.1,0.1-0.1,0.2c0,0.1,0,0-0.1,0.1c-0.1,0.1-0.2,0.1-0.2,0.1l-0.1,0.1c0,0-0.2,0-0.3,0
		c-0.1,0-0.3,0.1-0.3,0.1L36,27.1c0,0-0.1,0.1-0.2,0.1s0,0,0,0l-0.2,0.1l-0.4,0.2l0,0.1l0.1,0.1l0.1,0.1l0,0.1l-0.2,0L35,28h-0.1
		l-0.2,0.2l-0.2,0.2l-0.1,0.1l-0.2,0.2l-0.2,0h-0.1h-0.1l-0.1-0.3l-0.1-0.1l-0.1-0.1h-0.1l-0.1,0.1l-0.1,0.2L33,28.8l0,0.2l0,0.1
		v0.2v0.3c0,0,0,0,0,0.1c0,0.1,0.1,0.2,0.1,0.2l0.1,0.5l-0.4-0.4l-0.3-0.2l-0.5-0.1h-0.1l0.2,0.3l0,0.1c0,0-0.1,0.2-0.1,0.2
		s-0.1,0-0.1,0l-0.1,0c0,0,0,0-0.1,0c-0.1,0-0.3,0-0.3,0s-0.1,0-0.1,0c-0.1,0-0.1,0.1-0.1,0.1l-0.2,0.1l-0.2,0.1c0,0,0,0-0.1,0.1
		c-0.1,0-0.1,0-0.1,0.1s0,0.1-0.1,0.1c-0.1,0-0.1,0-0.1,0l-0.1,0l-0.2,0l-0.1,0.1l-0.1,0.1L29.6,31l-0.1,0.2l-0.1,0.1l0,0.1L29,31.6
		l-0.2,0c0,0-0.1-0.1-0.1-0.2c0-0.1-0.1-0.2-0.1-0.2l0-0.1l0-0.2l-0.1-0.1l0.3,0.1l0.2,0l0.3,0l0.1-0.1l0-0.1v-0.2l-0.2-0.2
		l-0.2-0.2L28.9,30l-0.2,0h-0.2l-0.1-0.1l-0.1-0.1c0,0-0.2-0.2-0.2-0.2c0,0-0.1,0.1-0.1,0.1c0,0,0-0.1,0-0.1c-0.1-0.8-1.3,0-1.3,0
		l-0.7,0.7L26,31.1l-0.3,0.4L25,32.2l-0.1,0.1l-0.1,0.3l0,0.6l0.1,0.1h0.3c0-0.1,0.2-0.3,0.2-0.3l0.1-0.1l0.1,0.2l0.1,0.1l0,0.3v0.3
		c0,0,0,0.1,0.1,0.1c0.1,0,0.5-0.4,0.5-0.4l-0.1-0.1c0,0,0-0.2,0.1-0.3c0.1-0.1,0.1-0.3,0.1-0.3c0,0-0.1-0.2-0.1-0.2
		c0-0.1,0.1-0.4,0.1-0.4s0.2-0.2,0.3-0.2c0.1,0,0.1-0.1,0.1-0.1s0-0.4,0.2-0.5c0.2-0.1,0.3,0.1,0.3,0.1l0,0.2l-0.1,0.2
		c0,0-0.2,0.1-0.3,0.4c-0.1,0.3,0,0.6,0,0.6s0,0.1,0,0.1c0,0,0.1,0,0.1,0c0.1,0,0.2,0,0.2,0s0.1,0,0.1,0c0,0,0.1-0.1,0.1-0.1
		s0,0,0.2,0c0,0,0,0,0,0l0.1,0.1c-0.1,0.2-0.1,0.4-0.1,0.5c0-0.1-0.1-0.2-0.1-0.2h-0.4l-0.2,0.1l0.1,0.1l0.1,0.1v0.2
		c-0.6-0.3-0.5,0.2-0.5,0.2l0,0.4l-0.4,0l-0.3,0.1l-0.2,0l-0.2-0.1l0-0.1l-0.1-0.1l-0.2,0v-0.1l-0.1-0.2c0,0-0.1,0.1-0.2,0.1
		c0,0-0.1,0.1-0.1,0.1v0.1l0,0.2l0.1,0.2h-0.2l-0.2,0l-0.1,0.1l-0.1,0.2l0,0.1l-0.1,0.1l-0.1,0.1l-0.3,0.2c0,0,0.1,0.3-0.3,0.2
		c-0.4-0.1-0.4,0.1-0.3,0.1c0.1,0,0.4,0.2,0.4,0.5c0,0.2,0.1,0.6-0.2,0.4c-0.3-0.2-0.7,0-0.8,0c-0.1,0,0,0.1-0.1,0.6
		c-0.1,0.5,0.6,0.5,0.6,0.5h0.1c0,0,0,0,0.2,0c0.2,0,0.1-0.1,0.1-0.1s0.1-0.1,0.2-0.2c0.1-0.1,0,0,0,0l0,0c0,0,0-0.2,0-0.3
		c0,0,0.1-0.1,0.1-0.1s0,0,0.1,0c0.1,0,0.1-0.1,0.1-0.1s0,0,0,0c0,0,0.1-0.1,0.1-0.1l0-0.1c0,0,0-0.1,0-0.1c0,0,0.1,0,0.1,0
		s0,0.2,0.3,0c0.3-0.2,0.3,0,0.3,0l-0.2,0.2v0.1v0.2c0,0,0,0,0,0.1s0.1,0.1,0.1,0.1l0.1,0c0,0,0,0,0,0c0,0,0.1-0.1,0.1-0.1
		s0-0.1-0.1-0.1c0,0,0-0.1,0-0.1v-0.1l0.1-0.1l0.1,0l0.2,0l0.1,0.1c0,0,0.1,0,0.1,0.1c0.1,0,0.2,0.2,0.2,0.2l0,0.1L26,37.3l-0.2,0.1
		l0.1,0.1l0.1,0.2l0.1-0.1l0.1-0.1l0.1-0.1l0.1-0.1l0.2-0.3l-0.1-0.2l-0.3-0.1c0,0-0.1,0-0.2-0.3C25.7,36,26,36,26,36l0.1,0.1
		l0.2,0.2l0.1,0.1l0.2,0.1l0.1,0.1v0.1v0.2l0.1,0.1v0.1V37l0.1,0.1v0.1h0.1H27l0.1-0.1c0,0,0-0.2,0-0.3c0-0.1,0.1-0.1,0.1-0.1h0.2
		l0.2-0.1l0.1-0.1c0,0-0.1-0.3,0.1-0.4c0.2-0.1,0.2-0.1,0.2-0.1c0-0.4,0.3-0.4,0.3-0.2c0,0.2,0.1,0.2,0.1,0.2
		c0.3,0.1,0.2-0.1,0.2-0.1l0.1-0.2l0.1-0.1c0,0,0.1,0,0.2,0c0,0,0,0,0,0c0,0.1-0.1,0.2-0.2,0.3c-0.2,0.2,0.5,0.5,0.5,0.5
		s0.1,0.5-0.6,0.2c-0.7-0.2-1.6,0.1-1.1,0.6c0,0,0.2,0.2,0.8,0.1c0.6-0.1,0.2,0.4,0.1,0.8c0,0,0,0,0,0c0,0,0,0,0,0s-0.5,0-0.9-0.1
		c-0.4-0.1-0.8-0.3-0.8-0.1c0,0.2-0.3,0.2-0.3,0.2L26.1,38c0,0-0.7,0-0.5-0.2s0-0.5,0-0.5c-0.3,0-1.3,0.2-1.3,0.2l-0.7,0.1
		c-0.7,0.2-0.5,0.8-0.8,0.9c-0.2,0.1-1.1,0.9-1,1.1c0.1,0.2,0.1,0.8,0.1,1c0,0.2,0,0.2,0.6,0.9c0.6,0.7,1.5,0.1,2.1,0.2
		c0.5,0,1,0.4,0.8,0.7c-0.1,0.3,0,0.4,0,0.4c0.8,0.7,0.4,1.3,0.3,1.6c-0.1,0.2-0.1,0.4-0.1,0.4l0.3,0.6l0.1,0.5c0,0,0.4,0.8,0.4,0.9
		c0,0.1,0,0.4,0.1,0.4c0.1,0,0.7-0.1,0.7-0.1c1-0.3,1.2-1.3,1.2-1.3c0.1,0,0.4-0.1,0.3-0.4c-0.1-0.2,0-0.6,0.2-0.7
		c0.2,0,0.7-0.4,0.4-1c-0.3-0.6,0-1.1,0-1.1c1.5-1.1,1.4-1.8,1.4-1.8c0-0.1-0.5,0-0.5,0c-0.2,0-0.5-0.1-0.5-0.1l0,0
		c0.4-0.1,1.3-0.4,1.8-1c0.5-0.7,0.4-0.5-0.2-0.6c-0.6-0.2-0.5,0-0.7,0c-0.2,0-0.5-0.5-0.5-0.6c0-0.2-0.2-0.5,0.9,0.2
		c0,0,0.3,0.3,0.8,0.3c0.5,0,0.8,0,0.8,0l0.4,0.3c0,0,0,0.4,0.4,0.3v0.1l0.2,0.5c0,0,0.2,1.1,0.6,1l0.2-0.2l0.1,0.4
		c0,0,0.2,0.2,0.2-0.1c0-0.3-0.3-0.3-0.2-0.6c0.1-0.3-0.1-0.3,0.4-0.7c0.5-0.4,1-0.9,1.2-0.5s0.5,0.6,0.5,0.6l0.3,0.1l0.1,0.3
		c0,0,0,0.9,0.2,1c0.1,0.1,0.1,0.4,0.1,0.4l-0.2-0.1l-0.4-0.3c0,0-0.3-0.7-0.3-0.9c0-0.3-0.5,0.9,1,2.1c0,0,1,0.7,1.3,0.7
		s0.8,0.1,0.8,0.1l0.5,0.2l0.5-0.1l0.5-0.2l0.3-0.1l-1.3,0.1l-1.1-0.2l-0.9-0.3L37.8,43h0.3l-0.5-0.7l-0.4-0.7c0,0-0.1-0.6,0.1-0.6
		c0.2,0,0.5,0.4,0.5,0.4l0.1,0.2c0,0,0.7,0,0.5-0.8L38,40.3l-0.1-0.2c0,0,0.1-0.3,0.4-0.3l0,0.2c0,0,0.1,0.2,0.3,0l0.1-0.2l0.2-0.2
		l0.4-0.1l0.5-0.3l0.2-0.6v-0.5c0,0-0.2-0.4-0.1-0.5c0.1-0.1,0.4-0.1,0-0.3c0,0,0,0,0,0c-0.4-0.1-0.2-0.1-0.2-0.1v-0.2l0.4-0.2
		l0.4,0l0.1,0.2l-0.1,0.2l0.2,0.1c0,0,0.1,0.4,0,0.4c-0.1,0,0.4,0.1,0.5-0.3l-0.1-0.1l-0.1-0.2l-0.1-0.1l0-0.1l0.2-0.1l0.2-0.3
		l0.4-0.1c0,0,0.9-0.7,1-1.7v-0.3l-0.3-0.2L42,33.9l0-0.1l0.1-0.2l0.6-0.6l0.5,0h0.5l0.3,0.1l0.2,0l0.1-0.4c0,0,0.4-0.5,0.6-0.1
		c0,0,0,0.1,0.2,0l0.2-0.1v0.2l-0.2,0.1l-0.3,0.4l-0.4,0.4l-0.1,0.3l0,0.8l-0.1,0.7l0.6-0.8l0.4-0.4l0.1-0.2c0,0,0.1-0.3,0.1-0.3
		c0-0.1,0-0.3,0-0.3l0.1-0.3l0.3-0.2l0.3,0l0.2,0l0.5-0.3l0.3-0.2l0.3-0.1l0.1-0.2l-0.1-0.3l0.1-0.3l0.1,0l0.2-0.2
		c0,0,0.2,0,0.2,0.1c0,0,0,0.1,0.1,0.1c0.1,0.1,0.3,0.2,0.3,0.2l0.1,0v-0.2l0.1-0.1l0.2-0.1C48.9,31.2,48.8,30.7,48.5,30.7z"/>
	<path class="st3" d="M31.1,29.3h0.2l0.2-0.1L31.4,29l0.1-0.4l0.1-0.3c0,0,0.2-0.3,0.2-0.3c0,0,0.2-0.5,0.2-0.5l0.3-0.3l0.2-0.1
		l0.4-0.2c0.4-0.4-0.1-0.4-0.1-0.4l-0.3,0.2l-0.2,0.1l-0.4,0.1L31.8,27l-0.3,0.3l-0.1,0.4l-0.2,0.4l-0.2,0.5v0.3l0.1,0.2L31.1,29.3z
		"/>
	<path class="st3" d="M42.4,37.1c0,0.1-0.1,0.1-0.1,0.1l-0.2,0.1l-0.3,0.2l-0.2,0.1l-0.3,0.1L41.1,38L41,38.1v0l0.2,0.4l0.1-0.2
		l0.1-0.1c0,0,0-0.1,0.1-0.1c0.1,0,0.2-0.1,0.2-0.1s0-0.1,0.3-0.2c0.3-0.1,0.3-0.1,0.3-0.1l0.1-0.1l0.1-0.2c0,0,0-0.1,0-0.2
		c0-0.1,0.1-0.2,0.1-0.2v-0.3v-0.1c0,0,0.4-0.2,0.4-0.3s0.4-0.3,0.4-0.3c0,0,0,0,0,0S43,36,43,36c0,0,0,0,0,0s-0.1,0-0.1,0
		c0-0.1,0,0,0-0.2c0-0.2,0-0.3,0-0.3l0-0.7l0,0.1l-0.1,0.5c0,0,0,0.1,0,0.2c0,0.1,0,0.1,0,0.2s0.1,0.1,0,0.2
		c-0.1,0.1-0.1,0.1-0.1,0.2c0,0.1-0.1,0.1-0.1,0.1c0,0,0,0.1,0,0.1s0,0.1-0.1,0.2c0,0.1,0,0.3,0,0.3V37C42.4,37,42.4,37.1,42.4,37.1
		z"/>
	<path class="st3" d="M39.3,41.8c0,0-0.1,0.1-0.1,0.1s-0.4,0.3-0.4,0.4c-0.1,0-0.2,0.1-0.2,0.1l-0.1,0.2v0.2l0.1,0.2l0.3,0h0.3
		c0,0,0,0,0.1-0.1c0-0.1,0-0.1,0-0.1c0,0,0.1-0.1,0.1-0.1c0,0,0.1-0.2,0.1-0.2l0.1-0.6v-0.1l-0.1,0h0C39.5,41.7,39.4,41.8,39.3,41.8
		z"/>
	<path class="st3" d="M40.1,40.2L40.1,40.2h-0.1l-0.1,0v0.3l0,0.3l0.1,0.1l0.2,0.3l0,0.2l0,0.2l0.3,0c0,0,0,0,0.1-0.1s0-0.2,0-0.2
		v-0.1v-0.2l-0.2-0.2h0l-0.2-0.2c0,0-0.1,0-0.1-0.1c0-0.1,0-0.1,0-0.1l0-0.1L40.1,40.2L40.1,40.2L40.1,40.2z"/>
	<path class="st3" d="M40.8,43c0,0,0.2,0,0.3,0c0.1-0.1,0.2-0.1,0.2-0.1s0.1-0.1,0.2,0c0.1,0.1,0.3,0.1,0.3,0.1c0,0,0.2,0.1,0.2,0.1
		l0.4,0.4l0.2,0.2h0.2l0.1-0.2c0,0,0.1,0,0.2,0.1c0,0,0.2,0.2,0.2,0.2c0,0,0.2,0,0.2,0h0.3l0.2-0.1c0,0-0.2-0.1-0.3-0.1
		c-0.1,0-0.2-0.1-0.2-0.1c0,0,0-0.2,0-0.2s0-0.1,0-0.1c0,0,0.2,0,0.2,0l0.2,0l0.1-0.1l0.1,0L44,42.9l-0.1,0.1l-0.3,0.1l-0.3,0.1
		l-0.1,0c0,0-0.1-0.1-0.2-0.1c-0.1,0-0.2-0.1-0.2-0.1l-0.4-0.1l-0.1,0H42l-0.4-0.1l-0.4,0h-0.1l-0.2,0.1
		C40.9,42.8,40.7,42.9,40.8,43z"/>
	<path class="st3" d="M30.6,44.3c0,0.1-0.4,0.4-0.4,0.4c-0.3,0.1-0.2,0.2-0.2,0.2c0.1,0.1,0.2-0.1,0,0.3c-0.1,0.4-0.2,0.7,0.1,0.8
		c0.4,0,0.3-0.3,0.5-1c0.2-0.6,0-0.8,0-0.8C30.6,44.1,30.6,44.2,30.6,44.3z"/>
</g>
<g>
	<circle class="st10" cx="28.4" cy="33.9" r="3.6"/>
</g>
</svg>
