<?xml version="1.0" encoding="utf-8"?>
<!-- Generator: Adobe Illustrator 20.0.0, SVG Export Plug-In . SVG Version: 6.00 Build 0)  -->
<svg version="1.1" id="Layer_1" xmlns="http://www.w3.org/2000/svg" xmlns:xlink="http://www.w3.org/1999/xlink" x="0px" y="0px"
	 viewBox="0 0 74.7 61.5" style="enable-background:new 0 0 74.7 61.5;" xml:space="preserve">
<style type="text/css">
	.st0{fill:#5A9005;}
	.st1{fill:#B5C926;}
	.st2{fill:#74369E;}
	.st3{fill:#CB50A3;}
	.st4{fill:#DA2240;}
	.st5{fill:#EF6D1D;}
	.st6{fill:#DA2228;}
	.st7{fill:#FFFFFF;}
	.st8{fill:none;stroke:#5A9005;stroke-width:3;stroke-linecap:round;stroke-miterlimit:10;}
	.st9{fill:none;stroke:#74369E;stroke-width:3;stroke-linecap:round;stroke-miterlimit:10;}
	.st10{fill:none;stroke:#74369E;stroke-width:3;stroke-miterlimit:10;stroke-dasharray:0.9406,1.8812;}
	.st11{fill:#ED9200;}
</style>
<g>
	<path class="st6" d="M35.9,20.3l0.2,1.1l1,0.3l0.1,2.1c0,0,0,0.9,1.2,1.3v-0.6l1.7-1.8l-0.7-2.2L35.9,20.3z"/>
	<polygon class="st6" points="40.4,23.3 40.3,23.7 40.7,24 41.6,23.7 41.2,23.1 	"/>
	<polygon class="st6" points="30.8,35.3 31.4,35.6 32.2,35.6 32.3,35.3 31.1,34.9 	"/>
	<path class="st6" d="M30.2,33.9c-0.1-0.1-1.1-0.5-1.1-0.6c0,0.1,0,0.2,0.1,0.3l0.4,0.7c0.4,0.2,0.7,0.4,1.1,0.5
		C30.7,34.4,30.5,34.1,30.2,33.9z"/>
	<polygon class="st6" points="43.5,25.3 43.5,25.9 43.7,26.3 44,26.1 43.7,25.5 	"/>
	<path class="st6" d="M38.2,15.9c-9.4,0-17,7.6-17,17c0,9.4,7.6,17,17,17c9.4,0,17-7.6,17-17C55.2,23.6,47.6,15.9,38.2,15.9z
		 M50.9,27.8c-0.8,0.4-0.7,0.6-0.5,1.4c-0.9-0.1-1.4-0.1-2-0.8c-0.5,0.4-1,0.7-1.6,1c-1.1,0.6-1,1.9-1.4,2.9c-0.4,1-0.4,2.1-0.2,3.1
		c0.2,1.4,0.2,1.9,1.5,2.7c0.9,0.6,2-0.8,2.8-1.2c0.5-0.2,0.8-0.2,1.3-0.2c0.3,1.3,0.4,2.1,0.1,3.4c0,0.2-0.2,0.6-0.3,1
		c-0.6,0.9-1.2,1.7-1.9,2.4c-2.7,2.7-6.4,4.3-10.5,4.3c-4.1,0-7.8-1.7-10.5-4.3c-2.7-2.7-4.3-6.4-4.3-10.5c0-3,0.9-5.7,2.4-8.1
		l-0.8,4.4l0.4,3.7l1,1.1c0,0,0.6,1.5,0.9,1.7c0.3,0.1,0.9,0.9,0.9,0.9s0.4,0.7,0.6,0.8c0.2,0.2,0.5,0.3,0.5,0.3l0.4-0.1
		c0,0,0.1,0.8,0.1,0.8c0-0.1-0.9,0.4-0.9,0.6c-0.1,0.5,0.8,1.9,1.1,2.3c0.5,0.6,1.1,1,1.6,1.5c0.6,0.6,0.8,1.6,1.2,2.4
		c0.6,1.2,1.2,1.7,2.6,1c0.7-0.3,1.1-0.9,1.7-1.4c0.5-0.4,1-0.4,1.7-0.5c1.7-0.3,0.8-2.3,2.1-3.1c-1.4-0.6-2.7-1.3-4.2-1.5
		c0.1-0.2,0.2-0.4,0.3-0.6c-1-0.4-1.9-0.9-2.9-1.3c-0.8-0.3-1.9-0.8-2.7-0.8c-0.9,0-1.2,0.3-2.1-0.2c0,0-0.4,0.1-0.5,0.1
		c0,0-0.1-1.1-0.1-1.2c-0.1-0.7-0.2-0.7-0.8-1.1c0.2-0.4,0.3-0.9,0.5-1.3c-0.6-0.3-0.9,0-1.4,0.3c-0.1-0.9-0.6-2.9,1.1-2.8
		c0.5,0,1.1,0.5,1.6,0.8c0,0.5,0,0.9-0.1,1.4c0.2,0.1,0.5,0.1,0.7,0.2c0-0.5-0.1-1.4,0.1-1.8c0.2-0.3,0.9-0.6,1.3-0.7
		c0-0.4-0.1-0.6,0.2-0.9c0.3-0.3,3.3-1.5,3.5-1.2c-0.3-0.4-0.8-0.7-0.9-1.2c0.5,0,1-0.1,1.4,0c-0.1,0.2-0.2,0.4-0.3,0.6
		c0.3,0.2,0.7,0.3,1,0.4c0-0.3-1.2-3.5-1.2-3.6c-0.2,0.1-0.5,0.1-0.7,0.2c0-0.2,0-0.4,0.1-0.6c-0.2-0.1-0.4-0.3-0.7-0.4
		c-0.5,0.8-1.3,1.6-1.4,2.5c-0.1,0-0.3,0-0.4-0.1c0-0.3,0.2-0.8,0.1-1c-0.1-0.3-0.5-0.6-0.6-0.9c-0.1-0.7,0.7-1.1,1.2-1.4
		c-0.1,0.1,1.4,0.3,1.4,0.3l0.7,0.9c0.3-0.3,0.7-0.6,1-0.8c-0.2-0.6-0.9-1.7-0.5-2.2c-0.3-0.3-0.9-1-1.3-1.1
		c-0.5-0.2-1.2,0.2-1.8,0.1c0.2-0.4,0.5-0.8,0.7-1.3c1.5-0.5,3.1-0.8,4.8-0.8c0.6,0,1.2,0,1.9,0.1c0.3,0.1,0.6,0.1,0.7,0.1
		c0.3,0.1,1,0.6,1,0.6l1.1,0.5l0.8,0.3l0.3,0.8l-0.8,0.1L43,21.6l0.5,0.3l0.5,1.7l0.5,0.4c0,0,0.4-0.5,0.4-0.5
		c0,0.2,0.1,0.5,0.2,0.7c1.2-0.7-0.4-1.8-0.9-2.4c0.5-0.2,0.8,0.3,1.1,0.7c0.1-0.3,0-0.7,0.5-0.8c0,0.9,0.1,1,0.5,1.7
		c0.3,0.7,0,0.5-0.4,0.8c-0.3,0.3-0.3,0-0.3,0.5c0,0.9,0,1.3-0.6,2.1c0.3,0.1,0.5,0.1,0.8,0.2c0,0.2,0.1,0.5,0.1,0.7
		c-0.3,0.2-0.5,0.3-0.8,0.5c0.4,0.4,0.4,1,0.5,1.6c0,0.2,0.9-0.5,0.9-0.6l0.6-0.5l-0.3-0.5c0.4-0.8,1.7-1.8,1.8-0.2
		c0.1,0,0.3,0.1,0.5,0.1c-0.1-1-0.9-1.2-1.7-1.7c0.8,0,2.7,1.2,2-0.3c0.2,0.5,1.1,0.3,1.5,0.5C51.1,26.7,51.4,27.6,50.9,27.8z"/>
	<polygon class="st6" points="44.9,25.5 44.3,25.2 43.8,24.7 43.3,24.3 43.4,25 44,25.5 44.2,26 44.4,26.4 44.8,25.8 	"/>
</g>
<g>
	<path class="st11" d="M28.7,27.1c-2.3-0.2-4.3-0.8-6-1.8c-0.3-0.2-0.6-0.4-0.8-0.5c-1.4,0.4-2.8,0.5-4.3,0.5
		c-7.8,0-14.1-5.2-14.1-11.5S9.7,2.3,17.5,2.3s14.1,5.2,14.1,11.5c0,2.9-1.3,5.7-3.7,7.8c0.2,0.5,0.4,1,0.7,1.4
		c0.6,0.9,1.2,1.5,1.2,1.5l0,0c0.5,0.5,0.6,1.2,0.4,1.7c-0.2,0.6-0.8,0.9-1.4,0.9L28.7,27.1z"/>
	<path class="st7" d="M17.5,3.3c7.3,0,13.1,4.7,13.1,10.5c0,2.9-1.5,5.5-3.9,7.4c0.2,0.9,0.6,1.7,1,2.3c0.6,1,1.3,1.6,1.3,1.7
		c0,0,0,0,0,0c0.2,0.2,0.2,0.4,0.1,0.6c-0.1,0.2-0.3,0.3-0.5,0.3c0,0,0,0,0,0c-2.3-0.2-4.2-0.8-5.6-1.7c-0.4-0.2-0.8-0.5-1.1-0.8
		c-1.4,0.4-2.9,0.6-4.5,0.6c-7.3,0-13.1-4.7-13.1-10.5C4.4,8,10.3,3.3,17.5,3.3 M17.5,1.3C9.2,1.3,2.4,6.9,2.4,13.8
		c0,6.9,6.8,12.5,15.1,12.5c1.4,0,2.8-0.2,4.1-0.5c0.2,0.1,0.3,0.2,0.5,0.3c1.8,1.1,4,1.8,6.5,2l0.1,0l0.1,0c1,0,1.9-0.6,2.3-1.5
		c0.4-1,0.2-2.2-0.6-2.9c0,0,0,0,0,0c0,0-0.5-0.5-1-1.3c-0.1-0.2-0.3-0.4-0.4-0.7c2.3-2.2,3.5-5.1,3.5-8C32.7,6.9,25.9,1.3,17.5,1.3
		L17.5,1.3z"/>
</g>
<g>
	<path class="st5" d="M66.2,58.9c-0.1,0-0.3,0-0.4,0c-0.7-0.1-1.3-0.5-1.7-1L59,50.7l-1.8,2.9c-0.5,0.8-1.3,1.2-2.2,1.2
		c-0.1,0-0.3,0-0.4,0c-1-0.2-1.9-0.9-2.1-1.9l-5.2-20.7c-0.3-1,0.1-2.1,1-2.7c0.4-0.3,1-0.5,1.5-0.5c0.5,0,1,0.1,1.4,0.4l18.3,11.3
		c0.9,0.5,1.4,1.6,1.2,2.6c-0.2,1-0.9,1.9-1.9,2.1l-3.3,0.8l5.1,7.1c0.8,1.2,0.6,2.8-0.6,3.6l-2.2,1.6
		C67.3,58.7,66.8,58.9,66.2,58.9z"/>
	<path class="st7" d="M49.8,29.9c0.3,0,0.6,0.1,0.8,0.2l18.3,11.3c0.5,0.3,0.8,1,0.7,1.6c-0.1,0.6-0.6,1.1-1.2,1.3l-4.7,1.2l6,8.3
		c0.5,0.7,0.4,1.7-0.4,2.2l-2.2,1.6c-0.3,0.2-0.6,0.3-0.9,0.3c-0.1,0-0.2,0-0.3,0c-0.4-0.1-0.8-0.3-1-0.6l-6-8.3l-2.6,4.1
		c-0.3,0.5-0.8,0.8-1.4,0.8c-0.1,0-0.2,0-0.2,0c-0.6-0.1-1.1-0.6-1.3-1.2l-5.2-20.7c-0.2-0.6,0.1-1.3,0.6-1.7
		C49.1,30,49.4,29.9,49.8,29.9 M49.8,27.9c-0.8,0-1.5,0.2-2.1,0.7c-1.2,0.9-1.7,2.4-1.4,3.8l5.2,20.7c0.4,1.4,1.5,2.5,2.9,2.7
		c0.2,0,0.4,0,0.6,0c1.2,0,2.4-0.6,3-1.7l1-1.6l4.3,5.9c0.6,0.8,1.4,1.3,2.3,1.4c0.2,0,0.4,0,0.6,0c0.8,0,1.5-0.2,2.1-0.7l2.2-1.6
		c1.6-1.2,2-3.4,0.8-5l-4.3-5.9l1.9-0.5c1.4-0.4,2.4-1.5,2.7-2.9c0.2-1.4-0.4-2.8-1.7-3.6L51.7,28.4C51.1,28.1,50.4,27.9,49.8,27.9
		L49.8,27.9z"/>
</g>
</svg>
