<?xml version="1.0" encoding="utf-8"?>
<!-- Generator: Adobe Illustrator 20.0.0, SVG Export Plug-In . SVG Version: 6.00 Build 0)  -->
<svg version="1.1" id="Layer_1" xmlns="http://www.w3.org/2000/svg" xmlns:xlink="http://www.w3.org/1999/xlink" x="0px" y="0px"
	 viewBox="0 0 251.7 30.8" style="enable-background:new 0 0 251.7 30.8;" xml:space="preserve">
<style type="text/css">
	.st0{fill:#5A9005;}
	.st1{fill:#B5C926;}
	.st2{fill:#74369E;}
	.st3{fill:#CB50A3;}
	.st4{fill:#DA2240;}
	.st5{fill:#EF6D1D;}
	.st6{fill:#DA2228;}
	.st7{fill:#FFFFFF;}
	.st8{fill:none;stroke:#5A9005;stroke-width:3;stroke-linecap:round;stroke-miterlimit:10;}
	.st9{fill:none;stroke:#74369E;stroke-width:3;stroke-linecap:round;stroke-miterlimit:10;}
	.st10{fill:none;stroke:#74369E;stroke-width:3;stroke-miterlimit:10;stroke-dasharray:0.9406,1.8812;}
	.st11{fill:#ED9200;}
</style>
<g>
	<path class="st0" d="M16.6,7.1c-0.5-0.6-1.1-1-1.8-1.3c-0.7-0.3-1.5-0.5-2.4-0.5c-0.9,0-1.8,0.2-2.5,0.5c-0.8,0.4-1.4,0.8-2,1.5
		c-0.6,0.6-1,1.4-1.3,2.2c-0.3,0.9-0.5,1.8-0.5,2.8c0,1,0.2,2,0.5,2.8c0.3,0.9,0.8,1.6,1.3,2.2s1.2,1.1,2,1.5
		c0.8,0.4,1.6,0.5,2.4,0.5c1,0,1.9-0.2,2.6-0.6c0.8-0.4,1.4-1,1.9-1.7l4,3c-0.9,1.3-2.1,2.3-3.5,2.9c-1.4,0.6-2.9,0.9-4.4,0.9
		c-1.7,0-3.3-0.3-4.7-0.8c-1.4-0.5-2.7-1.3-3.8-2.3c-1.1-1-1.9-2.2-2.5-3.6c-0.6-1.4-0.9-3-0.9-4.8c0-1.8,0.3-3.3,0.9-4.8
		C2.5,6.2,3.3,5,4.4,4c1.1-1,2.3-1.8,3.8-2.3c1.4-0.5,3-0.8,4.7-0.8c0.6,0,1.3,0.1,1.9,0.2c0.7,0.1,1.3,0.3,2,0.5s1.3,0.6,1.9,1
		c0.6,0.4,1.1,0.9,1.6,1.5L16.6,7.1z"/>
	<path class="st1" d="M22.3-0.1H27v23.4h-4.6V-0.1z"/>
	<path class="st0" d="M29.4,3.5c0-0.7,0.3-1.4,0.8-1.9c0.5-0.5,1.2-0.8,1.9-0.8c0.7,0,1.4,0.3,1.9,0.8c0.5,0.5,0.8,1.2,0.8,1.9
		S34.5,4.9,34,5.4c-0.5,0.5-1.2,0.8-1.9,0.8c-0.7,0-1.4-0.3-1.9-0.8C29.7,4.9,29.4,4.3,29.4,3.5z M29.8,8.3h4.6v15.1h-4.6V8.3z"/>
	<path class="st1" d="M47.3,13.1c-0.2-0.3-0.5-0.6-1-0.8C46,12.1,45.5,12,45,12c-1.2,0-2.1,0.4-2.7,1.1c-0.7,0.7-1,1.6-1,2.8
		c0,1.1,0.3,2.1,1,2.8c0.7,0.7,1.6,1.1,2.7,1.1c0.5,0,1-0.1,1.3-0.3c0.4-0.2,0.7-0.5,1-0.8l3.1,3.2c-0.7,0.7-1.6,1.3-2.6,1.6
		c-1,0.3-1.9,0.4-2.8,0.4c-1.2,0-2.2-0.2-3.3-0.6s-1.9-0.9-2.7-1.6c-0.8-0.7-1.3-1.5-1.8-2.5c-0.4-1-0.7-2.1-0.7-3.3
		c0-1.2,0.2-2.3,0.7-3.3c0.4-1,1-1.8,1.8-2.5c0.8-0.7,1.6-1.2,2.7-1.6s2.1-0.6,3.3-0.6c0.9,0,1.8,0.1,2.8,0.4c1,0.3,1.8,0.8,2.6,1.6
		L47.3,13.1z"/>
	<path class="st0" d="M51.5-0.1h4.6v14.3l5.1-6H67l-6,6.8l6.1,8.3h-5.9l-5.1-7.6h-0.1v7.6h-4.6V-0.1z"/>
	<path class="st1" d="M76.1,15.8c0-1.2,0.2-2.3,0.7-3.3c0.4-1,1-1.8,1.8-2.5c0.8-0.7,1.6-1.2,2.7-1.6s2.1-0.6,3.3-0.6
		c1.2,0,2.2,0.2,3.3,0.6s1.9,0.9,2.7,1.6c0.8,0.7,1.3,1.5,1.8,2.5c0.4,1,0.7,2.1,0.7,3.3c0,1.2-0.2,2.3-0.7,3.3
		c-0.4,1-1,1.8-1.8,2.5c-0.8,0.7-1.6,1.2-2.7,1.6s-2.1,0.6-3.3,0.6c-1.2,0-2.2-0.2-3.3-0.6s-1.9-0.9-2.7-1.6
		c-0.8-0.7-1.3-1.5-1.8-2.5C76.3,18.1,76.1,17,76.1,15.8z M80.7,15.8c0,1.1,0.3,2.1,1,2.8s1.6,1.1,2.7,1.1c1.2,0,2.1-0.4,2.7-1.1
		c0.7-0.7,1-1.6,1-2.8c0-1.1-0.3-2.1-1-2.8c-0.7-0.7-1.6-1.1-2.7-1.1c-1.2,0-2.1,0.4-2.7,1.1C81,13.8,80.7,14.7,80.7,15.8z"/>
	<path class="st0" d="M94.9,8.3h4.5v2h0.1c0.1-0.3,0.4-0.6,0.6-0.9c0.3-0.3,0.6-0.5,1-0.8c0.4-0.2,0.8-0.4,1.3-0.6
		c0.5-0.1,1-0.2,1.5-0.2c1.2,0,2.1,0.2,2.9,0.5c0.7,0.4,1.3,0.9,1.7,1.5c0.4,0.6,0.7,1.4,0.8,2.3c0.1,0.9,0.2,1.8,0.2,2.8v8.3h-4.6
		V16c0-0.4,0-0.9,0-1.3c0-0.5-0.1-0.9-0.3-1.3c-0.2-0.4-0.4-0.7-0.7-1c-0.3-0.2-0.8-0.4-1.4-0.4c-0.6,0-1.1,0.1-1.5,0.3
		s-0.7,0.5-0.9,0.9c-0.2,0.4-0.3,0.8-0.4,1.2c-0.1,0.5-0.1,0.9-0.1,1.4v7.5h-4.6V8.3z"/>
	<path class="st1" d="M130.1,21.5L130.1,21.5c-0.6,0.8-1.3,1.4-2.1,1.7c-0.9,0.4-1.8,0.5-2.7,0.5c-0.7,0-1.4-0.1-2-0.3
		c-0.7-0.2-1.2-0.5-1.7-0.9c-0.5-0.4-0.9-0.9-1.2-1.5c-0.3-0.6-0.4-1.2-0.4-2c0-0.9,0.2-1.6,0.5-2.2c0.3-0.6,0.8-1.1,1.3-1.5
		c0.5-0.4,1.2-0.7,1.9-0.9c0.7-0.2,1.4-0.4,2.2-0.5c0.8-0.1,1.5-0.2,2.3-0.2s1.5,0,2.1,0c0-0.8-0.3-1.5-0.9-2
		c-0.6-0.5-1.3-0.7-2.1-0.7c-0.8,0-1.5,0.2-2.1,0.5c-0.6,0.3-1.2,0.8-1.7,1.3l-2.5-2.5c0.9-0.8,1.9-1.4,3-1.8
		c1.2-0.4,2.4-0.6,3.6-0.6c1.4,0,2.5,0.2,3.4,0.5c0.9,0.3,1.6,0.8,2.1,1.5c0.5,0.7,0.9,1.5,1.1,2.4c0.2,1,0.3,2.1,0.3,3.3v7.7h-4.3
		V21.5z M129,16.7c-0.4,0-0.8,0-1.3,0c-0.5,0-1,0.1-1.5,0.3c-0.5,0.1-0.9,0.4-1.2,0.7c-0.3,0.3-0.5,0.7-0.5,1.2c0,0.6,0.2,1,0.7,1.2
		c0.5,0.3,1,0.4,1.5,0.4c0.5,0,0.9-0.1,1.3-0.2c0.4-0.1,0.8-0.3,1.1-0.5c0.3-0.2,0.6-0.5,0.8-0.9c0.2-0.4,0.3-0.8,0.3-1.2v-1H129z"
		/>
	<path class="st0" d="M155.4,13.1c-0.2-0.3-0.5-0.6-1-0.8c-0.4-0.2-0.9-0.3-1.3-0.3c-1.2,0-2.1,0.4-2.7,1.1c-0.7,0.7-1,1.6-1,2.8
		c0,1.1,0.3,2.1,1,2.8c0.7,0.7,1.6,1.1,2.7,1.1c0.5,0,1-0.1,1.3-0.3c0.4-0.2,0.7-0.5,1-0.8l3.1,3.2c-0.7,0.7-1.6,1.3-2.6,1.6
		c-1,0.3-1.9,0.4-2.8,0.4c-1.2,0-2.2-0.2-3.3-0.6s-1.9-0.9-2.7-1.6c-0.8-0.7-1.3-1.5-1.8-2.5c-0.4-1-0.7-2.1-0.7-3.3
		c0-1.2,0.2-2.3,0.7-3.3c0.4-1,1-1.8,1.8-2.5c0.8-0.7,1.6-1.2,2.7-1.6s2.1-0.6,3.3-0.6c0.9,0,1.8,0.1,2.8,0.4c1,0.3,1.8,0.8,2.6,1.6
		L155.4,13.1z"/>
	<path class="st1" d="M159,15.8c0-1.2,0.2-2.3,0.7-3.3c0.4-1,1-1.8,1.8-2.5c0.8-0.7,1.6-1.2,2.7-1.6s2.1-0.6,3.3-0.6
		c1.2,0,2.2,0.2,3.3,0.6s1.9,0.9,2.7,1.6c0.8,0.7,1.3,1.5,1.8,2.5c0.4,1,0.7,2.1,0.7,3.3c0,1.2-0.2,2.3-0.7,3.3
		c-0.4,1-1,1.8-1.8,2.5c-0.8,0.7-1.6,1.2-2.7,1.6s-2.1,0.6-3.3,0.6c-1.2,0-2.2-0.2-3.3-0.6s-1.9-0.9-2.7-1.6
		c-0.8-0.7-1.3-1.5-1.8-2.5C159.2,18.1,159,17,159,15.8z M163.6,15.8c0,1.1,0.3,2.1,1,2.8s1.6,1.1,2.7,1.1c1.2,0,2.1-0.4,2.7-1.1
		c0.7-0.7,1-1.6,1-2.8c0-1.1-0.3-2.1-1-2.8c-0.7-0.7-1.6-1.1-2.7-1.1c-1.2,0-2.1,0.4-2.7,1.1C164,13.8,163.6,14.7,163.6,15.8z"/>
	<path class="st0" d="M192.4,23.3h-4.5v-2h-0.1c-0.2,0.3-0.4,0.6-0.6,0.9c-0.3,0.3-0.6,0.5-0.9,0.8s-0.8,0.4-1.3,0.6
		c-0.5,0.1-1,0.2-1.5,0.2c-1.2,0-2.1-0.2-2.9-0.5c-0.7-0.4-1.3-0.9-1.7-1.5c-0.4-0.6-0.7-1.4-0.8-2.3c-0.1-0.9-0.2-1.8-0.2-2.8V8.3
		h4.6v7.4c0,0.4,0,0.9,0,1.3c0,0.5,0.1,0.9,0.3,1.3c0.2,0.4,0.4,0.7,0.7,1c0.3,0.2,0.8,0.4,1.4,0.4c0.6,0,1.1-0.1,1.5-0.3
		c0.4-0.2,0.7-0.5,0.9-0.9c0.2-0.4,0.3-0.8,0.4-1.2c0.1-0.5,0.1-0.9,0.1-1.4V8.3h4.6V23.3z"/>
	<path class="st1" d="M195,8.3h4.5v2h0.1c0.1-0.3,0.4-0.6,0.6-0.9c0.3-0.3,0.6-0.5,1-0.8c0.4-0.2,0.8-0.4,1.3-0.6
		c0.5-0.1,1-0.2,1.5-0.2c1.2,0,2.1,0.2,2.9,0.5c0.7,0.4,1.3,0.9,1.7,1.5c0.4,0.6,0.7,1.4,0.8,2.3c0.1,0.9,0.2,1.8,0.2,2.8v8.3h-4.6
		V16c0-0.4,0-0.9,0-1.3c0-0.5-0.1-0.9-0.3-1.3c-0.2-0.4-0.4-0.7-0.7-1c-0.3-0.2-0.8-0.4-1.4-0.4c-0.6,0-1.1,0.1-1.5,0.3
		s-0.7,0.5-0.9,0.9c-0.2,0.4-0.3,0.8-0.4,1.2c-0.1,0.5-0.1,0.9-0.1,1.4v7.5H195V8.3z"/>
	<path class="st0" d="M222.5,12h-4.1v5c0,0.4,0,0.8,0.1,1.1c0,0.3,0.1,0.6,0.3,0.9s0.4,0.4,0.7,0.6c0.3,0.1,0.7,0.2,1.2,0.2
		c0.2,0,0.6,0,1-0.1c0.4-0.1,0.7-0.2,0.9-0.4v3.9c-0.5,0.2-1.1,0.3-1.6,0.4s-1.1,0.1-1.6,0.1c-0.8,0-1.5-0.1-2.2-0.2
		c-0.7-0.2-1.2-0.4-1.7-0.8c-0.5-0.4-0.9-0.8-1.2-1.4c-0.3-0.6-0.4-1.3-0.4-2.1V12h-3V8.3h3V3.8h4.6v4.5h4.1V12z"/>
	<path class="st1" d="M224.2,8.3h4.6v2.4h0.1c0.5-0.9,1.1-1.6,1.8-2.1c0.7-0.5,1.5-0.7,2.6-0.7c0.3,0,0.5,0,0.8,0
		c0.3,0,0.5,0.1,0.7,0.1v4.2c-0.3-0.1-0.7-0.2-1-0.2c-0.3-0.1-0.7-0.1-1-0.1c-0.9,0-1.6,0.1-2.1,0.4s-0.9,0.6-1.2,1
		c-0.3,0.4-0.5,1-0.5,1.6c-0.1,0.6-0.1,1.3-0.1,2v6.3h-4.6V8.3z"/>
	<path class="st0" d="M244.9,25.8c-0.3,0.8-0.6,1.5-0.9,2.1s-0.7,1.1-1.1,1.6c-0.4,0.4-1,0.7-1.7,1c-0.7,0.2-1.6,0.3-2.7,0.3
		c-1.2,0-2.4-0.2-3.5-0.6l0.6-3.8c0.7,0.3,1.4,0.5,2.2,0.5c0.5,0,0.9-0.1,1.3-0.2s0.6-0.3,0.8-0.5c0.2-0.2,0.4-0.5,0.5-0.8
		c0.1-0.3,0.3-0.7,0.5-1.1l0.3-0.9l-6.6-15.2h5l3.9,10h0.1l3.3-10h4.8L244.9,25.8z"/>
</g>
</svg>
