<?xml version="1.0" encoding="UTF-8"?>
<!DOCTYPE svg PUBLIC "-//W3C//DTD SVG 1.1//EN" "http://www.w3.org/Graphics/SVG/1.1/DTD/svg11.dtd">
<!-- Creator: CorelDRAW X7 -->
<svg xmlns="http://www.w3.org/2000/svg" xml:space="preserve" width="624px" height="807px" version="1.1" shape-rendering="geometricPrecision" text-rendering="geometricPrecision" image-rendering="optimizeQuality" fill-rule="evenodd" clip-rule="evenodd"
viewBox="0 0 624 808"
 xmlns:xlink="http://www.w3.org/1999/xlink">
 <g id="Слой_x0020_1">
  <metadata id="CorelCorpID_0Corel-Layer"/>
  <path fill="#F1F1F1" fill-rule="nonzero" d="M629 697l-600 0c-28,0 -50,-23 -50,-50l0 -4c0,-28 22,-50 50,-50l600 0c28,0 51,22 51,50l0 4c0,27 -23,50 -51,50z"/>
  <path fill="#99CFE7" fill-rule="nonzero" d="M426 645c0,21 -16,37 -37,37 -21,0 -38,-16 -38,-37 0,-21 17,-38 38,-38 21,0 37,17 37,38z"/>
  <path fill="white" fill-rule="nonzero" d="M398 643c0,0 0,0 0,0 0,2 0,10 0,11 0,1 0,2 -1,2 -4,0 -14,0 -18,0 -1,0 -2,-1 -2,-2 0,-4 0,-14 0,-17 0,-1 0,-1 0,-1 0,0 0,-1 1,-1 0,0 1,0 1,0 2,0 10,0 12,0 1,0 1,0 1,0 1,-1 1,-2 2,-2 0,-1 1,-1 1,-1 0,0 0,0 0,0 -4,0 -13,0 -16,0 -3,0 -5,2 -5,4 0,4 0,14 0,19 0,2 1,3 3,4 1,0 1,0 1,0 4,0 15,0 20,0 0,0 0,0 0,0 2,0 4,-2 4,-4 0,-3 0,-12 0,-15 0,0 0,0 0,0 0,0 0,0 0,0 -2,1 -3,2 -4,3z"/>
  <path fill="white" fill-rule="nonzero" d="M398 632c0,0 0,0 -1,0 -2,2 -9,10 -12,12 0,0 0,0 0,0 -1,2 -1,4 -2,6 0,1 0,1 1,1 0,0 0,0 0,0 2,-1 4,-1 5,-2 1,0 1,0 1,0 3,-3 10,-10 12,-12 1,0 1,0 0,-1 -1,-1 -3,-3 -4,-4z"/>
  <path fill="white" fill-rule="nonzero" d="M406 631c-1,-1 -2,-2 -3,-3 0,0 0,0 -1,0 0,0 -1,0 -1,0 0,1 -1,1 -1,2 0,0 0,0 0,0 1,1 1,2 2,3 1,0 2,1 2,1 0,1 0,1 0,0 1,0 1,0 2,-1 0,-1 0,-1 0,-2z"/>
  <path fill="#47979E" fill-rule="nonzero" d="M69 645c0,21 -17,37 -38,37 -21,0 -37,-16 -37,-37 0,-21 16,-38 37,-38 21,0 38,17 38,38z"/>
  <path fill="white" fill-rule="nonzero" d="M50 655l-7 -7c0,0 0,0 0,0 1,-2 2,-5 2,-8 0,-7 -6,-14 -14,-14 -8,0 -14,7 -14,14 0,8 6,14 14,14 3,0 5,0 8,-2 0,0 0,0 0,0l6 7c2,1 3,1 5,0 1,-1 1,-3 0,-4zm-19 -5l0 0c-5,0 -10,-4 -10,-10 0,-5 5,-9 10,-9 5,0 10,4 10,9 0,6 -5,10 -10,10z"/>
  <path fill="white" fill-rule="nonzero" d="M36 633c0,1 0,1 0,1l-3 4 -3 -3c0,0 0,0 -1,0 0,0 -1,0 -1,1l-2 5 -3 -3c0,0 0,-1 0,-1 0,1 -1,2 -1,3 0,1 0,1 0,1l3 3c1,1 1,1 2,1 0,0 0,-1 1,-1l2 -5 2 2c0,1 0,1 1,1 0,0 1,0 1,-1l4 -5c0,0 0,-1 0,-1 0,0 -1,-1 -2,-2z"/>
  <path fill="white" fill-rule="nonzero" d="M31 656l0 4 -11 0 0 -5 -5 0 0 -15 1 0c0,-1 0,-2 0,-3l-3 0c-1,0 -1,1 -1,2l0 20c0,0 0,1 0,1l5 3c0,0 0,0 0,0l15 0c1,0 2,0 2,-1l0 -7c-1,0 -2,1 -3,1 0,0 0,0 0,0z"/>
  <path fill="#A4CBDA" fill-rule="nonzero" d="M188 645c0,21 -17,37 -38,37 -20,0 -37,-16 -37,-37 0,-21 17,-38 37,-38 21,0 38,17 38,38z"/>
  <path fill="white" fill-rule="nonzero" d="M167 656l-34 0c-1,0 -2,1 -2,2 0,1 1,2 2,2l34 0c1,0 2,-1 2,-2 0,-1 -1,-2 -2,-2z"/>
  <path fill="white" fill-rule="nonzero" d="M142 639c0,0 0,0 0,0l3 4c-1,1 -1,2 -1,2 0,3 2,5 5,5 3,0 5,-2 5,-5 0,0 0,0 0,0l1 -1c1,0 2,0 3,0 0,0 0,0 0,0l2 3c-1,1 -1,2 -1,3 0,3 2,5 4,5 3,0 5,-2 5,-5 0,-3 -2,-5 -5,-5 0,0 0,0 0,0l-1 -3c0,0 1,-1 1,-2 0,-3 -3,-5 -5,-5 -3,0 -5,2 -5,5 0,0 0,0 0,0l-1 1c-1,0 -2,0 -3,0 0,0 -1,0 -1,0l-3 -4c1,-1 1,-2 1,-3 0,-2 -2,-5 -4,-5 -3,0 -5,3 -5,5 0,3 2,5 5,5zm21 9l0 0c2,0 3,1 3,2 0,1 -1,2 -3,2 -1,0 -2,-1 -2,-2 0,-1 1,-2 2,-2zm-5 -11l0 0c1,0 2,1 2,3 0,1 -1,2 -2,2 -1,0 -2,-1 -2,-2 0,-2 1,-3 2,-3zm-9 6l0 0c1,0 2,1 2,2 0,2 -1,3 -2,3 -1,0 -2,-1 -2,-3 0,-1 1,-2 2,-2zm-7 -11l0 0c1,0 2,1 2,2 0,1 -1,2 -2,2 -2,0 -2,-1 -2,-2 0,-1 0,-2 2,-2z"/>
  <path fill="white" fill-rule="nonzero" d="M133 654c1,0 2,-1 2,-2 0,-1 -1,-1 -2,-1 -1,0 -1,0 -1,1 0,1 0,2 1,2z"/>
  <path fill="white" fill-rule="nonzero" d="M133 649c1,0 2,-1 2,-2 0,-1 -1,-2 -2,-2 -1,0 -1,1 -1,2 0,1 0,2 1,2z"/>
  <path fill="white" fill-rule="nonzero" d="M133 643c1,0 2,0 2,-1 0,-1 -1,-2 -2,-2 -1,0 -1,1 -1,2 0,1 0,1 1,1z"/>
  <path fill="white" fill-rule="nonzero" d="M133 638c1,0 2,-1 2,-2 0,0 -1,-1 -2,-1 -1,0 -1,1 -1,1 0,1 0,2 1,2z"/>
  <path fill="white" fill-rule="nonzero" d="M133 633c1,0 2,-1 2,-2 0,-1 -1,-2 -2,-2 -1,0 -1,1 -1,2 0,1 0,2 1,2z"/>
  <path fill="#768BC0" fill-rule="nonzero" d="M307 645c0,21 -17,37 -37,37 -21,0 -38,-16 -38,-37 0,-21 17,-38 38,-38 20,0 37,17 37,38z"/>
  <path fill="white" fill-rule="nonzero" d="M285 651c0,0 0,0 -1,1 0,-2 -1,-2 -2,-2 0,0 -1,0 -1,0 -1,-1 -2,-1 -2,-1 -1,0 -2,0 -2,1l0 -8c0,0 0,-1 -2,-1 -2,0 -2,2 -2,2l0 12 0 -3c0,0 -1,-2 -2,-2 0,0 0,0 -1,0 -1,1 -1,3 -1,3 1,8 5,11 5,11l11 0c0,0 1,-2 2,-4 0,-2 1,-7 1,-7 -1,-1 -1,-2 -3,-2z"/>
  <path fill="white" fill-rule="nonzero" d="M268 652l-13 0c0,0 0,0 0,0l0 -18c0,0 0,0 0,0l27 0c0,0 0,0 0,0l0 14c0,0 0,0 0,0 1,0 3,1 3,2 0,0 0,0 0,0 0,0 0,0 0,0l0 -16c0,-2 -1,-4 -3,-4l-27 0c-2,0 -3,2 -3,4l0 18c0,2 1,4 3,4l13 0c0,-1 0,-2 0,-3 0,0 0,0 0,-1z"/>
  <polygon fill="white" fill-rule="nonzero" points="262,637 260,637 260,639 262,639 "/>
  <polygon fill="white" fill-rule="nonzero" points="267,637 264,637 264,639 267,639 "/>
  <polygon fill="white" fill-rule="nonzero" points="272,637 269,637 269,639 272,639 "/>
  <polygon fill="white" fill-rule="nonzero" points="276,639 276,637 274,637 274,639 "/>
  <polygon fill="white" fill-rule="nonzero" points="262,641 260,641 260,644 262,644 "/>
  <polygon fill="white" fill-rule="nonzero" points="264,644 267,644 267,641 264,641 "/>
  <polygon fill="white" fill-rule="nonzero" points="269,644 272,644 272,641 269,641 "/>
  <polygon fill="white" fill-rule="nonzero" points="260,648 262,648 262,646 260,646 "/>
  <path fill="#27428E" fill-rule="nonzero" d="M546 645c0,21 -17,37 -38,37 -21,0 -37,-16 -37,-37 0,-21 16,-38 37,-38 21,0 38,17 38,38z"/>
  <path fill="white" fill-rule="nonzero" d="M531 643c-3,-3 -6,-7 -9,-11l-6 4 -4 -1c-2,-1 -4,-1 -5,-1l-3 1 -9 -4c-1,0 -1,0 -1,1l-8 8c-1,1 -1,1 0,2l5 5c-2,3 -1,6 1,6 1,1 2,3 4,2 0,2 2,3 4,3 0,2 3,2 4,1 0,0 0,0 0,0 1,0 2,1 4,1 1,0 2,-1 2,-1 4,-1 8,-3 12,-6 1,-1 2,-2 2,-4 0,0 0,0 0,-1l7 -5zm-11 8l0 0c0,0 0,0 0,0l-7 -6 -2 2 7 5c-1,1 -2,1 -2,2l-6 -6 -2 2 6 5c-1,0 -2,1 -3,1l-5 -4 -1 1 4 4c-1,0 -2,0 -4,0 1,-2 0,-4 -3,-5 1,-1 -1,-3 -3,-3 1,-2 -1,-4 -3,-3 -1,-1 -2,-3 -4,-1l-4 -4 7 -7 6 2c-1,2 2,5 5,4l3 0 2 0c2,2 6,5 10,8 0,0 0,0 0,0 0,0 0,1 0,1 0,1 0,2 -1,2z"/>
  <path fill="#81368A" fill-rule="nonzero" d="M665 645c0,21 -17,37 -38,37 -20,0 -37,-16 -37,-37 0,-21 17,-38 37,-38 21,0 38,17 38,38z"/>
  <path fill="white" fill-rule="nonzero" d="M641 637l-2 0 0 -2c0,-3 -3,-6 -6,-6l-18 0c-4,0 -6,3 -6,6l0 13c0,4 2,6 6,6l4 0 0 1c0,4 -1,7 -2,10 3,-1 5,-2 8,-5l16 0c3,0 5,-2 5,-5l0 -13c0,-3 -2,-5 -5,-5zm-14 13l0 0c-1,0 -2,-1 -2,-2 0,-1 1,-1 2,-1 1,0 1,0 1,1 0,1 0,2 -1,2zm5 0l0 0c-1,0 -1,-1 -1,-2 0,-1 0,-1 1,-1 1,0 2,0 2,1 0,1 -1,2 -2,2zm4 -13l0 0 -12 0c-3,0 -5,2 -5,5l0 9 -4 0c-2,0 -3,-1 -3,-3l0 -13c0,-2 1,-3 3,-3l18 0c2,0 3,1 3,3l0 2zm2 13l0 0c-1,0 -2,-1 -2,-2 0,-1 1,-1 2,-1 1,0 2,0 2,1 0,1 -1,2 -2,2z"/>
  <path fill="#47979E" fill-rule="nonzero" d="M151 544l-148 -257c-4,-6 -4,-14 0,-20l148 -257c4,-6 10,-10 18,-10l296 0c7,0 14,4 18,10l148 257c4,6 4,14 0,20l-148 257c-4,6 -11,10 -18,10l-296 0c-8,0 -14,-4 -18,-10z"/>
  <path fill="none" fill-rule="nonzero" fill-opacity="0.250980" stroke="white" stroke-width="2.03934" stroke-opacity="0.250980" d="M388 104c0,35 -28,63 -63,63 -35,0 -63,-28 -63,-63 0,-35 28,-63 63,-63 35,0 63,28 63,63"/>
  <path fill="white" fill-rule="nonzero" d="M356 121l-11 -12c0,0 0,0 0,0 2,-4 4,-8 4,-13 0,-13 -11,-23 -24,-23 -13,0 -23,10 -23,23 0,13 10,24 23,24 5,0 9,-2 13,-4 0,0 0,0 0,0l11 12c2,1 5,1 7,0 2,-2 2,-6 0,-7zm-31 -8l0 0c-9,0 -17,-8 -17,-17 0,-9 8,-16 17,-16 9,0 17,7 17,16 0,9 -8,17 -17,17z"/>
  <path fill="white" fill-rule="nonzero" d="M334 85c-1,0 -1,0 -1,0l-5 7 -4 -4c-1,-1 -2,-1 -2,-1 -1,0 -2,0 -2,1l-4 9 -4 -5c0,0 0,-1 -1,-1 0,2 -1,4 -1,5 0,1 1,1 1,1l4 6c1,0 2,1 2,1 1,-1 2,-1 2,-2l4 -8 3 4c0,0 1,1 2,1 1,0 1,-1 2,-1l7 -10c0,0 0,0 0,0 -1,-1 -2,-2 -3,-3z"/>
  <path fill="white" fill-rule="nonzero" d="M325 122l0 8 -19 0 0 -10 -9 0 0 -24 2 0c1,-2 1,-3 1,-5l-5 0c-1,0 -3,1 -3,3l0 33c0,1 1,2 1,2l8 5c0,1 1,1 1,1l25 0c2,0 3,-1 3,-3l0 -11c-2,1 -3,1 -5,1 0,0 0,0 0,0z"/>
  <g transform="matrix(1 0 0 1 5.42707 -172.042)">
   <text x="200" y="404"  fill="white" font-weight="normal" font-size="30.5881px" font-family="Arial">ANALÝZA RIZIK</text>
  </g>
  <text x="152" y="275"  fill="white" font-weight="normal" font-size="16.3136px" font-family="Arial">Při tvorbě pojistného programu zohledňujeme </text>
  <text x="147" y="305"  fill="white" font-weight="normal" font-size="16.3136px" font-family="Arial">individuální potřeby a požadavky klienta v úzké </text>
  <text x="148" y="334"  fill="white" font-weight="normal" font-size="16.3136px" font-family="Arial">návaznosti na skutečnosti, které byly zjištěny v </text>
  <text x="144" y="364"  fill="white" font-weight="normal" font-size="16.3136px" font-family="Arial">analýze rizik. Cílem je kvalitní rozsah pojistného </text>
  <text x="139" y="393"  fill="white" font-weight="normal" font-size="16.3136px" font-family="Arial">krytí, správné nastavení limitů plnění a pojistných </text>
  <text x="156" y="423"  fill="white" font-weight="normal" font-size="16.3136px" font-family="Arial">částek, případně vyjednání nadstandardních </text>
  <text x="147" y="453"  fill="white" font-weight="normal" font-size="16.3136px" font-family="Arial">ujednání s pojišťovnami. Trvale také sledujeme </text>
  <text x="160" y="482"  fill="white" font-weight="normal" font-size="16.3136px" font-family="Arial">změny na pojistném trhu a aplikujeme je do </text>
  <text x="175" y="512"  fill="white" font-weight="normal" font-size="16.3136px" font-family="Arial">stávajících pojistných programů klientů. </text>
  <polyline fill="none" fill-rule="nonzero" stroke="white" stroke-width="2.03934" points="578,240 600,276 578,314 "/>
  <polyline fill="none" fill-rule="nonzero" stroke="white" stroke-width="2.03934" points="51,314 30,278 51,240 "/>
  <polygon fill="white" fill-rule="nonzero" points="454,28 446,21 451,16 458,24 466,16 471,21 463,29 471,36 466,41 459,33 451,41 446,36 "/>
 </g>
</svg>
