<?xml version="1.0" encoding="UTF-8" standalone="no"?>
<svg width="524px" height="518px" viewBox="0 0 524 518" version="1.1" xmlns="http://www.w3.org/2000/svg" xmlns:xlink="http://www.w3.org/1999/xlink">
    
    <title>YankeeStadium</title>
    <desc>Created with Sketch.</desc>
    <defs>
        <style type="text/css">
            <![CDATA[
 @font-face {
            font-family: 'Pro-Block-Regular';
            src: url('http://richardsoncap.synoptive.com/fonts/pro_block.ttf') format('truetype');
            font-weight: regular;
            }
.magenta_seats { fill: rgb(201, 30, 65);

            }
.yellow_seats { fill: gold;

            }

.gray_seats { fill: gray;

            }
.palegreen_seats  { fill: #82C05B;

            }
]]>
        </style>
    </defs>
    <g id="Page-1" stroke="none" stroke-width="1" fill="none" fill-rule="evenodd">
        <path d="M120.277,199.139 C120.277,198.508 119.769,198 119.137,198 C118.509,198 118,198.508 118,199.139 C118,199.768 118.509,200.278 119.137,200.278 C119.769,200.278 120.277,199.768 120.277,199.139 L120.277,199.139 Z" id="Stroke-965" class="regions gray_seats"></path>
        <path d="M411.274,195.14 C411.274,194.511 410.77,194 410.138,194 C409.508,194 409,194.511 409,195.14 C409,195.769 409.508,196.28 410.138,196.28 C410.77,196.28 411.274,195.769 411.274,195.14 L411.274,195.14 Z" id="Stroke-967" class="regions gray_seats"></path>
        <polygon id="Stroke-392" class="regions palegreen_seats clickable_seats" points="412 206.281 412.771 203.747 412.196 197.23 431.179 194 433.13 198.778 430.71 208.928"></polygon>
        <polygon id="Stroke-395" class="regions palegreen_seats clickable_seats" points="412.601 194.306 431.079 191.496 426.805 180.562 423.783 176 409 183.348 409.877 184.883 412.436 192.673"></polygon>
        <path d="M420.855,173.254 L406.626,180.477 L404.798,177.696 L399,171.971 L410.844,160 L414.489,163.561 C414.489,163.561 421.093,173.135 420.855,173.254 L420.855,173.254 Z" id="Stroke-398" class="regions palegreen_seats clickable_seats"></path>
        <polygon id="Stroke-402" class="regions palegreen_seats clickable_seats" points="397.066 169.964 409.02 158.099 391.371 140.702 389.638 139 378 151.128"></polygon>
        <polygon id="Stroke-470" class="regions gray_seats" points="230.843 366.758 236.448 362.094 195.606 313 190 317.666"></polygon>
        <polygon id="Stroke-472" class="regions gray_seats" points="300 359.993 305.809 364.397 342.946 315.4 337.132 311"></polygon>

        <polygon id="Stroke-474" class="regions gray_seats" points="105 65.824 113.734 74.436 116.469 71.382 117.258 72.171 126.416 62.771 125.869 62.286 131.024 57.798 136.363 53.553 141.819 49.487 147.399 45.608 153.161 41.907 158.982 38.451 164.988 35.175 171.052 32.143 177.237 29.294 183.752 26.607 189.914 24.26 196.402 22.136 202.951 20.196 209.563 18.498 216.173 17.042 222.905 15.829 236.428 14.071 243.222 13.585 250.015 13.343 256.867 13.343 263.661 13.524 270.451 14.01 277.022 14.655 283.976 15.648 290.65 16.799 297.319 18.256 303.93 19.892 310.478 21.773 316.969 23.894 323.399 26.26 329.704 28.808 335.891 31.598 342.016 34.631 348.021 37.845 353.903 41.301 359.662 44.941 365.247 48.761 370.763 52.824 376.1 57.071 381.254 61.496 383.21 63.033 392.185 53.815 386.886 48.621 387.561 47.791 386.835 47.183 386.07 47.949 360.55 29.819 361.121 28.869 360.271 28.384 359.723 29.325 331.605 15.383 332.009 14.374 331.16 14.01 330.752 15.034 300.775 5.642 301.018 4.548 300.107 4.368 299.077 8.734 268.086 4.125 236.733 4.482 236.307 0 235.399 0.122 235.459 1.213 204.53 6.429 204.225 5.398 203.316 5.642 203.618 6.672 173.841 16.678 173.416 15.707 172.507 16.072 172.931 17.042 145.216 31.719 144.549 30.689 143.76 31.172 144.366 32.205 119.138 50.883 118.408 50.034 117.682 50.641 118.408 51.49"></polygon>
        <polygon id="Stroke-476" class="regions palegreen_seats clickable_seats" points="154.494 258.937 142.461 265.02 137 253.748 148.768 248"></polygon>
        <polygon id="Stroke-478" class="regions palegreen_seats clickable_seats" points="144 266.866 159.566 259 166.172 271.802 150.304 279.783"></polygon>
        <polygon id="Stroke-480" class="regions palegreen_seats clickable_seats" points="166.6 274 151 282.101 157.406 294.929 173.118 286.915"></polygon>
        <polygon id="Stroke-482" class="regions palegreen_seats clickable_seats" points="159 296.92 174.773 289 177.643 294.631 180.991 298.795 167.294 309.922 162.731 304.263"></polygon>
        <polygon id="Stroke-484" class="regions palegreen_seats clickable_seats" points="168 311.054 181.73 300 190.827 311.295 177.098 322.348"></polygon>
        <polygon id="Stroke-486" class="regions palegreen_seats clickable_seats" points="179 325.11 187.832 318 196.929 329.291 188.097 336.403"></polygon>
        <polygon id="Stroke-488" class="regions palegreen_seats clickable_seats" points="197.83 331 189 338.108 198.097 349.401 206.928 342.29"></polygon>
        <polygon id="Stroke-490" class="regions palegreen_seats clickable_seats" points="200 351.111 208.833 344 217.93 355.289 209.099 362.403"></polygon>
        <polygon id="Stroke-492" class="regions palegreen_seats clickable_seats" points="211 364.112 219.831 357 229.432 368.917 220.6 376.024"></polygon>
        <polygon id="Stroke-494" class="regions palegreen_seats clickable_seats" points="222 377.36 225.993 382.479 235.452 372.794 232.397 369"></polygon>
        <polygon id="Stroke-496" class="regions palegreen_seats clickable_seats" points="240.205 377 243.7 379.661 250.716 383.059 247.896 391.288 245.879 395.516 236.84 391.22 232 387.266"></polygon>
        <polygon id="Stroke-498" class="regions palegreen_seats clickable_seats" points="248 396.998 255.234 398.573 259.422 379.085 254.551 378"></polygon>
        <polygon id="Stroke-500" class="regions palegreen_seats clickable_seats" points="257 398.551 261.322 379.068 262.486 379.333 271.306 379.298 272.587 379 277.138 398.429 273.653 399.252 260.474 399.342"></polygon>
        <polygon id="Stroke-502" class="regions palegreen_seats clickable_seats" points="279.552 397.588 286.615 395.933 279.832 377 275 378.16"></polygon>
        <polygon id="Stroke-504" class="regions palegreen_seats clickable_seats" points="289.059 395.46 286.987 391.219 281 377.159 287.496 374.004 289.929 372 302.51 387.517 298.302 390.924"></polygon>
        <polygon id="Stroke-506" class="regions palegreen_seats clickable_seats" points="304.578 385.707 308.787 382.302 313.469 376.34 297.765 364 294.46 368.206 292 370.189"></polygon>
        <polygon id="Stroke-508" class="regions palegreen_seats clickable_seats" points="306 367.247 314.84 356 323.749 363.001 314.909 374.252"></polygon>
        <polygon id="Stroke-510" class="regions palegreen_seats clickable_seats" points="316 354.42 324.972 343 333.883 350.005 324.911 361.422"></polygon>
        <polygon id="Stroke-512" class="regions palegreen_seats clickable_seats" points="327 341.419 335.974 330 344.885 337.003 335.911 348.422"></polygon>
        <polygon id="Stroke-514" class="regions palegreen_seats clickable_seats" points="337 328.418 345.974 317 354.883 324.003 345.909 335.423"></polygon>
        <polygon id="Stroke-516" class="regions palegreen_seats clickable_seats" points="343 311.417 351.971 300 365.802 310.866 356.829 322.283"></polygon>
        <polygon id="Stroke-518" class="regions palegreen_seats clickable_seats" points="353 297.992 356.347 293.734 359.14 288 375.002 295.783 371.351 303.182 366.865 308.889"></polygon>
        <polygon id="Stroke-520" class="regions palegreen_seats clickable_seats" points="360 286.026 366.406 273 382.249 280.812 375.863 293.808"></polygon>
        <polygon id="Stroke-522" class="regions palegreen_seats clickable_seats" points="368 270.135 374.445 257 390.223 264.899 383.837 277.898"></polygon>
        <polygon id="Stroke-524" class="regions palegreen_seats clickable_seats" points="379 256.987 384.389 246 396.179 251.805 390.788 262.783"></polygon>
        <polygon id="Stroke-526" class="regions palegreen_seats clickable_seats" points="109.644 373 87 391.458 104.858 413.644 127.488 395.175"></polygon>
        <polygon id="Stroke-528" class="regions palegreen_seats clickable_seats" points="129.707 398 107 416.407 124.809 438.532 147.52 420.151"></polygon>
        <polygon id="Stroke-530" class="regions palegreen_seats clickable_seats" points="148.722 422 126 440.403 146.397 465.746 167.299 445.105"></polygon>
        <polygon id="Stroke-532" class="regions palegreen_seats clickable_seats" points="169.758 448 170.188 448.538 191.559 465.332 175.965 490.356 149.434 469.508 149 468.858"></polygon>
        <polygon id="Stroke-534" class="regions palegreen_seats clickable_seats" points="193.643 467 194.171 467.417 218.73 479.066 208.925 506.799 178.728 492.463 178 491.887"></polygon>
        <polygon id="Stroke-536" class="regions palegreen_seats clickable_seats" points="221.845 481 222.379 481.222 249.013 487.158 245.387 516.277 212.784 509.053 212 508.682"></polygon>
        <polygon id="Stroke-538" class="regions palegreen_seats clickable_seats" points="252.575 487 253.103 487.16 284.019 487.004 288.475 515.97 287.491 516.201 249.957 516.393 249 516.179"></polygon>
        <polygon id="Stroke-540" class="regions palegreen_seats clickable_seats" points="287 486.441 290.88 515.572 323.301 507.995 323.986 507.613 313.953 480 313.449 480.254"></polygon>
        <polygon id="Stroke-542" class="regions palegreen_seats clickable_seats" points="317 478.979 327.361 506.446 357.338 491.809 358.133 491.164 341.514 467"></polygon>
        <polygon id="Stroke-544" class="regions palegreen_seats clickable_seats" points="344 464.124 360.222 488.513 386.035 467.622 386.659 466.825 365.108 447"></polygon>
        <polygon id="Stroke-546" class="regions palegreen_seats clickable_seats" points="368 444.402 389.059 464.728 409.228 439.069 386.242 421"></polygon>
        <polygon id="Stroke-548" class="regions palegreen_seats clickable_seats" points="411.016 436.357 388 418.266 405.503 396 428.521 414.09"></polygon>
        <polygon id="Stroke-550" class="regions palegreen_seats clickable_seats" points="407 393.463 424.648 371 447.636 389.067 430.113 411.362"></polygon>
        <polygon id="Stroke-552" class="regions palegreen_seats clickable_seats" points="427 368.371 443.775 347.026 444.994 345.477 445.218 345 470.218 360.421 469.86 361.147 450.017 386.392"></polygon>
        <polygon id="Stroke-554" class="regions palegreen_seats clickable_seats" points="447 342.583 471.976 358.059 486.233 329.035 459.986 316"></polygon>
        <polygon id="Stroke-556" class="regions palegreen_seats clickable_seats" points="461 313.567 487.161 326.59 499.794 300.875 473.545 288"></polygon>
        <polygon id="Stroke-558" class="regions palegreen_seats clickable_seats" points="475 285.209 501.358 297.908 512.691 274.829 512.839 274.247 485.276 264 485.103 264.668"></polygon>
        <polygon id="Stroke-560" class="regions palegreen_seats clickable_seats" points="486 260.888 513.605 270.88 520.714 242.832 520.743 242.18 491.709 238 491.695 238.594"></polygon>
        <polygon id="Stroke-562" class="regions palegreen_seats clickable_seats" points="492 234.552 521.059 238.796 522.246 209.765 522.119 209 492.834 210.954 492.946 211.646"></polygon>
        <polygon id="Stroke-564" class="regions palegreen_seats clickable_seats" points="492.067 208.193 521.33 206.136 516.531 177.705 516.253 177 488 185.07 488.232 185.605"></polygon>
        <polygon id="Stroke-566" class="regions palegreen_seats clickable_seats" points="486.779 182.386 514.951 174.351 504.384 147.563 504.012 147 478 160.643 478.315 161.143"></polygon>
        <polygon id="Stroke-568" class="regions palegreen_seats clickable_seats" points="476.011 158.292 501.895 144.439 486.029 120.378 485.647 120 463 138.732 463.305 139.052"></polygon>
        <polygon id="Stroke-570" class="regions palegreen_seats clickable_seats" points="460.914 135.539 483.28 116.538 461.477 95 441 115.867"></polygon>
        <polygon id="Stroke-572" class="regions palegreen_seats clickable_seats" points="438.095 113.93 458.513 93.003 421.127 56 410 86.075"></polygon>
        <polygon id="Stroke-574" class="regions palegreen_seats clickable_seats" points="85.731 66.569 72.847 38 43.812 67.333 36 78.199 59.796 95.14 66.17 86.261"></polygon>
        <polygon id="Stroke-576" class="regions palegreen_seats clickable_seats" points="58.131 97.975 34.374 81 26.646 91.748 15 114.766 42.17 125.838 51.685 106.947"></polygon>
        <polygon id="Stroke-578" class="regions palegreen_seats clickable_seats" points="41.351 128.228 14.267 117 13.937 117.654 6 142.269 34.506 149.168"></polygon>
        <polygon id="Stroke-580" class="regions palegreen_seats clickable_seats" points="4.197 145 32.599 152.123 29.089 173.62 0 171.151 3.965 145.724"></polygon>
        <polygon id="Stroke-582" class="regions palegreen_seats clickable_seats" points="29.258 176.837 29.234 198.675 0.003 200.888 0 175.048 0.163 174"></polygon>
        <polygon id="Stroke-584" class="regions palegreen_seats clickable_seats" points="29.228 202 0 203.972 0 204.744 4.005 230.019 32.571 223.549"></polygon>
        <polygon id="Stroke-586" class="regions palegreen_seats clickable_seats" points="32.575 227 32.648 227.607 39.161 247.664 12.061 258.864 4.14 234.24 4 233.353"></polygon>
        <polygon id="Stroke-588" class="regions palegreen_seats clickable_seats" points="40.157 251 40.342 251.597 48.791 268.248 22.742 281.547 13.221 262.736 13 262.054"></polygon>
        <polygon id="Stroke-590" class="regions palegreen_seats clickable_seats" points="50.11 271 24 284.177 36.791 309.442 62.892 296.291"></polygon>
        <polygon id="Stroke-592" class="regions palegreen_seats clickable_seats" points="65.262 299 39 311.832 51.961 337.441 78.001 324.206"></polygon>
        <polygon id="Stroke-594" class="regions palegreen_seats clickable_seats" points="79.231 327 53 339.888 63.411 360.462 88.121 344.418"></polygon>
        <polygon id="Stroke-596" class="regions palegreen_seats clickable_seats" points="89.706 348 89.965 348.504 108.203 371.14 85.567 389.637 65.273 364.425 65 363.885"></polygon>
        <polygon id="Stroke-598" class="regions palegreen_seats clickable_seats" points="137.827 116.139 128.193 125.888 114.922 126.963 104 102.213 114.101 92 138.138 115.799"></polygon>
        <polygon id="Stroke-600" class="regions palegreen_seats clickable_seats" points="140.077 113.284 116 89.588 134.301 71 158.47 94.635"></polygon>
        <polygon id="Stroke-602" class="regions palegreen_seats clickable_seats" points="160.929 93.382 164.976 89.265 182.734 76.241 183.063 76.049 167.581 46 164.767 47.346 142.751 63.556 137 69.44"></polygon>
        <polygon id="Stroke-604" class="regions palegreen_seats clickable_seats" points="185.699 74.438 168 40.215 187.551 30.128 193.953 28 206.044 64.484 202.535 65.736"></polygon>
        <polygon id="Stroke-606" class="regions palegreen_seats clickable_seats" points="208.077 64.161 222.945 59.227 230.542 57.987 224.271 20 213.709 21.745 196 27.602"></polygon>
        <polygon id="Stroke-608" class="regions magenta_seats " points="233.704 61.865 227 21.541 229.622 21.094 235.379 20.303 244.832 19.392 251.238 19.089 257.027 19 261.336 19.065 266.671 19.293 273.122 19.774 278.649 20.371 285.238 21.342 293.227 22.849 301.373 24.825 307.382 26.532 311.622 27.883 299.222 66.646 287.811 62.994 266.772 59.791 245.501 59.921"></polygon>
        <polygon id="Stroke-610" class="regions palegreen_seats clickable_seats" points="325.547 73.125 342.81 38.723 323.867 29.241 313.666 26 302 62.684 309.315 65.01"></polygon>
        <polygon id="Stroke-612" class="regions palegreen_seats clickable_seats" points="329 75.403 346.263 41 349.161 42.467 371.98 58.825 378.791 65.575 351.568 92.823 347.07 88.345"></polygon>
        <polygon id="Stroke-614" class="regions palegreen_seats clickable_seats" points="354 95.248 377.651 71 396.023 89.178 372.199 113.245"></polygon>
        <polygon id="Stroke-616" class="regions palegreen_seats clickable_seats" points="374 115.389 395.334 94 401.458 100.193 394.448 121.869 381.475 122.765"></polygon>
        <polygon id="Stroke-618" class="regions palegreen_seats clickable_seats" points="408.438 93 439.476 123.769 429.416 133.885 403 107.695"></polygon>
        <polygon id="Stroke-620" class="regions palegreen_seats clickable_seats" points="440.986 126 431 136.213 446.914 151.943 451.072 158.253 463.087 150.513 457.992 142.837"></polygon>
        <polygon id="Stroke-622" class="regions palegreen_seats clickable_seats" points="464.899 153 453 160.898 459.339 170.516 463.921 182.171 477.274 177.014 472.096 163.887"></polygon>
        <polygon id="Stroke-624" class="regions palegreen_seats clickable_seats" points="478.295 180 465 185.252 467.438 191.446 470.348 208.59 484.436 206.314 481.287 187.587"></polygon>
        <polygon id="Stroke-626" class="regions palegreen_seats clickable_seats" points="484.675 209 470.578 211.338 470.889 213.161 470 235.355 484.168 237.431 485.203 212.231"></polygon>
        <polygon id="Stroke-628" class="regions palegreen_seats clickable_seats" points="483.605 241.162 469.209 239 464.674 257.63 463 261.046 475.843 267.365 478.176 262.605"></polygon>
        <polygon id="Stroke-630" class="regions palegreen_seats clickable_seats" points="474.332 269.188 461.454 263 449 288.369 461.814 294.719"></polygon>
        <polygon id="Stroke-632" class="regions palegreen_seats clickable_seats" points="461.352 298.22 448.497 292 436 317.452 448.807 323.786"></polygon>
        <polygon id="Stroke-634" class="regions palegreen_seats clickable_seats" points="447.489 326.246 434.621 320 427.311 334.89 422 341.651 433.225 350.477 439.472 342.533"></polygon>
        <polygon id="Stroke-636" class="regions palegreen_seats clickable_seats" points="426.698 355.826 415.471 347 397 370.508 408.227 379.331"></polygon>
        <polygon id="Stroke-638" class="regions palegreen_seats clickable_seats" points="410.651 378.826 399.423 370 384 389.624 395.229 398.45"></polygon>
        <polygon id="Stroke-640" class="regions palegreen_seats clickable_seats" points="393.619 400.821 382.389 392 367 411.581 378.23 420.404"></polygon>
        <polygon id="Stroke-642" class="regions palegreen_seats clickable_seats" points="376.326 422.823 365.096 414 350.525 432.536 350 432.962 360.213 443.068 360.754 442.639"></polygon>
        <polygon id="Stroke-644" class="regions palegreen_seats clickable_seats" points="357.608 445.096 347.422 435 330 449.11 337.702 461.201"></polygon>
        <polygon id="Stroke-646" class="regions palegreen_seats clickable_seats" points="334.438 462.123 326.8 450 306 460.15 310.863 473.684"></polygon>
        <polygon id="Stroke-648" class="regions palegreen_seats clickable_seats" points="303.55 461 308.251 474.591 282.682 480.558 281 466.304"></polygon>
        <polygon id="Stroke-650" class="regions palegreen_seats clickable_seats" points="279.297 480.27 277.718 466 254.526 466.132 253 480.435"></polygon>
        <polygon id="Stroke-652" class="regions palegreen_seats clickable_seats" points="250.618 480.291 252.377 466.047 229.652 461 225 474.604"></polygon>
        <polygon id="Stroke-654" class="regions palegreen_seats clickable_seats" points="226.479 458.92 221.719 472.453 198 461.207 205.58 449"></polygon>
        <polygon id="Stroke-656" class="regions palegreen_seats clickable_seats" points="203.277 447.355 195.603 459.504 175 443.207 185.129 433"></polygon>
        <polygon id="Stroke-658" class="regions palegreen_seats clickable_seats" points="183.007 430.391 172.789 440.471 157 420.87 168.2 412"></polygon>
        <polygon id="Stroke-660" class="regions palegreen_seats clickable_seats" points="155.359 418.902 166.425 409.881 151.22 391 140 399.839"></polygon>
        <polygon id="Stroke-662" class="regions palegreen_seats clickable_seats" points="138.658 397.32 149.82 388.416 134.189 369 123 377.871"></polygon>
        <polygon id="Stroke-664" class="regions palegreen_seats clickable_seats" points="120.771 376.197 131.908 367.281 113.164 344 102 352.891"></polygon>
        <polygon id="Stroke-666" class="regions palegreen_seats clickable_seats" points="100.055 349.745 111.243 340.851 107.427 336.113 97.757 317 85 323.418 95.369 343.898"></polygon>
        <polygon id="Stroke-668" class="regions palegreen_seats clickable_seats" points="83.881 320.86 96.585 314.359 83.756 289 71 295.391"></polygon>
        <polygon id="Stroke-670" class="regions palegreen_seats clickable_seats" points="69.917 292.881 82.582 286.322 69.769 261 57 267.381"></polygon>
        <polygon id="Stroke-672" class="regions palegreen_seats clickable_seats" points="55.609 265.008 68.262 258.451 60.695 243.492 58.599 237 45 241.373 47.457 248.939"></polygon>
        <polygon id="Stroke-674" class="regions palegreen_seats clickable_seats" points="43.405 238.728 56.946 234.213 53.321 222.975 51.114 209 37 211.153 39.379 226.308"></polygon>
        <polygon id="Stroke-676" class="regions palegreen_seats clickable_seats" points="36.924 207.515 50.969 205.088 50.29 200.784 50.275 181.854 36 181 36.025 201.903"></polygon>
        <polygon id="Stroke-678" class="regions palegreen_seats clickable_seats" points="39.723 154.34 36 178.03 50.275 179.139 53.674 157.654 54.42 155.337 40.788 151"></polygon>
        <polygon id="Stroke-680" class="regions palegreen_seats clickable_seats" points="42 148.301 55.634 152.588 60.632 137.08 68.018 122.41 55.257 116 47.355 131.627"></polygon>
        <polygon id="Stroke-682" class="regions palegreen_seats clickable_seats" points="56 113.02 68.788 119.381 69.836 117.303 82.541 99.664 95.214 87.033 88.885 73 71.598 90.411 57.592 109.896"></polygon>
        <polygon id="Stroke-684" class="regions palegreen_seats clickable_seats" points="82.062 282.061 95.839 274.76 85.823 255 72 262.207"></polygon>
        <polygon id="Stroke-686" class="regions palegreen_seats clickable_seats" points="106.81 113 114.079 129.117 104.859 141.961 102.79 146.371 88 139.054 90.77 133.411 102.122 117.648"></polygon>
        <polygon id="Stroke-688" class="regions palegreen_seats clickable_seats" points="86.648 141 101.389 148.455 97.098 156.611 95.625 161.177 80 156.348 81.864 150.316"></polygon>
        <polygon id="Stroke-690" class="regions palegreen_seats clickable_seats" points="79.178 159 75.975 168.988 75 175.171 91.148 177.646 91.916 172.775 94.729 164.047"></polygon>
        <polygon id="Stroke-692" class="regions palegreen_seats clickable_seats" points="74.891 178 91.028 180.547 89.6 189.603 89.608 194.419 73 194.62 73.256 188.335"></polygon>
        <polygon id="Stroke-694" class="regions palegreen_seats clickable_seats" points="73.024 197 89.553 197 89.394 206.2 90.1 209.772 73.826 212.465 73 207.237"></polygon>
        <polygon id="Stroke-696" class="regions palegreen_seats clickable_seats" points="90.301 213 74 215.596 75.756 227.151 77.764 233.133 93.282 228.033 91.769 223.342"></polygon>
        <polygon id="Stroke-698" class="regions palegreen_seats clickable_seats" points="79 235.026 94.539 230 97.511 238.874 100.12 244.205 85.609 251.713 82.126 245.027"></polygon>
        <polygon id="Stroke-700" class="regions palegreen_seats clickable_seats" points="87 254.26 101.633 247 111.331 266.164 96.785 273.564"></polygon>
        <polygon id="Stroke-702" class="regions palegreen_seats clickable_seats" points="98 276.328 112.583 269 123.267 290.116 108.738 297.569"></polygon>
        <polygon id="Stroke-704" class="regions palegreen_seats clickable_seats" points="110 299.446 124.535 292 135.925 314.514 121.4 322.003"></polygon>
        <polygon id="Stroke-706" class="regions palegreen_seats clickable_seats" points="136.61 317 122 324.334 123.894 328.225 131.673 337.727 144.365 327.469 137.748 319.248"></polygon>
        <polygon id="Stroke-708" class="regions palegreen_seats clickable_seats" points="146.749 330 134 340.193 147.318 356.765 159.968 346.42"></polygon>
        <polygon id="Stroke-710" class="regions palegreen_seats clickable_seats" points="161.726 349 149 359.219 162.309 375.789 174.93 365.405"></polygon>
        <polygon id="Stroke-712" class="regions palegreen_seats clickable_seats" points="176.818 367 164 377.11 177.226 393.561 190.033 383.412"></polygon>
        <polygon id="Stroke-714" class="regions palegreen_seats clickable_seats" points="191.726 386 179 396.256 191.746 412.093 203.312 400.387"></polygon>
        <polygon id="Stroke-716" class="regions palegreen_seats clickable_seats" points="204.557 403 193 414.677 193.594 415.418 204.981 424.367 215.053 411.545 205.156 403.739"></polygon>
        <polygon id="Stroke-718" class="regions palegreen_seats clickable_seats" points="217.09 413 207 425.837 211.813 429.627 221.1 434.031 228.029 419.242 220.401 415.61"></polygon>
        <polygon id="Stroke-720" class="regions palegreen_seats clickable_seats" points="230.972 420 224 434.77 233.317 439.179 238.49 440.324 241.973 424.372 238.567 423.618"></polygon>
        <polygon id="Stroke-722" class="regions palegreen_seats clickable_seats" points="242 437.646 244.798 425 257.905 427.902 256.533 440.875"></polygon>
        <polygon id="Stroke-724" class="regions palegreen_seats clickable_seats" points="259 441.04 260.224 428.08 274.524 428 276.014 440.943"></polygon>
        <polygon id="Stroke-726" class="regions palegreen_seats clickable_seats" points="278.528 440.969 277 428.013 289.829 425 293.025 437.539"></polygon>
        <polygon id="Stroke-728" class="regions palegreen_seats clickable_seats" points="296.931 440.425 293 424.495 296.53 423.666 304.023 420 311.324 434.607 302.073 439.189"></polygon>
        <polygon id="Stroke-730" class="regions palegreen_seats clickable_seats" points="313.225 433.104 306 418.461 313.655 414.718 317.014 412 327.307 424.699 322.509 428.616"></polygon>
        <polygon id="Stroke-732" class="regions palegreen_seats clickable_seats" points="330.297 423.37 320 410.676 329.837 402.829 330.387 402 342.136 413.529 341.616 414.194"></polygon>
        <polygon id="Stroke-734" class="regions palegreen_seats clickable_seats" points="343.819 411.146 332 399.595 343.47 385 356.333 395.108"></polygon>
        <polygon id="Stroke-736" class="regions palegreen_seats clickable_seats" points="345 382.688 357.863 392.797 370.98 376.108 358.115 366"></polygon>
        <polygon id="Stroke-738" class="regions palegreen_seats clickable_seats" points="360 363.689 372.92 373.842 386.036 357.155 373.113 347"></polygon>
        <polygon id="Stroke-740" class="regions palegreen_seats clickable_seats" points="374 345.67 386.862 355.778 399.963 339.109 387.1 329"></polygon>
        <polygon id="Stroke-742" class="regions palegreen_seats clickable_seats" points="389 326.815 395.582 318.445 395.797 318 410.572 325.193 409.569 327.232 401.894 337.008"></polygon>
        <polygon id="Stroke-744" class="regions palegreen_seats clickable_seats" points="397 315.058 411.653 322.316 420.152 305.162 405.386 298"></polygon>
        <polygon id="Stroke-746" class="regions palegreen_seats clickable_seats" points="407 295.869 421.713 303.139 433.497 279.157 418.739 272"></polygon>
        <polygon id="Stroke-748" class="regions palegreen_seats clickable_seats" points="420 269.902 434.677 277.071 444.057 258.163 444.524 255.997 428.691 252 428.57 252.479"></polygon>
        <polygon id="Stroke-750" class="regions palegreen_seats clickable_seats" points="429 248.506 444.891 252.602 448.511 238.009 448.676 233.684 432.357 233 432.247 235.72"></polygon>
        <polygon id="Stroke-752" class="regions palegreen_seats clickable_seats" points="432.96 230.698 449.334 231.621 449.762 218.891 448.196 209 432 211.662 433.392 219.943"></polygon>
        <polygon id="Stroke-754" class="regions palegreen_seats clickable_seats" points="431.539 208.394 447.707 205.615 446.535 198.68 441.148 185 427 190.516 431.291 203.08"></polygon>
        <polygon id="Stroke-756" class="regions palegreen_seats clickable_seats" points="425.165 188.562 439.562 183.017 438.705 180.859 430.237 168 418 176.081 424.763 187.783"></polygon>
        <polygon id="Stroke-758" class="regions palegreen_seats clickable_seats" points="417.056 173.467 429.241 165.504 428.264 164.03 415.096 151 405 161.079"></polygon>
        <polygon id="Stroke-760" class="regions palegreen_seats clickable_seats" points="412.876 149.087 402.786 159.256 389 145.77 394.463 131"></polygon>
        <polygon id="Stroke-762" class="regions palegreen_seats clickable_seats" points="173.909 109.958 160.871 97 142 116.089 155.103 128.974"></polygon>
        <polygon id="Stroke-764" class="regions palegreen_seats clickable_seats" points="154.129 130.904 141.053 118 131.981 127.164 117.011 128.153 116 129.2 137.717 147.499"></polygon>
        <polygon id="Stroke-766" class="regions palegreen_seats clickable_seats" points="135.668 149.04 114.32 131 106.099 142.376 103 148.497 126.49 160.466 128.703 156.084"></polygon>
        <polygon id="Stroke-768" class="regions palegreen_seats clickable_seats" points="124.946 162.987 122.767 167.305 119.768 176.68 94 170.552 98.311 157.273 101.453 151"></polygon>
        <polygon id="Stroke-770" class="regions palegreen_seats clickable_seats" points="119.326 179.144 93.57 173 91.01 189.5 91 197.392 117.387 197.258 117.36 191.56"></polygon>
        <polygon id="Stroke-772" class="regions palegreen_seats clickable_seats" points="117.266 200.105 91 200 91.002 206.129 93.797 222.918 128.103 214.619 117.386 204.025"></polygon>
        <polygon id="Stroke-774" class="regions palegreen_seats clickable_seats" points="130.003 217 94 225.456 98.215 238.497 103.869 249.472 142.736 229.585"></polygon>
        <polygon id="Stroke-776" class="regions palegreen_seats clickable_seats" points="144.987 232 105 252.095 116.209 274.258 137.725 263.438 131.574 251.665 153.149 240.718 152.474 239.399"></polygon>
        <polygon id="Stroke-778" class="regions palegreen_seats clickable_seats" points="138.528 266 117 276.799 125.081 292.768 146.423 281.979"></polygon>
        <polygon id="Stroke-780" class="regions palegreen_seats clickable_seats" points="148.334 284 127 294.782 134.999 310.59 156.229 299.575"></polygon>
        <polygon id="Stroke-782" class="regions palegreen_seats clickable_seats" points="157.389 303 136 313.904 138.844 319.525 144.977 327.163 163.587 312.195 159.106 306.604"></polygon>
        <polygon id="Stroke-784" class="regions palegreen_seats clickable_seats" points="165.609 314 147 328.966 158.15 342.837 176.864 327.933"></polygon>
        <polygon id="Stroke-786" class="regions palegreen_seats clickable_seats" points="178.623 330 160 345.013 169.859 357.257 188.5 341.904"></polygon>
        <polygon id="Stroke-788" class="regions palegreen_seats clickable_seats" points="171 359.047 189.85 344 202.255 359.736 183.624 374.733"></polygon>
        <polygon id="Stroke-790" class="regions palegreen_seats clickable_seats" points="185 377.001 203.631 362 214.594 375.616 196.145 390.833"></polygon>
        <polygon id="Stroke-792" class="regions palegreen_seats clickable_seats" points="198 393.104 216.754 378 222.778 385.754 223.254 386.124 220.774 389.22 224.688 392.207 212.425 408.04 205.837 402.841"></polygon>
        <polygon id="Stroke-794" class="regions palegreen_seats clickable_seats" points="229.784 391 215 409.811 221.57 414.979 229.132 418.583 239.404 396.985 234.245 394.551"></polygon>
        <polygon id="Stroke-796" class="regions palegreen_seats clickable_seats" points="231 419.581 241.258 398 246.388 400.414 251.934 401.665 246.601 424.959 238.55 423.168"></polygon>
        <polygon id="Stroke-798" class="regions palegreen_seats clickable_seats" points="250 425.328 255.176 402 260.746 403.226 265.961 403.178 266.548 427.095 258.165 427.142"></polygon>
        <polygon id="Stroke-800" class="regions palegreen_seats clickable_seats" points="269 427.234 277.37 427.187 285.527 425.27 280.051 402 274.532 403.29 269.018 403.145"></polygon>
        <polygon id="Stroke-802" class="regions palegreen_seats clickable_seats" points="288.451 424.053 283 400.766 288.519 399.478 293.619 397 304.124 418.458 296.608 422.14"></polygon>
        <polygon id="Stroke-804" class="regions palegreen_seats clickable_seats" points="305.85 417.599 313.369 413.913 319.86 408.661 304.551 390 300.296 393.411 299.373 393.802 301.108 397.476 297 399.56"></polygon>
        <polygon id="Stroke-806" class="regions palegreen_seats clickable_seats" points="322.197 407.582 307 389.131 311.437 385.321 316.632 379 335.425 393.77 328.708 402.316"></polygon>
        <polygon id="Stroke-808" class="regions palegreen_seats clickable_seats" points="318 376.087 329.07 362 347.867 376.773 336.795 390.861"></polygon>
        <polygon id="Stroke-810" class="regions palegreen_seats clickable_seats" points="331 360.79 343.406 345 362.205 359.77 349.794 375.56"></polygon>
        <polygon id="Stroke-812" class="regions palegreen_seats clickable_seats" points="363.962 357.262 345 342.363 354.715 330 373.677 344.902"></polygon>
        <polygon id="Stroke-814" class="regions palegreen_seats clickable_seats" points="374.962 342.98 356 328.078 367.063 314 386.027 328.903"></polygon>
        <polygon id="Stroke-816" class="regions palegreen_seats clickable_seats" points="369 311.399 374.338 304.602 376.003 301 397.525 311.609 394.687 317.395 387.795 326.168"></polygon>
        <polygon id="Stroke-818" class="regions palegreen_seats clickable_seats" points="398.626 309.619 406.543 293.464 385.046 283 377 299.196"></polygon>
        <polygon id="Stroke-820" class="regions palegreen_seats clickable_seats" points="387 280.101 394.879 264 416.379 274.48 408.444 290.628"></polygon>
        <polygon id="Stroke-822" class="regions palegreen_seats clickable_seats" points="395.45 262.459 401.308 250.534 380 240.046 380.95 238.094 383.044 236 424.963 256.557 416.907 272.98"></polygon>
        <polygon id="Stroke-824" class="regions palegreen_seats clickable_seats" points="385 233.678 398.544 220 431.665 236.255 428.322 249.394 426.126 253.878"></polygon>
        <polygon id="Stroke-826" class="regions palegreen_seats clickable_seats" points="401 217.511 410.274 208 431.411 211.141 432.941 219.282 432.23 232.682"></polygon>
        <polygon id="Stroke-828" class="regions palegreen_seats clickable_seats" points="376.842 149.963 389.675 137.016 394.631 121.977 379.951 123.082 372.769 116 358 131.065"></polygon>
        <polygon id="Stroke-830" class="regions palegreen_seats clickable_seats" points="355.991 129.532 370.457 114.736 351.49 96 337 110.771"></polygon>
        <polygon id="Stroke-832" class="regions palegreen_seats clickable_seats" points="176.587 107.906 163 94.342 166.475 90.827 183.839 77.811 203.125 67.833 214.695 64 220.389 80.591 209.894 83.918 184.99 99.389"></polygon>
        <polygon id="Stroke-834" class="regions magenta_seats " points="233 62.074 235.324 76.424 246.034 74.66 265.01 74.529 283.792 77.396 294.305 80.752 298.518 66.855 287.107 63.203 266.068 60 244.797 60.13"></polygon>
        <polygon id="Stroke-836" class="regions palegreen_seats clickable_seats" points="335.528 108.768 350.657 93.412 346.252 89.045 328.49 76.572 309.165 66.657 300.006 64 295 80.385 302.554 82.807 327.114 100.446"></polygon>
        <polygon id="Stroke-838" class="regions gray_seats" points="98.986 94 87.662 105.434 74.919 123.166 72.266 128.407 65.074 142.628 58.389 163.429 55 184.987 55 187.781 55.024 206.802 56.24 214.579 58.403 228.37 62.068 239.673 76.482 235.564 73.181 225.337 71.173 212.62 70.712 209.7 70.094 205.784 70.081 188.557 70.079 185.994 73.171 166.445 73.85 164.337 74.699 161.704 79.165 147.607 85.967 134.24 87.197 131.798 88.149 129.906 99.711 113.854 105.194 108.408"></polygon>
        <polygon id="Stroke-840" class="regions palegreen_seats clickable_seats" points="461.83 260.235 447 253.947 450.309 243 467.062 245.143"></polygon>
        <polygon id="Stroke-842" class="regions palegreen_seats clickable_seats" points="456.147 272.108 442 266.027 446.923 254 461.778 260.333"></polygon>
        <polygon id="Stroke-844" class="regions palegreen_seats clickable_seats" points="449.356 286.681 435 278.711 441.285 268 455.591 273.87"></polygon>
        <polygon id="Stroke-846" class="regions palegreen_seats clickable_seats" points="444.321 295.547 430 288.194 434.666 279 449.046 287.013"></polygon>
        <polygon id="Stroke-848" class="regions palegreen_seats clickable_seats" points="440.674 303.43 426 296.121 429.566 289 443.909 296.665"></polygon>
        <polygon id="Stroke-850" class="regions palegreen_seats clickable_seats" points="436.675 310.429 422 303.117 425.567 296 440.201 303.066"></polygon>
        <polygon id="Stroke-852" class="regions palegreen_seats clickable_seats" points="432.674 318.429 418 311.12 421.566 304 436.198 311.069"></polygon>
        <polygon id="Stroke-854" class="regions palegreen_seats clickable_seats" points="429.751 326.696 415 319.027 418.733 312 433.361 319.483"></polygon>
        <polygon id="Stroke-856" class="regions palegreen_seats clickable_seats" points="425.283 334.001 411 326.039 414.76 319 429.598 326.546"></polygon>
        <polygon id="Stroke-858" class="regions palegreen_seats clickable_seats" points="419.595 342.741 406 333.517 410.661 327 424.913 334.721"></polygon>
        <polygon id="Stroke-860" class="regions palegreen_seats clickable_seats" points="412.944 350.745 400 340.682 405.214 334 419.036 342.688"></polygon>
        <polygon id="Stroke-862" class="regions palegreen_seats clickable_seats" points="407.942 357.199 395 347.141 399.792 341 412.741 350.813"></polygon>
        <polygon id="Stroke-864" class="regions palegreen_seats clickable_seats" points="402.945 364.197 390 354.135 394.795 348 407.746 357.811"></polygon>
        <polygon id="Stroke-866" class="regions palegreen_seats clickable_seats" points="397.94 371.202 385 361.139 389.792 355 402.743 364.815"></polygon>
        <polygon id="Stroke-868" class="regions palegreen_seats clickable_seats" points="391.943 377.199 379 367.14 383.796 361 396.744 370.813"></polygon>
        <polygon id="Stroke-870" class="regions palegreen_seats clickable_seats" points="386.946 384.201 374 374.14 378.794 368 391.743 377.816"></polygon>
        <polygon id="Stroke-872" class="regions palegreen_seats clickable_seats" points="381.942 391.2 369 381.141 373.794 375 386.744 384.816"></polygon>
        <polygon id="Stroke-874" class="regions palegreen_seats clickable_seats" points="376.944 398.2 364 388.139 368.795 382 381.742 391.816"></polygon>
        <polygon id="Stroke-876" class="regions palegreen_seats clickable_seats" points="370.941 405.199 358 395.138 362.792 389 375.741 398.813"></polygon>
        <polygon id="Stroke-878" class="regions palegreen_seats clickable_seats" points="365.943 412.197 353 402.137 357.794 396 370.742 405.812"></polygon>
        <polygon id="Stroke-880" class="regions palegreen_seats clickable_seats" points="360.612 417.872 348 408.142 352.794 402 365.746 411.814"></polygon>
        <polygon id="Stroke-882" class="regions palegreen_seats clickable_seats" points="122 353.238 133.524 344 138.449 350.03 127.164 359.338"></polygon>
        <polygon id="Stroke-884" class="regions palegreen_seats clickable_seats" points="128 360.241 139.525 351 144.449 357.03 133.162 366.339"></polygon>
        <polygon id="Stroke-886" class="regions palegreen_seats clickable_seats" points="134 367.243 145.526 358 150.45 364.034 139.162 373.341"></polygon>
        <polygon id="Stroke-888" class="regions palegreen_seats clickable_seats" points="139 373.242 150.526 364 155.45 370.034 144.165 379.34"></polygon>
        <polygon id="Stroke-890" class="regions palegreen_seats clickable_seats" points="144 380.24 155.527 371 160.451 377.035 149.166 386.339"></polygon>
        <polygon id="Stroke-892" class="regions palegreen_seats clickable_seats" points="150 387.244 161.526 378 166.449 384.037 155.165 393.339"></polygon>
        <polygon id="Stroke-894" class="regions palegreen_seats clickable_seats" points="155 393.232 166.529 384 171.325 389.873 160.032 399.165"></polygon>
        <polygon id="Stroke-896" class="regions palegreen_seats clickable_seats" points="160 400.448 171.36 391 181.933 404.122 170.959 413.817"></polygon>
        <polygon id="Stroke-898" class="regions palegreen_seats clickable_seats" points="172 414.442 183.368 405 193.665 417.782 182.674 427.455"></polygon>
        <polygon id="Stroke-900" class="regions palegreen_seats clickable_seats" points="116 345.271 128.141 337 133.066 343.034 121.779 352.335"></polygon>
        <polygon id="Stroke-902" class="regions palegreen_seats clickable_seats" points="110 336.255 123.986 329 127.553 336 115.334 344.029"></polygon>
        <polygon id="Stroke-904" class="regions palegreen_seats clickable_seats" points="106 329.257 119.987 322 123.559 328.922 109.792 336.289"></polygon>
        <polygon id="Stroke-906" class="regions palegreen_seats clickable_seats" points="102 321.258 115.987 314 119.557 320.923 105.793 328.289"></polygon>
        <polygon id="Stroke-908" class="regions palegreen_seats clickable_seats" points="98 314.256 111.986 307 115.558 313.921 101.791 321.29"></polygon>
        <polygon id="Stroke-910" class="regions palegreen_seats clickable_seats" points="94 306.254 107.987 299 111.558 305.921 97.794 313.287"></polygon>
        <polygon id="Stroke-912" class="regions palegreen_seats clickable_seats" points="90 298.255 103.987 291 107.56 297.923 93.793 305.286"></polygon>
        <polygon id="Stroke-914" class="regions palegreen_seats clickable_seats" points="86 291.255 99.987 284 103.558 290.924 89.792 298.29"></polygon>
        <polygon id="Stroke-916" class="regions palegreen_seats clickable_seats" points="82 283.254 95.987 276 99.559 282.918 85.793 290.287"></polygon>
        <polygon id="Stroke-918" class="regions palegreen_seats clickable_seats" points="67 254.55 81.55 247 85.121 253.92 70.793 261.581"></polygon>
        <polygon id="Stroke-920" class="regions palegreen_seats clickable_seats" points="62 244.096 77.218 238 80.096 245.237 65.087 251.462"></polygon>
        <polygon id="Stroke-922" class="regions palegreen_seats clickable_seats" points="343.387 435.898 333 423.014 341.624 416 352.501 426.722"></polygon>
        <polygon id="Stroke-924" class="regions palegreen_seats clickable_seats" points="333.034 443.539 324 430.021 332.63 423 343.065 435.693"></polygon>
        <polygon id="Stroke-926" class="regions palegreen_seats clickable_seats" points="321.243 450.793 314 435.912 323.977 431 332.862 444.981"></polygon>
        <polygon id="Stroke-928" class="regions palegreen_seats clickable_seats" points="308.776 456.104 303 440.904 312.976 436 320.309 450.702"></polygon>
        <polygon id="Stroke-930" class="regions palegreen_seats clickable_seats" points="295.811 459.713 292 443.609 302.81 441 308.423 456.584"></polygon>
        <polygon id="Stroke-932" class="regions palegreen_seats clickable_seats" points="282.312 462.701 280 446.611 290.811 444 294.75 459.956"></polygon>
        <polygon id="Stroke-934" class="regions palegreen_seats clickable_seats" points="268 447.380493 279.327154 447 281.380371 462.988066 268 462.988065"></polygon>
        <polygon id="Stroke-936" class="regions palegreen_seats clickable_seats" points="255 463.27 256.427 447.072 267.547 447 267.737 463.436"></polygon>
        <polygon id="Stroke-938" class="regions palegreen_seats clickable_seats" points="241 460.122 244.726 444 255.57 446.457 253.688 462.912"></polygon>
        <polygon id="Stroke-940" class="regions palegreen_seats clickable_seats" points="229 457.449 234.067 442 244.912 444.455 241.364 460.5"></polygon>
        <polygon id="Stroke-942" class="regions palegreen_seats clickable_seats" points="216 451.909 223.17 437 233.212 441.771 227.766 457.416"></polygon>
        <polygon id="Stroke-944" class="regions palegreen_seats clickable_seats" points="204 445.96 212.333 432 222.375 436.777 215.395 451.655"></polygon>
        <polygon id="Stroke-946" class="regions palegreen_seats clickable_seats" points="193 438.008 203.229 425 211.997 431.834 203.297 445.928"></polygon>
        <polygon id="Stroke-948" class="regions palegreen_seats clickable_seats" points="185.956 432.365 183 428.243 193.765 418 202.533 424.501 192.5 437.517"></polygon>
        <polygon id="Stroke-950" class="regions palegreen_seats clickable_seats" points="352.953 425.938 342 415.262 346.997 409 359.602 418.471"></polygon>
        <polygon id="Stroke-952" class="regions palegreen_seats clickable_seats" points="427.314 138.168 415.42 150.288 402 137.12 413.895 125"></polygon>
        <polygon id="Stroke-954" class="regions palegreen_seats clickable_seats" points="440.023 151.858 427.038 162.687 416 152.121 427.892 140"></polygon>
        <polygon id="Stroke-956" class="regions palegreen_seats clickable_seats" points="453.928 172.219 438.879 180.309 428 163.897 440.979 153"></polygon>
        <polygon id="Stroke-958" class="regions palegreen_seats clickable_seats" points="463.488 194.141 447.303 199.096 440 180.811 454.998 173"></polygon>
        <polygon id="Stroke-960" class="regions palegreen_seats clickable_seats" points="467.354 218.412 450.508 220.037 447 200.661 463.256 196"></polygon>
        <polygon id="Stroke-962" class="regions palegreen_seats clickable_seats" points="466.828 242.774 450 240.922 450.525 221.243 467.39 220"></polygon>
        <polygon id="Stroke-964" class="regions palegreen_seats clickable_seats" points="413.127 123.901 401.234 136.021 395 129.904 401.016 112"></polygon>

    </g>
</svg>