<?xml version="1.0" encoding="UTF-8"?>
<!DOCTYPE svg PUBLIC "-//W3C//DTD SVG 1.1//EN" "http://www.w3.org/Graphics/SVG/1.1/DTD/svg11.dtd">
<!-- Creator: CorelDRAW X7 -->
<svg xmlns="http://www.w3.org/2000/svg" xml:space="preserve" width="760px" height="420px" version="1.1" shape-rendering="geometricPrecision" text-rendering="geometricPrecision" image-rendering="optimizeQuality" fill-rule="evenodd" clip-rule="evenodd"
viewBox="0 0 760 420"
 xmlns:xlink="http://www.w3.org/1999/xlink">
 <g id="__x0023_Layer_x0020_1">
  <metadata id="CorelCorpID_0Corel-Layer"/>
  <g id="_1894922383312">
   <path fill="#282828" fill-rule="nonzero" stroke="#373435" stroke-width="5.11975" d="M279 348c10,18 33,31 59,31 29,0 54,-16 62,-39 1,0 1,0 1,0 0,1 0,2 1,2 0,0 0,1 0,1 0,0 1,1 1,2 14,18 28,22 37,22 3,0 6,0 9,-1 15,-4 26,-19 29,-37 0,-2 0,-4 0,-8l5 -1c2,0 3,-1 4,-2 6,10 14,17 24,19 2,1 5,1 8,1l0 0c17,0 32,-13 44,-37 2,1 3,1 5,0l13 -3c3,-1 5,-2 7,-5 1,-2 2,-5 1,-8 0,-2 -1,-3 -2,-4 0,-1 0,-1 0,-1 7,-8 11,-22 10,-35 0,-8 -2,-15 -6,-21l-17 -29c-5,-8 -12,-13 -20,-13 -3,0 -5,1 -8,1 -3,2 -5,3 -7,5 -1,0 -1,-1 -1,-1 -1,-1 -2,-2 -2,-3 0,0 -1,-1 -1,-1 1,-2 1,-3 2,-4 1,-3 1,-6 -1,-9 0,0 -9,-14 -9,-14 1,-6 0,-10 -2,-14l-20 -34c-1,0 -2,-1 -2,-2 -4,-4 -9,-6 -12,-6l-4 -6c-2,-3 -6,-5 -9,-5 -1,0 -2,0 -3,0l-4 1c0,-1 -2,-4 -2,-4 -1,-1 -1,-2 -2,-2 -2,-2 -4,-3 -7,-3 -1,0 -2,0 -3,0l-39 9 -10 -18c-1,0 -1,-1 -1,-1 -2,-2 -5,-4 -7,-4 -1,0 -1,0 -2,0 -5,0 -10,4 -10,10l0 0c-1,3 -2,10 -3,20l-55 13c-1,0 -1,0 -2,0l-8 -15c-1,0 -1,0 -1,-1 -2,-2 -5,-4 -7,-4 -3,0 -5,0 -7,1 0,0 0,-1 -1,-2 -2,-4 -5,-7 -8,-10 -10,-9 -24,-13 -38,-13 -3,0 -6,0 -9,0 -29,4 -51,27 -49,51 1,8 4,15 8,21 0,1 1,2 1,3 1,1 1,2 2,2 0,1 0,1 0,1 -18,9 -30,27 -30,46 0,10 3,19 8,27l17 29c9,17 28,28 49,30 -1,5 -2,10 -2,16 0,10 3,19 8,27l18 29zm253 -99l0 0c-2,1 -4,3 -5,5 -8,19 -18,31 -27,31 -1,-6 -1,-12 0,-18 3,-26 9,-40 14,-47l18 29zm-192 73l0 0c-6,3 -13,4 -21,4 -9,0 -18,-2 -25,-6 2,-27 27,-27 28,-27 1,0 2,0 3,0 0,2 0,4 1,6l14 23zm7 -59l0 0c-2,-4 -4,-7 -8,-10 1,0 2,0 3,-1l12 20c2,4 5,8 8,12 0,1 0,3 0,4 0,0 -15,-25 -15,-25zm-97 -134l0 0c0,0 5,8 5,8 0,0 0,0 0,0 -4,0 -8,-1 -12,-1 2,-3 4,-5 7,-7zm-13 94l0 0c-5,-1 -11,-2 -15,-4 0,-5 2,-10 5,-13 1,2 10,17 10,17z"/>
  </g>
  <g id="_1894922382416">
   <path fill="#FFF212" fill-rule="nonzero" stroke="#FFF212" stroke-width="5.11975" d="M247 148c-8,0 -16,-3 -22,-8 -8,-6 -13,-15 -14,-24 -2,-19 16,-37 40,-40 14,-2 29,2 38,10 6,5 9,11 9,18 0,14 -9,23 -22,23 -13,0 -23,-9 -23,-19 0,-3 1,-6 2,-8 1,-1 1,-1 1,-1 0,1 0,1 0,1 -2,3 -2,5 -2,8 0,10 10,18 22,18 13,0 21,-9 21,-22 0,-6 -3,-12 -8,-17 -9,-8 -24,-12 -38,-10 -23,3 -41,20 -39,38 1,10 6,19 13,25 8,6 17,8 28,7 0,0 1,0 1,0 0,0 -1,1 -1,1 -2,0 -4,0 -6,0z"/>
  </g>
  <g id="_1894922383792">
   <path fill="#F7ADAF" fill-rule="nonzero" stroke="#F7ADAF" stroke-width="5.11975" d="M242 234c-28,0 -50,-20 -50,-44 0,-11 4,-22 13,-30 9,-8 20,-13 33,-14 0,0 0,0 0,0 0,1 0,1 0,1 -12,1 -24,6 -32,14 -9,8 -13,18 -13,29 0,24 22,43 49,43 15,0 29,-6 38,-15 -16,1 -29,-2 -37,-9 -6,-5 -8,-12 -8,-20 1,-14 15,-25 30,-25 15,0 30,9 30,24 0,11 -5,21 -12,29 3,0 7,-1 11,-2 2,0 13,-3 35,-8 0,0 0,0 1,0 0,1 -1,1 -1,1 -21,5 -33,8 -35,8 -4,1 -8,2 -12,2 -10,9 -24,16 -40,16zm23 -69l0 0c-15,0 -28,11 -29,24 -1,8 2,14 8,19 8,7 21,10 37,9 8,-8 13,-18 13,-29 0,-14 -15,-23 -29,-23z"/>
  </g>
  <g id="_1894922383632">
   <path fill="#F7ADAF" fill-rule="nonzero" stroke="#F7ADAF" stroke-width="5.11975" d="M414 190c0,0 0,0 0,-1 0,0 0,0 0,0 22,-5 44,-10 61,-14 1,0 1,0 1,1 0,0 0,0 0,0 -18,4 -40,9 -61,14 0,0 0,0 -1,0z"/>
  </g>
  <g id="_1894922380304">
   <path fill="#F58634" fill-rule="nonzero" stroke="#F58634" stroke-width="5.11975" d="M422 325c-7,0 -18,-4 -29,-19 0,0 0,0 0,0 0,0 1,0 1,0 10,14 22,20 34,17 10,-3 18,-14 20,-28 1,-9 9,-67 12,-91 0,0 0,0 1,0 0,0 0,0 0,1 -3,24 -11,81 -12,90 -2,15 -10,26 -21,29 -2,0 -4,1 -6,1z"/>
  </g>
  <g id="_1894922380976">
   <path fill="#0098DA" fill-rule="nonzero" stroke="#0098DA" stroke-width="5.11975" d="M310 197c0,0 -1,0 -1,0 -5,-1 -9,-7 -9,-12 2,-13 10,-84 10,-85 0,0 0,0 1,0 0,0 0,0 0,0 0,1 -8,72 -10,85 0,5 3,10 8,11 5,1 11,-4 14,-18l0 -1c0,-1 0,-1 0,-1 0,0 1,0 1,1l-1 1c-1,9 -6,19 -13,19z"/>
  </g>
  <g id="_1894922382000">
   <path fill="#0098DA" fill-rule="nonzero" stroke="#0098DA" stroke-width="5.11975" d="M414 209c-5,0 -10,-1 -14,-4 -10,-6 -15,-19 -13,-32 2,-12 11,-95 11,-96 0,0 1,0 1,0 0,0 0,0 0,0 0,1 -9,84 -11,96 -2,13 3,25 12,31 9,6 20,6 31,-1 4,-2 8,-6 11,-10 0,0 1,0 1,0 0,0 0,0 0,1 -4,4 -8,7 -12,10 -5,3 -11,5 -17,5z"/>
  </g>
  <g id="_1894922381232">
   <path fill="#0098DA" fill-rule="nonzero" stroke="#0098DA" stroke-width="5.11975" d="M441 267c-3,0 -5,0 -6,-2 -3,-3 -3,-10 -2,-15 2,-17 4,-36 4,-36l1 0c0,0 -3,19 -5,36 0,5 -1,12 3,15 1,1 3,2 7,1 2,0 8,-4 10,-9 0,-1 0,-1 0,-1 1,0 1,1 1,1 -2,6 -9,10 -11,10 -1,0 -2,0 -2,0z"/>
  </g>
  <g id="_1894922380400">
   <path fill="#FFF212" fill-rule="nonzero" stroke="#FFF212" stroke-width="5.11975" d="M396 178c0,0 0,0 0,0 0,0 0,0 0,0l1 -1c7,-1 13,-2 15,-19 3,-19 5,-46 5,-47 1,0 1,0 1,0 0,0 0,0 0,0 0,1 1,14 14,14 1,0 1,0 1,0 0,0 0,0 0,0 0,0 -2,22 -4,31 -1,7 0,11 3,14 2,2 5,2 8,1 9,-2 11,-9 12,-17l4 -37c0,-1 1,-1 1,-1 0,0 0,1 0,1l-5 37c0,8 -2,16 -12,18 -3,1 -6,0 -9,-1 -2,-3 -4,-8 -3,-15 2,-9 4,-27 4,-31 -10,0 -13,-6 -14,-10 -1,7 -3,28 -5,43 -3,18 -9,19 -16,20l-1 0c0,0 0,0 0,0z"/>
  </g>
  <g id="_1894922378576">
   <path fill="#F58634" fill-rule="nonzero" stroke="#F58634" stroke-width="5.11975" d="M373 283c0,0 0,0 0,0 0,-1 0,-1 0,-1l3 0 0 0c7,-2 13,-3 15,-19 3,-17 7,-60 8,-73 0,0 0,0 0,0 1,0 1,0 1,0 -1,13 -5,56 -8,73 -2,17 -8,18 -15,20l-1 0 -3 0c0,0 0,0 0,0z"/>
  </g>
  <g id="_1894922380176">
   <path fill="#F58634" fill-rule="nonzero" stroke="#F58634" stroke-width="5.11975" d="M338 191c-1,0 -2,0 -2,0 -8,-1 -15,-9 -14,-24 1,-27 16,-27 16,-27 1,0 3,0 5,2 2,2 4,7 3,14 -1,8 -7,11 -10,12 -5,2 -11,1 -13,-2 0,0 0,0 0,0 0,0 0,1 0,1 -1,10 4,22 13,23 8,2 15,-5 19,-17 0,-1 0,-1 1,-1 0,0 0,1 0,1 -5,14 -12,18 -18,18zm-15 -27l0 0c0,0 0,0 0,0 0,1 1,1 1,2 2,2 7,3 12,1 3,-1 8,-3 9,-11 1,-7 -1,-11 -3,-13 -2,-2 -4,-2 -4,-2 0,0 -13,0 -15,23z"/>
  </g>
  <g id="_1894922379184">
   <path fill="#ED3237" fill-rule="nonzero" stroke="#ED3237" stroke-width="5.11975" d="M371 186c-1,0 -2,0 -3,-1 -7,-1 -14,-9 -13,-23 0,-11 3,-19 7,-24 4,-4 8,-4 9,-4 1,0 3,1 5,3 2,2 4,6 3,14 0,0 -1,0 -1,0 0,0 0,0 0,0 1,-8 -1,-12 -3,-14 -2,-2 -4,-2 -4,-2 0,0 -14,0 -15,27 -1,10 3,21 13,23 7,1 15,-6 19,-18 0,0 0,0 1,0 0,0 0,0 0,0 -5,14 -12,19 -18,19z"/>
  </g>
  <g id="_1894922378928">
   <path fill="#A8CF45" fill-rule="nonzero" stroke="#A8CF45" stroke-width="5.11975" d="M490 161c-1,0 -1,0 -2,0 -7,-1 -14,-9 -14,-24 2,-27 16,-27 16,-27 1,0 3,0 5,3 2,2 4,6 3,13 0,1 0,1 0,1 -1,0 -1,0 -1,-1 1,-7 -1,-11 -2,-13 -2,-2 -4,-2 -5,-2 0,0 -14,0 -15,26 0,10 4,22 13,23 8,2 15,-5 20,-17 0,-1 0,-1 0,-1 0,0 1,1 0,1 -4,14 -12,18 -18,18z"/>
  </g>
  <g id="_1894922379056">
   <path fill="#F7ADAF" fill-rule="nonzero" stroke="#F7ADAF" stroke-width="5.11975" d="M500 296c-2,0 -3,-1 -5,-1 -9,-2 -16,-9 -20,-20 -5,-11 -7,-26 -5,-42 3,-27 10,-46 21,-57 9,-10 17,-10 18,-9 1,0 5,1 8,5 4,5 8,16 5,37 0,0 -1,0 -1,0 0,0 0,0 0,0 4,-21 0,-31 -4,-36 -3,-4 -7,-5 -8,-6 -1,0 -9,0 -18,9 -10,11 -17,30 -20,57 -3,27 4,56 24,61 6,2 25,3 42,-36 0,-1 0,-1 0,-1 1,1 1,1 1,1 -10,24 -24,38 -38,38z"/>
  </g>
  <g id="_1894922378960">
   <path fill="#ED3237" fill-rule="nonzero" stroke="#ED3237" stroke-width="5.11975" d="M333 120c0,0 -1,0 -1,0 0,-1 0,-1 1,-1l127 -28c0,0 0,0 1,0 0,0 0,0 0,0l-2 11 19 -4c0,0 0,0 0,1 0,0 0,0 0,0l-20 4c0,0 0,0 0,0 0,0 0,0 0,0l2 -11 -127 28c0,0 0,0 0,0z"/>
  </g>
  <g id="_1894915732784">
   <path fill="#F7ADAF" fill-rule="nonzero" stroke="#F7ADAF" stroke-width="5.11975" d="M461 167c-3,0 -4,-1 -6,-2 -3,-3 -4,-8 -3,-14 0,-1 0,-1 0,-1 1,0 1,0 1,1 -1,6 0,11 3,13 2,2 4,2 8,1 8,-2 11,-8 12,-17 0,0 0,0 0,0 0,0 0,0 0,0 -1,9 -3,16 -12,18 -1,1 -2,1 -3,1z"/>
  </g>
  <g id="_1894915733520">
   <path fill="#A8CF45" fill-rule="nonzero" stroke="#A8CF45" stroke-width="5.11975" d="M319 337c-30,0 -55,-21 -55,-46 0,-13 5,-25 13,-32 7,-7 17,-10 26,-10 21,0 39,13 39,30 0,5 -2,10 -5,14 0,1 -1,1 -1,1 0,-1 0,-1 0,-1 3,-4 5,-9 5,-14 0,-16 -17,-29 -38,-29 -9,0 -18,3 -25,9 -9,8 -13,19 -13,32 0,25 24,45 54,45 30,0 54,-20 54,-45 0,-18 -9,-30 -18,-42 -8,-10 -16,-19 -16,-32 0,-6 3,-11 8,-15 6,-5 14,-7 23,-6 10,2 17,11 16,20 0,4 -4,9 -8,11 -4,2 -8,2 -11,0 -1,0 -1,0 -1,0 1,-1 1,-1 1,-1 3,2 7,2 11,0 4,-2 7,-6 7,-10 1,-9 -6,-17 -15,-19 -9,-1 -17,0 -23,5 -4,4 -7,10 -7,15 0,13 8,22 15,32 10,11 19,23 19,42 0,25 -24,46 -55,46z"/>
  </g>
  <g id="_1894915733008">
   <path fill="#ED3237" fill-rule="nonzero" stroke="#ED3237" stroke-width="5.11975" d="M418 274c0,0 0,0 0,0 -6,0 -10,-2 -13,-6 -4,-5 -3,-12 -3,-13 0,0 0,0 0,0 10,-5 15,-13 15,-21 0,-3 -2,-5 -5,-6 -4,-1 -10,0 -16,9 -1,1 -1,1 -1,1 0,0 0,0 0,1 0,0 -1,-1 -1,-1 0,0 0,0 1,-2 6,-8 13,-10 17,-9 3,1 6,3 6,6 0,9 -6,17 -15,23 0,1 -1,7 3,12 3,3 7,5 12,5 8,0 12,-9 14,-18 0,-1 0,-1 1,-1 0,0 0,1 0,1 -2,9 -7,19 -15,19z"/>
  </g>
  <g id="_1894915734544">
   <path fill="#0098DA" fill-rule="nonzero" stroke="#0098DA" stroke-width="5.11975" d="M551 246c-8,0 -14,-9 -15,-21 -1,-15 6,-29 14,-32 2,-1 3,-1 4,-1 8,0 14,9 14,21 1,14 -5,29 -14,32 -1,1 -2,1 -3,1zm3 -53l0 0c-1,0 -2,0 -3,0 -9,4 -15,18 -14,32 1,12 7,20 14,20 1,0 2,0 3,-1 8,-3 14,-17 13,-31 0,-12 -6,-20 -13,-20z"/>
  </g>
  <g id="_1894915733680">
   <path fill="#FFF212" fill-rule="nonzero" stroke="#FFF212" stroke-width="5.11975" d="M386 295c0,0 0,0 0,0 0,0 0,-1 0,-1l76 -17c0,0 0,0 0,0 0,0 0,1 0,1l-76 17c0,0 0,0 0,0z"/>
  </g>
  <g id="_1894915731088">
   <path fill="#A8CF45" fill-rule="nonzero" stroke="#A8CF45" stroke-width="5.11975" d="M547 260c0,0 0,0 -1,-1 0,0 1,0 1,0l13 -3c0,0 0,0 0,0 0,0 0,1 0,1l-13 3c0,0 0,0 0,0z"/>
  </g>
 </g>
</svg>
