<?xml version="1.0" encoding="utf-8"?>
<svg version="1.1" id="main_logo" xmlns="http://www.w3.org/2000/svg" xmlns:xlink="http://www.w3.org/1999/xlink" x="0px" y="0px"
	 viewBox="-1 -1 220 70" class="">
<style type="text/css">
	.st0{fill:none;stroke:#2B4B9B;stroke-miterlimit:10;stroke-width:0.5}
	.st1{fill:#FFFFFF; stroke:#fff;stroke-miterlimit:1;stroke-width:0.5}
	.st2{fill:#FFFFFF;stroke-width:0.5}
	.st3{fill:none;stroke:#fff;stroke-width:3;stroke-linecap:square}

</style>
<path class="st3 contour " d="M66.7,66.8h-66v-66h66z"/>
<g>
	<path class="st1 smollletter" d="M199.7,50.1v-4.4c1.2,0.8,2.3,1.5,3.6,2c1.2,0.5,2.2,0.8,3.1,0.8c0.9,0,1.6-0.2,2.2-0.6
		c0.6-0.4,0.9-0.9,0.9-1.5c0-0.6-0.2-1.1-0.6-1.5c-0.4-0.4-1.3-1-2.6-1.7c-2.7-1.5-4.4-2.7-5.2-3.8c-0.8-1.1-1.2-2.2-1.2-3.4
		c0-1.6,0.6-2.9,1.9-3.9c1.2-1,2.8-1.5,4.8-1.5c2,0,4.1,0.6,6.3,1.7v4.1c-2.4-1.5-4.4-2.2-6-2.2c-0.8,0-1.4,0.2-1.9,0.5
		c-0.5,0.3-0.7,0.8-0.7,1.3c0,0.5,0.2,0.9,0.7,1.4c0.4,0.4,1.2,1,2.3,1.6l1.5,0.8c3.5,2,5.2,4.1,5.2,6.5c0,1.7-0.7,3.1-2,4.2
		c-1.3,1.1-3.1,1.6-5.1,1.6c-1.2,0-2.3-0.1-3.3-0.4C202.4,51.3,201.2,50.8,199.7,50.1"/>
	<path class="st1 smollletter" d="M181.9,50.1v-4.4c1.2,0.8,2.3,1.5,3.6,2c1.2,0.5,2.2,0.8,3.1,0.8c0.9,0,1.6-0.2,2.2-0.6
		c0.6-0.4,0.9-0.9,0.9-1.5c0-0.6-0.2-1.1-0.6-1.5c-0.4-0.4-1.3-1-2.6-1.7c-2.7-1.5-4.4-2.7-5.2-3.8c-0.8-1.1-1.2-2.2-1.2-3.4
		c0-1.6,0.6-2.9,1.9-3.9c1.2-1,2.8-1.5,4.8-1.5c2,0,4.1,0.6,6.3,1.7v4.1c-2.4-1.5-4.4-2.2-6-2.2c-0.8,0-1.4,0.2-1.9,0.5
		c-0.5,0.3-0.7,0.8-0.7,1.3c0,0.5,0.2,0.9,0.7,1.4c0.4,0.4,1.2,1,2.3,1.6l1.5,0.8c3.5,2,5.2,4.1,5.2,6.5c0,1.7-0.7,3.1-2,4.2
		c-1.3,1.1-3.1,1.6-5.1,1.6c-1.2,0-2.3-0.1-3.3-0.4C184.6,51.3,183.3,50.8,181.9,50.1"/>
	<path class="st1 smollletter" d="M172.2,47.4v-6.2l-2.8,1.1c-1.4,0.6-2.4,1.1-3,1.7c-0.6,0.6-0.9,1.3-0.9,2.1c0,0.9,0.3,1.6,0.8,2.1
		c0.5,0.5,1.3,0.8,2.1,0.8C169.8,49.1,171,48.5,172.2,47.4 M176.2,39.1v8.8c0,0.7,0.2,1.1,0.7,1.1c0.5,0,1.3-0.4,2.3-1.1v2.5
		c-0.9,0.6-1.7,1-2.3,1.2c-0.6,0.2-1.2,0.3-1.8,0.3c-1.8,0-2.8-0.7-3.1-2.1c-1.7,1.4-3.6,2-5.6,2c-1.4,0-2.7-0.5-3.6-1.4
		c-1-1-1.4-2.2-1.4-3.6c0-1.3,0.5-2.5,1.4-3.5c0.9-1,2.3-1.9,4-2.5l5.3-1.8v-1.1c0-2.5-1.3-3.8-3.8-3.8c-2.2,0-4.4,1.2-6.6,3.5v-4.5
		c1.6-1.9,3.9-2.8,6.9-2.8c2.2,0,4,0.6,5.4,1.8c0.5,0.4,0.9,0.9,1.2,1.5c0.4,0.6,0.6,1.3,0.7,1.9C176.2,36.1,176.2,37.3,176.2,39.1"
		/>
	<path class="st1 smollletter" d="M153.1,20v31.4h4.1V23.9C157.2,23.9,153.5,20.8,153.1,20"/>
	<path class="st1 capitalletter" d="M136.3,36v4h6.1v6.6l-0.4,0.1c-2.5,0.8-4.7,1.2-6.5,1.2c-3.7,0-6.8-1.1-9.1-3.4c-2.4-2.3-3.6-5.2-3.6-8.8
		c0-3.4,1.2-6.3,3.6-8.7c2.4-2.4,5.3-3.5,8.7-3.5c3.7,0,7.4,1.1,11.2,3.2l-3.5-5.9c-0.9-0.3-1.8-0.6-2.5-0.8
		c-1.6-0.4-3.3-0.6-5.1-0.6c-4.9,0-8.9,1.6-12.2,4.7c-3.2,3.1-4.9,7.1-4.9,11.8c0,4.5,1.6,8.2,4.7,11.3c3.1,3.1,7.3,4.6,12.5,4.6
		c3.8,0,7.7-0.8,11.6-2.5V36H136.3z"/>
</g>
<g>
	<path class="st1 smollletter" d="M96.3,30.6v4.8l0.2-0.4c2-3.2,4-4.8,6-4.8c1.6,0,3.2,0.8,4.9,2.4l-2.2,3.6c-1.4-1.4-2.8-2-4-2
		c-1.3,0-2.5,0.6-3.5,1.9c-1,1.3-1.5,2.8-1.5,4.5v10.9h-4.1V30.6H96.3z"/>
	<path class="st1 smollletter" d="M72.9,38.9h10.5c-0.1-1.6-0.6-2.9-1.5-3.8c-0.9-0.9-2.1-1.3-3.5-1.3c-1.5,0-2.7,0.4-3.6,1.3
		C73.8,36,73.2,37.3,72.9,38.9 M87.4,41.4H72.8c0.1,2,0.8,3.6,2,4.8c1.2,1.2,2.8,1.8,4.8,1.8c2.7,0,5.2-0.8,7.5-2.5v4
		c-1.3,0.8-2.5,1.5-3.8,1.8c-1.2,0.4-2.7,0.5-4.4,0.5c-2.3,0-4.2-0.5-5.6-1.4c-1.4-1-2.6-2.2-3.4-3.8c-0.9-1.6-1.3-3.5-1.3-5.6
		c0-3.2,0.9-5.8,2.7-7.7c1.8-2,4.1-3,7-3c2.8,0,5,1,6.6,2.9c1.6,1.9,2.5,4.5,2.5,7.8V41.4z"/>
	<path class="st1 smollletter" d="M63.1,30.6 57.7,42.4 52,30.6 47.3,30.6 55.4,47 48.3,62.1 52.9,62.1 67.7,30.6 z"/>
	<path class="st1 smollletter" d="M34.9,30.6v4.8l0.2-0.4c2-3.2,4-4.8,6-4.8c1.6,0,3.2,0.8,4.9,2.4l-2.2,3.6c-1.4-1.4-2.8-2-4-2
		c-1.3,0-2.5,0.6-3.5,1.9c-1,1.3-1.5,2.8-1.5,4.5v10.9h-4.1V30.6H34.9z"/>
</g>
<path class="st2" d="M26.6,32.8v4H14.3v14.7H9.8V20h13.1l3.7,4H14.3v8.8H26.6z "/>
</svg>
