<?xml version="1.0" encoding="UTF-8" standalone="no"?>
<svg width="517px" height="137px" viewBox="0 0 517 137" version="1.1" xmlns="http://www.w3.org/2000/svg" xmlns:xlink="http://www.w3.org/1999/xlink" >
    <!-- Generator: Sketch 39.1 (31720) - http://www.bohemiancoding.com/sketch -->
    <title>svg copy</title>
    <desc>Created with Sketch.</desc>
    <defs></defs>
    <g id="chart-mockup" stroke="none" stroke-width="1" fill="none" fill-rule="evenodd">
        <g id="Artboard" transform="translate(-42.000000, -234.000000)">
            <g id="svg-copy" transform="translate(15.000000, 223.000000)">
                <g id="Group" transform="translate(29.000000, 46.000000)">

                    <circle id="Oval" stroke="#87BAC0" stroke-width="3" cx="50" cy="50" r="50"></circle>
                    <path d="M50,97 C75.9573832,97 97,75.9573832 97,50 C97,42.1006072 85,35.9999998 76,44.9999999 C67,53.9999999 64.4788187,38.9328521 47,46.9999999 C34,53.0000003 18.4949076,42.2542243 10,42 C5.3032582,41.8594422 2.99999854,46.7956489 3,50 C3.00001182,75.9551066 24.0426168,97 50,97 Z" id="Oval-Copy" fill="#C0E4E8"></path>
                    <text id="protein" font-family="Avenir-Medium, Avenir" font-size="14" font-weight="400" letter-spacing="0.233333319" fill="#6CA8AF">
                        <tspan x="107" y="18">20 gr </tspan>
                        <tspan x="107" y="37">Protein</tspan>
                    </text>
                    <text id="proteinprocent" font-family="Avenir-Medium, Avenir" font-size="36" font-weight="400" letter-spacing="0.599999964" fill="#87BAC0">
                        <tspan x="107" y="84">29</tspan>
                        <tspan x="148.232" y="84" font-size="16" letter-spacing="0.266666651">%</tspan>
                    </text>
                </g>
                <g id="Group-Copy" transform="translate(205.000000, 46.000000)">
                    <circle id="Oval" stroke="#CBAB1E" stroke-width="3" cx="50" cy="50" r="50"></circle>
                    <path d="M50,97 C75.9573832,97 97,75.9573832 97,50 C97,42.1006072 85,35.9999998 76,44.9999999 C67,53.9999999 64.4788187,38.9328521 47,46.9999999 C34,53.0000003 18.4949076,42.2542243 10,42 C5.3032582,41.8594422 2.99999854,46.7956489 3,50 C3.00001182,75.9551066 24.0426168,97 50,97 Z" id="Oval-Copy" fill="#CCC297"></path>
                    <text id="carb" font-family="Avenir-Medium, Avenir" font-size="16" font-weight="400" letter-spacing="0.266666651" fill="#9F8616">
                        <tspan x="107" y="18">20 gr </tspan>
                        <tspan x="107" y="40">Protein</tspan>
                    </text>
                    <text id="carbprocent" font-family="Avenir-Medium, Avenir" font-size="36" font-weight="400" letter-spacing="0.599999964" fill="#9F8617">
                        <tspan x="112" y="83">12</tspan>
                        <tspan x="153.232" y="83" font-size="16" letter-spacing="0.266666651">%</tspan>
                    </text>
                </g>
                <g id="Group-Copy-2" transform="translate(382.000000, 46.000000)">
                    <circle id="Oval" stroke="#DC9533" stroke-width="3" cx="50" cy="50" r="50"></circle>
                    <path d="M50,97 C75.9573832,97 97,75.9573832 97,50 C97,42.1006072 85,35.9999998 76,44.9999999 C67,53.9999999 64.4788187,38.9328521 47,46.9999999 C34,53.0000003 18.4949076,42.2542243 10,42 C5.3032582,41.8594422 2.99999854,46.7956489 3,50 C3.00001182,75.9551066 24.0426168,97 50,97 Z" id="Oval-Copy" fill="#EDD4B1"></path>
                    <text id="fat" font-family="Avenir-Medium, Avenir" font-size="16" font-weight="400" letter-spacing="0.266666651" fill="#E88700">
                        <tspan x="107" y="18">20 gr </tspan>
                        <tspan x="107" y="40">Protein</tspan>
                    </text>
                    <text id="fatprocent" font-family="Avenir-Medium, Avenir" font-size="36" font-weight="400" letter-spacing="0.599999964" fill="#E78700">
                        <tspan x="107" y="87" >41</tspan>
                        <tspan x="148.232" y="87" font-size="16" letter-spacing="0.266666651">%</tspan>
                    </text>
                </g>
                <text id="calories" font-family="Avenir-Medium, Avenir" font-size="20" font-weight="400" letter-spacing="0.333333313" fill="#B8995F">
                    <tspan x="216" y="27">300 Calories</tspan>
                </text>
            </g>
        </g>
    </g>
</svg>